<svg width="24" height="20" viewBox="0 0 24 20" fill="none" xmlns="http://www.w3.org/2000/svg">
<path fill-rule="evenodd" clip-rule="evenodd" d="M11.7095 0.00965588C11.1723 0.0953218 10.7018 0.274229 8.36232 1.2825C6.22056 2.20556 5.75425 2.42529 5.83975 2.47091C5.89745 2.50171 7.37332 3.12092 9.1195 3.84691C11.4319 4.80834 12.3398 5.2111 12.4615 5.32969C12.6028 5.46732 12.6286 5.535 12.6286 5.76877C12.6286 6.00254 12.6024 6.07127 12.4587 6.21498C12.1118 6.56193 12.289 6.61707 7.97165 4.81898C5.8178 3.92194 4.02946 3.18809 3.99754 3.18821C3.85055 3.18871 0.610784 4.63199 0.439174 4.77342C-0.154472 5.26274 -0.144557 6.2914 0.458446 6.77704C0.668489 6.94614 10.6301 11.2643 11.1849 11.4267C11.5923 11.5459 12.3466 11.5514 12.7678 11.4383C13.284 11.2996 23.3145 6.94742 23.5329 6.7674C24.1237 6.28037 24.1237 5.25717 23.5329 4.77013C23.3147 4.59028 13.2657 0.230004 12.7957 0.111196C12.4739 0.0298751 11.912 -0.0226499 11.7095 0.00965588ZM3.96729 13.0281V16.2334L3.8056 16.4104C3.54849 16.6919 3.51106 16.9319 3.53133 18.1696C3.54932 19.2718 3.55122 19.287 3.69899 19.51C3.78115 19.6341 3.94407 19.7951 4.06104 19.8678C4.24958 19.985 4.33987 20 4.85849 20C5.37711 20 5.46739 19.985 5.65594 19.8678C5.77291 19.7951 5.93583 19.6341 6.01798 19.51C6.16576 19.287 6.16765 19.2718 6.18564 18.1696C6.20591 16.9319 6.16848 16.6919 5.91138 16.4104L5.74968 16.2334V15.457C5.74968 15.03 5.76143 14.6807 5.7758 14.6807C5.79017 14.6807 5.98005 14.7959 6.19778 14.9368C7.99855 16.1017 10.59 16.6438 13.2134 16.4042C15.5839 16.1878 17.6653 15.3031 19.034 13.9303C19.8836 13.0781 20.0088 12.7001 20.0088 10.9869C20.0088 10.077 19.9936 9.82937 19.9391 9.8526C19.9009 9.86892 18.4158 10.5079 16.6389 11.2726C14.8621 12.0373 13.2329 12.7073 13.0185 12.7616C12.5065 12.8911 11.4916 12.8934 10.9639 12.7661C10.7529 12.7152 9.12368 12.0448 7.34341 11.2762C5.56314 10.5077 4.07524 9.8663 4.03692 9.85087C3.98172 9.82871 3.96729 10.4862 3.96729 13.0281Z" fill="black"/>
</svg>
