<svg width="20" height="20" viewBox="0 0 20 20" fill="none" xmlns="http://www.w3.org/2000/svg">
<path fill-rule="evenodd" clip-rule="evenodd" d="M10.3258 4.00604C9.98968 4.05964 9.69532 4.17156 8.23168 4.80237C6.89174 5.37985 6.6 5.51732 6.65349 5.54586C6.68959 5.56513 7.61294 5.95253 8.70539 6.40672C10.1521 7.00822 10.7201 7.2602 10.7962 7.33439C10.8847 7.42049 10.9008 7.46283 10.9008 7.60909C10.9008 7.75534 10.8844 7.79834 10.7945 7.88824C10.5774 8.10531 10.6883 8.13981 7.98726 7.01487C6.63976 6.45366 5.52093 5.99455 5.50096 5.99462C5.409 5.99494 3.38212 6.89789 3.27476 6.98637C2.90336 7.2925 2.90956 7.93606 3.28682 8.23989C3.41822 8.34568 9.65044 11.0472 9.99755 11.1488C10.2525 11.2234 10.7244 11.2269 10.9879 11.1561C11.3108 11.0693 17.5861 8.34648 17.7228 8.23386C18.0924 7.92916 18.0924 7.28902 17.7228 6.98431C17.5863 6.87179 11.2994 4.1439 11.0053 4.06957C10.804 4.01869 10.4524 3.98583 10.3258 4.00604ZM5.48204 12.1507V14.156L5.38088 14.2668C5.22002 14.4429 5.19661 14.593 5.20929 15.3674C5.22055 16.0569 5.22173 16.0664 5.31418 16.206C5.36558 16.2836 5.46751 16.3843 5.54069 16.4298C5.65864 16.5031 5.71513 16.5125 6.03959 16.5125C6.36405 16.5125 6.42054 16.5031 6.5385 16.4298C6.61168 16.3843 6.7136 16.2836 6.765 16.206C6.85745 16.0664 6.85864 16.0569 6.86989 15.3674C6.88258 14.593 6.85916 14.4429 6.69831 14.2668L6.59714 14.156V13.6703C6.59714 13.4032 6.6045 13.1846 6.61349 13.1846C6.62248 13.1846 6.74127 13.2567 6.87749 13.3448C8.00409 14.0736 9.62539 14.4128 11.2666 14.2629C12.7497 14.1275 14.0519 13.574 14.9082 12.7151C15.4397 12.182 15.518 11.9455 15.518 10.8737C15.518 10.3044 15.5085 10.1495 15.4744 10.164C15.4505 10.1742 14.5214 10.574 13.4097 11.0524C12.2981 11.5308 11.2788 11.95 11.1447 11.984C10.8244 12.065 10.1894 12.0664 9.85928 11.9868C9.72728 11.955 8.708 11.5355 7.59422 11.0547C6.48044 10.5739 5.54957 10.1726 5.5256 10.163C5.49106 10.1491 5.48204 10.5604 5.48204 12.1507Z" fill="black"/>
</svg>
