<svg width="90" height="75" viewBox="0 0 90 75" fill="none" xmlns="http://www.w3.org/2000/svg">
<path fill-rule="evenodd" clip-rule="evenodd" d="M43.9107 0.0362096C41.8962 0.357457 40.1318 1.02836 31.3587 4.80938C23.3271 8.27083 21.5784 9.09484 21.899 9.2659C22.1154 9.38141 27.65 11.7035 34.1981 14.4259C42.8697 18.0313 46.2741 19.5416 46.7305 19.9863C47.2607 20.5025 47.3572 20.7562 47.3572 21.6329C47.3572 22.5095 47.259 22.7673 46.7201 23.3062C45.4192 24.6072 46.0837 24.814 29.8937 18.0712C21.8168 14.7073 15.1105 11.9554 14.9908 11.9558C14.4396 11.9577 2.29044 17.37 1.6469 17.9003C-0.579269 19.7353 -0.542089 23.5927 1.71917 25.4139C2.50683 26.048 39.8628 42.2409 41.9434 42.85C43.4713 43.2972 46.2998 43.3179 47.8793 42.8935C49.8152 42.3734 87.4293 26.0528 88.2483 25.3778C90.464 23.5514 90.464 19.7144 88.2483 17.888C87.4301 17.2135 49.7465 0.862513 47.9838 0.416987C46.7771 0.112032 44.67 -0.0849369 43.9107 0.0362096ZM14.8774 48.8555V60.8754L14.271 61.5389C13.3068 62.5948 13.1665 63.4946 13.2425 68.136C13.31 72.2692 13.3171 72.3262 13.8712 73.1625C14.1793 73.6279 14.7903 74.2318 15.2289 74.5043C15.9359 74.9438 16.2745 75 18.2193 75C20.1641 75 20.5027 74.9438 21.2098 74.5043C21.6484 74.2318 22.2594 73.6279 22.5674 73.1625C23.1216 72.3262 23.1287 72.2692 23.1962 68.136C23.2722 63.4946 23.1318 62.5948 22.1677 61.5389L21.5613 60.8754V57.9639C21.5613 56.3627 21.6054 55.0526 21.6593 55.0526C21.7131 55.0526 22.4252 55.4848 23.2417 56.013C29.9946 60.3814 39.7126 62.4141 49.5503 61.5158C58.4398 60.7041 66.2449 57.3868 71.3776 52.2385C74.5635 49.0429 75.0329 47.6255 75.0329 41.2008C75.0329 37.7888 74.9758 36.8602 74.7718 36.9473C74.6283 37.0085 69.0591 39.4046 62.396 42.2723C55.733 45.1399 49.6234 47.6524 48.8193 47.8559C46.8993 48.3417 43.0934 48.3501 41.1146 47.8728C40.3233 47.6821 34.2138 45.1679 27.5378 42.2858C20.8618 39.4038 15.2822 36.9986 15.1384 36.9408C14.9315 36.8576 14.8774 39.3232 14.8774 48.8555Z" fill="black"/>
</svg>
