<svg width="920" height="921" viewBox="0 0 920 921" fill="none" xmlns="http://www.w3.org/2000/svg">
<path fill-rule="evenodd" clip-rule="evenodd" d="M427.93 1.10391C335.601 7.60091 245.712 42.6739 173.659 100.316C120.555 142.799 79.4083 193.554 49.0593 254.009C24.8163 302.303 10.0763 350.539 3.52633 403.009C-11.7877 525.694 23.2003 649.886 100.237 746.293C142.629 799.345 194.008 840.896 254.947 871.411C448.997 968.583 683.322 916.657 819.623 746.28C866.302 687.931 899.043 616.136 912.322 543.009C930.299 444.012 916.134 344.493 871.332 255.026C825.931 164.36 754.036 92.6579 663.43 47.6809C591.019 11.7359 508.573 -4.57109 427.93 1.10391ZM550.198 282.89C551.976 284.002 590.38 321.946 635.541 367.21C712.368 444.213 717.734 449.815 718.921 454.261C720.327 459.52 719.881 464.203 717.497 469.226C716.631 471.051 678.687 509.739 633.176 555.199C557.37 630.921 550.053 637.952 545.94 639.034C530.018 643.223 516.712 629.916 520.907 613.999C521.986 609.905 527.791 603.8 586.734 544.768L651.377 480.027L432.33 479.768L213.284 479.509L209.23 476.826C202.966 472.681 200.43 467.813 200.43 459.936C200.43 454.479 200.886 452.674 203.113 449.309C204.588 447.08 207.513 444.187 209.613 442.882L213.43 440.509L432.403 440.25L651.377 439.991L586.74 375.25C518.768 307.168 519.941 308.489 519.941 300.009C519.941 292.233 526.247 283.19 533.141 281.08C537.883 279.628 546.435 280.536 550.198 282.89Z" fill="black"/>
</svg>
