<svg width="50" height="50" viewBox="0 0 50 50" fill="none" xmlns="http://www.w3.org/2000/svg">
<path fill-rule="evenodd" clip-rule="evenodd" d="M23.2564 0.0599935C18.2387 0.413081 13.3536 2.31917 9.43774 5.4518C6.55173 7.76059 4.31555 10.5189 2.66619 13.8044C1.34868 16.429 0.547611 19.0505 0.191643 21.902C-0.640616 28.5695 1.26085 35.3189 5.44753 40.5582C7.75137 43.4414 10.5436 45.6996 13.8554 47.3579C24.4013 52.6389 37.136 49.8169 44.5435 40.5575C47.0803 37.3865 48.8597 33.4847 49.5813 29.5105C50.5583 24.1304 49.7885 18.7219 47.3537 13.8597C44.8863 8.93235 40.9791 5.03561 36.055 2.59128C32.1197 0.637803 27.6391 -0.248422 23.2564 0.0599935ZM29.9012 15.374C29.9979 15.4344 32.085 17.4966 34.5393 19.9565C38.7146 24.1413 39.0062 24.4458 39.0707 24.6874C39.1471 24.9732 39.1229 25.2277 38.9933 25.5007C38.9462 25.5999 36.8841 27.7024 34.4108 30.173C30.291 34.2882 29.8934 34.6703 29.6698 34.7291C28.8045 34.9568 28.0814 34.2336 28.3094 33.3686C28.368 33.1461 28.6835 32.8143 31.8868 29.6061L35.3999 26.0877L23.4955 26.0736L11.5912 26.0595L11.3709 25.9137C11.0305 25.6885 10.8926 25.4239 10.8926 24.9958C10.8926 24.6992 10.9174 24.6011 11.0385 24.4183C11.1186 24.2971 11.2776 24.1399 11.3917 24.069L11.5991 23.94L23.4995 23.9259L35.3999 23.9119L31.8872 20.3934C28.1931 16.6934 28.2569 16.7652 28.2569 16.3044C28.2569 15.8818 28.5996 15.3903 28.9742 15.2756C29.232 15.1967 29.6967 15.2461 29.9012 15.374Z" fill="black"/>
</svg>
