<svg width="250" height="250" viewBox="0 0 250 250" fill="none" xmlns="http://www.w3.org/2000/svg">
<path fill-rule="evenodd" clip-rule="evenodd" d="M116.282 0.299968C91.1934 2.06541 66.7678 11.5958 47.1887 27.259C32.7587 38.803 21.5777 52.5947 13.331 69.0222C6.74338 82.1452 2.73805 95.2524 0.958214 109.51C-3.20308 142.848 6.30426 176.594 27.2376 202.791C38.7569 217.207 52.7182 228.498 69.2772 236.79C122.007 263.194 185.68 249.084 222.717 202.788C235.402 186.932 244.298 167.423 247.907 147.553C252.792 120.652 248.942 93.6095 236.768 69.2985C224.431 44.6617 204.895 25.1781 180.275 12.9564C160.599 3.18901 138.195 -1.24211 116.282 0.299968ZM149.506 76.8701C149.989 77.1722 160.425 87.4828 172.697 99.7825C193.573 120.707 195.031 122.229 195.354 123.437C195.736 124.866 195.614 126.139 194.967 127.503C194.731 127.999 184.421 138.512 172.054 150.865C151.455 171.441 149.467 173.352 148.349 173.646C144.023 174.784 140.407 171.168 141.547 166.843C141.84 165.73 143.417 164.071 159.434 148.031L177 130.438L117.478 130.368L57.9561 130.298L56.8545 129.569C55.1523 128.442 54.4632 127.119 54.4632 124.979C54.4632 123.496 54.5871 123.006 55.1923 122.091C55.5931 121.486 56.3879 120.7 56.9585 120.345L57.9957 119.7L117.498 119.63L177 119.559L159.436 101.967C140.966 83.4672 141.284 83.8261 141.284 81.5218C141.284 79.4089 142.998 76.9516 144.871 76.3782C146.16 75.9837 148.484 76.2304 149.506 76.8701Z" fill="black"/>
</svg>
