<svg width="19" height="20" viewBox="0 0 19 20" fill="none" xmlns="http://www.w3.org/2000/svg">
<path fill-rule="evenodd" clip-rule="evenodd" d="M5.7628 0.0200069C4.80106 0.148606 3.96836 1.04258 3.93513 1.98227L3.92569 2.24793L3.65475 2.30603C2.53037 2.54714 1.35895 3.39724 0.704828 4.44677C0.22617 5.21476 0.00252682 6.02302 0.00580044 6.97351C0.00809198 7.63926 0.109792 8.15229 0.366881 8.7949L0.56188 9.28229L0.451504 9.46933C0.265235 9.78507 0.0677264 10.4423 0.0212409 10.9011C-0.0930086 12.0296 0.256669 13.1023 0.99689 13.8936L1.31683 14.2356L1.31825 14.7781C1.31994 15.4182 1.41428 15.8268 1.68533 16.3684C2.05116 17.0995 2.74321 17.721 3.53275 18.0276L3.91555 18.1763L4.02636 18.4959C4.17291 18.9184 4.32737 19.1598 4.62925 19.4381C5.89805 20.6076 7.95122 19.8479 8.20165 18.1163C8.22877 17.929 8.25141 16.1159 8.25201 14.0874L8.2531 10.399L7.93425 10.5509C7.23691 10.883 6.38784 10.9776 6.03893 10.762C5.62252 10.5046 5.49573 9.90264 5.77218 9.49579C5.94547 9.24077 6.12039 9.14977 6.5345 9.09908C7.42875 8.98969 8.06465 8.29 8.19701 7.26983C8.26374 6.75571 8.26756 2.34095 8.20165 1.88543C8.02673 0.676205 6.95964 -0.140019 5.7628 0.0200069ZM11.8636 0.021207C10.9568 0.142058 10.1884 0.932203 10.0505 1.88543C9.98381 2.3463 9.98801 11.1175 10.0551 11.6347C10.1875 12.6552 10.8246 13.3558 11.7177 13.4632C12.3106 13.5345 12.6179 13.8426 12.6179 14.3657C12.6179 14.7054 12.4823 14.9605 12.2132 15.1268C11.8759 15.3353 11.1028 15.2382 10.3128 14.888L9.99903 14.749L10.0001 16.2624C10.0007 17.0947 10.0234 17.929 10.0505 18.1163C10.3009 19.8479 12.3541 20.6076 13.6229 19.4381C13.9248 19.1598 14.0792 18.9184 14.2258 18.4959L14.3366 18.1763L14.7219 18.0266C15.5152 17.7186 16.1979 17.1056 16.5653 16.3714C16.8377 15.8271 16.9322 15.419 16.9339 14.7791L16.9353 14.2379L17.2811 13.8643C17.9082 13.1871 18.2449 12.2979 18.2446 11.3199C18.2445 10.6253 18.0809 9.94438 17.7998 9.46791L17.6903 9.28229L17.8853 8.7949C18.1458 8.14356 18.245 7.6349 18.2456 6.94547C18.2466 5.95536 17.997 5.1243 17.4538 4.30791C16.8037 3.33079 15.6693 2.5359 14.5969 2.30592L14.3264 2.24793L14.317 1.98227C14.2747 0.787453 13.1085 -0.144711 11.8636 0.021207ZM5.15909 4.00406C5.06279 4.06572 4.91045 4.23573 4.82059 4.38178C4.65871 4.64482 4.4498 4.76185 4.14023 4.76273C3.97938 4.76322 3.68656 4.96896 3.56363 5.16778C3.41195 5.41325 3.41195 5.85879 3.56363 6.10426C3.62518 6.20378 3.76185 6.33859 3.86731 6.40379C4.03394 6.50675 4.11769 6.51924 4.50584 6.49884C4.86533 6.47996 5.02967 6.43986 5.34743 6.29336C6.47345 5.77439 6.89585 4.49232 6.10244 4.00194C5.85621 3.84982 5.39828 3.8508 5.15909 4.00406ZM12.5789 5.31373C12.2959 5.49498 12.1814 5.73216 12.1814 6.13727C12.1814 7.11613 12.7863 8.08065 13.664 8.50126C14.5424 8.92225 15.2368 8.60793 15.2368 7.78936C15.2368 7.37279 14.9491 7.02513 14.5145 6.91666C14.2147 6.84186 13.9274 6.33046 13.9274 5.87167C13.9274 5.72566 13.7132 5.42918 13.5227 5.31139C13.2763 5.15916 12.8185 5.16025 12.5789 5.31373ZM3.8492 12.7339C3.31009 13.0793 3.31053 13.9169 3.85007 14.2496C3.9461 14.3087 4.09194 14.374 4.17411 14.3945C4.47392 14.4693 4.76123 14.9807 4.76123 15.4395C4.76123 15.5855 4.97544 15.882 5.16596 15.9998C5.28845 16.0754 5.43985 16.1116 5.6342 16.1116C6.41747 16.1116 6.7145 15.4117 6.36858 14.3812C6.11204 13.6171 5.7006 13.1402 5.00828 12.8043C4.54414 12.5791 4.13024 12.554 3.8492 12.7339Z" fill="black"/>
</svg>
