<svg width="69" height="75" viewBox="0 0 69 75" fill="none" xmlns="http://www.w3.org/2000/svg">
<path fill-rule="evenodd" clip-rule="evenodd" d="M21.6105 0.075026C18.004 0.557272 14.8813 3.90967 14.7567 7.43352L14.7214 8.42973L13.7053 8.64763C9.48887 9.55176 5.09607 12.7397 2.64311 16.6754C0.848137 19.5553 0.00947556 22.5863 0.0217517 26.1507C0.0303449 28.6472 0.411722 30.5711 1.3758 32.9809L2.10705 34.8086L1.69314 35.51C0.994632 36.694 0.253974 39.1586 0.0796533 40.8791C-0.348782 45.1111 0.962508 49.1336 3.73834 52.1009L4.93812 53.3834L4.94344 55.4177C4.94979 57.8181 5.30354 59.3506 6.32 61.3816C7.69185 64.1231 10.287 66.4537 13.2478 67.6036L14.6833 68.1611L15.0988 69.3595C15.6484 70.9439 16.2276 71.8493 17.3597 72.8927C22.1177 77.2784 29.8171 74.4295 30.7562 67.9361C30.8579 67.2337 30.9428 60.4347 30.945 52.8277L30.9491 38.9964L29.7534 39.5658C27.1384 40.8114 23.9544 41.166 22.646 40.3574C21.0845 39.3923 20.609 37.1349 21.6457 35.6092C22.2955 34.6529 22.9515 34.3116 24.5044 34.1215C27.8578 33.7113 30.2424 31.0875 30.7388 27.2619C30.989 25.3339 31.0033 8.77857 30.7562 7.07035C30.1002 2.53577 26.0986 -0.52507 21.6105 0.075026ZM44.4884 0.0795263C41.0882 0.532719 38.2063 3.49576 37.6893 7.07035C37.4393 8.79862 37.455 41.6906 37.7067 43.63C38.2033 47.4569 40.5924 50.0844 43.9413 50.487C46.1647 50.7544 47.3172 51.9098 47.3172 53.8713C47.3172 55.1452 46.8086 56.1017 45.7995 56.7255C44.5345 57.5073 41.6355 57.1431 38.6728 55.8302L37.4964 55.3087L37.5005 60.9839C37.5027 64.1051 37.5876 67.2337 37.6893 67.9361C38.6284 74.4295 46.3278 77.2784 51.0858 72.8927C52.2179 71.8493 52.7971 70.9439 53.3467 69.3595L53.7622 68.1611L55.2071 67.5999C58.182 66.4447 60.742 64.146 62.12 61.3927C63.1413 59.3518 63.4957 57.8212 63.5021 55.4218L63.5074 53.392L64.8041 51.9912C67.1556 49.4515 68.4182 46.1171 68.4174 42.4496C68.4168 39.8449 67.8034 37.2914 66.7493 35.5047L66.3384 34.8086L67.0697 32.9809C68.0469 30.5384 68.4186 28.6309 68.4211 26.0455C68.4246 22.3326 67.4889 19.2161 65.4519 16.1547C63.0139 12.4905 58.76 9.50961 54.7384 8.64722L53.7241 8.42973L53.6887 7.43352C53.5302 2.95295 49.157 -0.542667 44.4884 0.0795263ZM19.3466 15.0152C18.9855 15.2464 18.4142 15.884 18.0772 16.4317C17.4702 17.4181 16.6868 17.8569 15.5258 17.8602C14.9227 17.8621 13.8246 18.6336 13.3636 19.3792C12.7948 20.2997 12.7948 21.9705 13.3636 22.891C13.5944 23.2642 14.1069 23.7697 14.5024 24.0142C15.1273 24.4003 15.4413 24.4472 16.8969 24.3706C18.245 24.2999 18.8613 24.1495 20.0529 23.6001C24.2754 21.6539 25.8595 16.8462 22.8841 15.0073C21.9608 14.4368 20.2435 14.4405 19.3466 15.0152ZM47.1707 19.9265C46.1097 20.6062 45.6804 21.4956 45.6804 23.0147C45.6804 26.6855 47.9486 30.3025 51.2399 31.8797C54.534 33.4584 57.1381 32.2797 57.1381 29.2101C57.1381 27.648 56.0591 26.3442 54.4294 25.9375C53.3051 25.657 52.2277 23.7392 52.2277 22.0187C52.2277 21.4712 51.4244 20.3594 50.7099 19.9177C49.786 19.3469 48.0694 19.3509 47.1707 19.9265ZM14.4345 47.7523C12.4128 49.0474 12.4145 52.1885 14.4378 53.4359C14.7979 53.6577 15.3448 53.9024 15.6529 53.9794C16.7772 54.2599 17.8546 56.1776 17.8546 57.8981C17.8546 58.4456 18.6579 59.5574 19.3724 59.9991C19.8317 60.2829 20.3995 60.4186 21.1282 60.4186C24.0655 60.4186 25.1794 57.794 23.8822 53.9296C22.9201 51.0642 21.3772 49.2756 18.7811 48.016C17.0405 47.1716 15.4884 47.0775 14.4345 47.7523Z" fill="black"/>
</svg>
