<svg width="173" height="150" viewBox="0 0 173 150" fill="none" xmlns="http://www.w3.org/2000/svg">
<path fill-rule="evenodd" clip-rule="evenodd" d="M32.2041 0.594635C28.6283 2.21896 27.7485 6.54676 30.3844 9.54901C31.7103 11.0591 33.0382 11.5671 35.1327 11.366C37.0409 11.1825 38.2634 10.4294 39.4426 8.71015C40.1053 7.74387 40.2121 7.22913 40.1067 5.51593C39.9536 3.02368 38.9924 1.50447 36.996 0.597677C35.2456 -0.196909 33.9494 -0.197922 32.2041 0.594635ZM135.956 0.597677C133.96 1.50447 132.999 3.02368 132.846 5.51593C132.74 7.22913 132.847 7.74387 133.51 8.71015C134.689 10.4294 135.911 11.1825 137.82 11.366C139.914 11.5671 141.242 11.0591 142.568 9.54901C145.204 6.54676 144.324 2.21896 140.748 0.594635C139.003 -0.197922 137.707 -0.196909 135.956 0.597677ZM66.1975 6.21791C61.742 7.45051 58.2916 11.3467 57.8478 15.6465L57.6673 17.3958L54.4123 17.4229C50.4167 17.456 47.3448 18.1556 43.7585 19.8496C36.7742 23.1482 31.617 29.3065 29.65 36.6964C28.7605 40.0393 28.6905 45.4192 29.4929 48.7723C29.9829 50.8194 29.9914 51.1544 29.5601 51.3957C28.5736 51.948 25.6994 54.5764 24.2779 56.2271C19.5773 61.6851 17.3929 67.6419 17.3993 74.9848C17.4058 82.3369 19.6077 88.3184 24.3191 93.7804C25.7876 95.4832 28.5371 98.0014 29.5405 98.5628C29.9988 98.8194 29.9941 99.1049 29.4952 101.197C28.7672 104.252 28.7679 109.594 29.4962 112.669C30.6849 117.687 33.82 122.712 38.0755 126.419C41.1088 129.062 46.5725 131.528 50.9886 132.248C52.0954 132.429 52.209 132.568 52.7538 134.423C53.8549 138.172 57.2844 141.7 61.3138 143.229C68.5232 145.965 76.8577 142.211 79.7531 134.923C80.4294 133.221 80.5393 132.341 80.5498 128.554C80.5609 124.433 80.5028 124.035 79.6129 122.133C77.7672 118.189 74.3286 115.895 69.5047 115.39C65.8177 115.005 63.8337 113.214 63.5698 110.035C63.3379 107.237 64.9136 104.935 67.662 104.056C69.8643 103.352 75.0441 104.284 78.7554 106.051L80.7306 106.992V82.37C80.7306 68.8279 80.644 57.748 80.5379 57.748C80.4321 57.748 79.6622 58.2181 78.8271 58.7927C75.3425 61.1903 69.9562 63.0154 65.3033 63.375C62.884 63.5622 62.3615 63.4966 60.9964 62.8359C58.8374 61.7905 57.9698 60.4532 57.8147 57.9315C57.7092 56.2183 57.816 55.7036 58.4788 54.7373C59.8392 52.7544 60.6997 52.3478 64.6287 51.832C67.5028 51.4548 68.8091 51.0929 70.8643 50.1043C75.6008 47.8263 79.0343 43.4958 80.2459 38.2714C80.668 36.45 80.7461 34.0338 80.6633 25.3437L80.5616 14.6559L79.5865 12.5445C77.2589 7.50492 71.4565 4.76325 66.1975 6.21791ZM101.261 6.06649C99.27 6.5356 96.895 7.88819 95.5773 9.30364C92.426 12.6885 92.2208 13.7186 92.2269 26.1241C92.2306 33.8885 92.3496 36.7856 92.7308 38.4022C93.9364 43.5168 97.402 47.8507 102.088 50.1043C104.143 51.0929 105.45 51.4548 108.324 51.832C110.741 52.1494 112.242 52.5198 112.801 52.9372C114.369 54.1083 114.986 55.2774 115.112 57.3211C115.268 59.8465 114.326 61.5769 112.162 62.7386C110.77 63.4862 110.391 63.5372 107.679 63.3429C102.851 62.9968 97.7369 61.2646 94.0199 58.7163C93.2428 58.1836 92.5202 57.748 92.4145 57.748C92.3083 57.748 92.2218 74.2937 92.2218 94.5166C92.2218 134.001 92.186 133.114 93.9249 136.522C96.3979 141.37 102.719 144.768 108.031 144.104C113.694 143.397 118.743 139.38 120.199 134.423C120.743 132.569 120.857 132.429 121.964 132.248C127.436 131.356 132.282 128.892 136.192 125.015C139.485 121.749 141.431 118.705 142.744 114.764C143.59 112.227 144.268 107.769 143.808 107.769C143.686 107.769 142.485 108.083 141.14 108.467C138.606 109.19 132.489 109.713 130.986 109.336C129.837 109.048 128.146 107.589 127.489 106.318C126.712 104.815 126.804 102.306 127.687 100.876C128.882 98.9431 130.317 98.2837 134.052 97.9511C140.517 97.3759 144.311 95.6082 148.843 91.0597C153.662 86.2229 155.537 81.689 155.56 74.8159C155.584 67.8231 153.246 61.5367 148.633 56.1892C147.165 54.4865 144.415 51.9682 143.412 51.4069C142.954 51.1503 142.958 50.8647 143.457 48.7723C144.183 45.7271 144.185 40.3726 143.461 37.3368C142.229 32.1671 138.856 26.7054 134.861 23.4101C130.157 19.5298 124.7 17.5107 118.708 17.4327L115.284 17.3881L115.104 15.6427C114.793 12.6266 113.008 9.73862 110.321 7.90205C107.628 6.06176 104.215 5.37026 101.261 6.06649ZM10.3248 29.0371C8.5815 29.3366 7.37087 30.2863 6.46002 32.0685C5.49915 33.9486 5.49915 35.2444 6.46002 37.1246C8.24792 40.6237 12.3489 41.3949 15.3157 38.7902C16.7207 37.5565 17.3273 35.8727 17.0985 33.8418C16.7312 30.5844 13.7262 28.4528 10.3248 29.0371ZM160.197 29.0517C156.954 29.729 155.001 33.2946 156.081 36.5673C156.577 38.0699 158.391 39.6993 160.066 40.1458C161.572 40.5473 163.594 40.1677 164.861 39.2464C165.97 38.4393 167.253 35.9461 167.253 34.5965C167.253 33.2365 165.967 30.7517 164.839 29.9304C163.728 29.122 161.7 28.738 160.197 29.0517ZM2.98223 70.0176C-1.04004 72.1445 -0.91938 78.0544 3.18705 80.0596C5.98989 81.428 9.23786 80.4047 10.6668 77.7022C11.6544 75.8349 11.6544 74.1348 10.6668 72.2675C9.75463 70.5425 7.61726 69.2392 5.69957 69.2392C5.01449 69.2392 3.79169 69.5894 2.98223 70.0176ZM164.624 69.9554C160.591 71.9515 160.539 77.8387 164.535 79.9521C167.095 81.3057 169.593 80.821 171.551 78.5911C173.996 75.8061 173.12 71.5483 169.765 69.9101C167.998 69.0469 166.432 69.0608 164.624 69.9554ZM10.1348 109.794C9.50689 109.944 8.59435 110.357 8.10698 110.712C6.98422 111.529 5.69957 114.016 5.69957 115.373C5.69957 116.884 7.04269 119.305 8.36892 120.187C9.22501 120.755 10.0081 120.95 11.4452 120.95C15.292 120.95 17.7715 117.898 17.0495 114.05C16.5044 111.144 13.1432 109.075 10.1348 109.794ZM159.695 109.954C156.986 110.919 155.53 113.258 155.854 116.128C156.18 119.019 158.431 120.95 161.473 120.948C163.697 120.947 165.229 120.161 166.241 118.502C169.082 113.845 164.729 108.161 159.695 109.954ZM31.8627 139.144C27.561 141.849 27.9669 147.769 32.5752 149.529C34.4141 150.231 36.0665 150.025 37.802 148.877C41.0375 146.735 40.999 141.846 37.7273 139.423C36.3822 138.426 33.2417 138.277 31.8627 139.144ZM135.973 139C134.753 139.532 133.202 141.279 132.907 142.456C132.536 143.932 132.973 146.499 133.79 147.646C134.671 148.884 136.838 150.001 138.356 150.001C139.77 150.001 141.987 148.926 142.859 147.817C145.08 144.994 144.107 140.695 140.867 139.019C139.688 138.409 137.35 138.4 135.973 139Z" fill="black"/>
</svg>
