<svg width="75" height="66" viewBox="0 0 75 66" fill="none" xmlns="http://www.w3.org/2000/svg">
<path fill-rule="evenodd" clip-rule="evenodd" d="M13.9776 0.258277C12.4278 0.962281 12.0465 2.83801 13.189 4.13923C13.7636 4.79373 14.3392 5.01389 15.2469 4.92673C16.074 4.84719 16.6038 4.52083 17.1149 3.77566C17.4022 3.35686 17.4484 3.13377 17.4027 2.39124C17.3364 1.31106 16.9198 0.652613 16.0545 0.259595C15.2959 -0.0847897 14.7341 -0.085229 13.9776 0.258277ZM58.9454 0.259595C58.0801 0.652613 57.6635 1.31106 57.5972 2.39124C57.5515 3.13377 57.5978 3.35686 57.885 3.77566C58.3961 4.52083 58.9259 4.84719 59.753 4.92673C60.6608 5.01389 61.2363 4.79373 61.8109 4.13923C62.9534 2.83801 62.5721 0.962281 61.0223 0.258277C60.2658 -0.085229 59.7041 -0.0847897 58.9454 0.259595ZM28.7109 2.69548C26.7798 3.22971 25.2843 4.91838 25.092 6.78196L25.0138 7.54016L23.603 7.55188C21.8713 7.56624 20.5399 7.86946 18.9855 8.60364C15.9584 10.0333 13.7232 12.7024 12.8707 15.9053C12.4851 17.3542 12.4548 19.6859 12.8026 21.1392C13.015 22.0264 13.0186 22.1716 12.8317 22.2762C12.4041 22.5156 11.1584 23.6548 10.5423 24.3702C8.50499 26.7358 7.55826 29.3176 7.56105 32.5001C7.56383 35.6865 8.51818 38.279 10.5602 40.6464C11.1966 41.3844 12.3883 42.4758 12.8232 42.7191C13.0218 42.8303 13.0198 42.9541 12.8036 43.861C12.488 45.1847 12.4883 47.5001 12.804 48.8331C13.3192 51.0078 14.678 53.1856 16.5224 54.7924C17.8371 55.9377 20.2051 57.0068 22.1191 57.3188C22.5988 57.397 22.6481 57.4576 22.8842 58.2615C23.3614 59.8862 24.8478 61.4152 26.5942 62.0781C29.7189 63.2638 33.3312 61.6367 34.5861 58.4782C34.8792 57.7405 34.9268 57.3591 34.9314 55.7178C34.9362 53.9318 34.911 53.7591 34.5253 52.9346C33.7254 51.2252 32.235 50.2311 30.1442 50.0124C28.5463 49.8453 27.6864 49.0692 27.572 47.6912C27.4715 46.4786 28.1544 45.4809 29.3456 45.1001C30.3001 44.7948 32.5451 45.1987 34.1537 45.9648L35.0097 46.3724V35.7009C35.0097 29.8316 34.9722 25.0294 34.9262 25.0294C34.8804 25.0294 34.5467 25.2331 34.1847 25.4822C32.6745 26.5213 30.34 27.3123 28.3233 27.4682C27.2748 27.5493 27.0483 27.5209 26.4566 27.2345C25.5209 26.7815 25.1449 26.2018 25.0776 25.1089C25.0319 24.3664 25.0782 24.1433 25.3655 23.7245C25.9551 22.8651 26.328 22.6888 28.0309 22.4653C29.2766 22.3018 29.8428 22.1449 30.7336 21.7165C32.7864 20.7292 34.2745 18.8523 34.7997 16.5879C34.9826 15.7985 35.0165 14.7513 34.9806 10.9849L34.9365 6.35261L34.5139 5.43752C33.505 3.2533 30.9902 2.06502 28.7109 2.69548ZM43.9081 2.62986C43.045 2.83318 42.0156 3.41941 41.4445 4.03289C40.0787 5.49993 39.9898 5.94641 39.9924 11.3231C39.994 14.6883 40.0456 15.944 40.2108 16.6446C40.7333 18.8614 42.2354 20.7397 44.2664 21.7165C45.1571 22.1449 45.7233 22.3018 46.969 22.4653C48.0168 22.6029 48.6671 22.7634 48.9093 22.9443C49.5892 23.4519 49.8564 23.9586 49.9111 24.8444C49.9787 25.9389 49.5704 26.6889 48.6328 27.1924C48.0294 27.5164 47.8649 27.5385 46.6895 27.4543C44.5971 27.3043 42.3805 26.5535 40.7695 25.449C40.4327 25.2182 40.1195 25.0294 40.0737 25.0294C40.0277 25.0294 39.9902 32.2005 39.9902 40.9654C39.9902 58.0787 39.9747 57.6939 40.7283 59.1714C41.8002 61.2725 44.5399 62.745 46.842 62.4574C49.2965 62.1507 51.4847 60.4097 52.1159 58.2613C52.3519 57.4578 52.4011 57.397 52.8808 57.3188C55.2525 56.9321 57.3528 55.8643 59.0477 54.1837C60.4747 52.7685 61.3182 51.449 61.8874 49.7408C62.2538 48.6413 62.5476 46.7091 62.3484 46.7091C62.2954 46.7091 61.7751 46.8451 61.1919 47.0115C60.0937 47.3249 57.4425 47.5519 56.7911 47.3885C56.293 47.2635 55.5605 46.6311 55.2757 46.0802C54.9389 45.4291 54.9785 44.3413 55.3615 43.7215C55.8792 42.8839 56.501 42.5981 58.1198 42.454C60.9219 42.2047 62.5662 41.4386 64.5306 39.4672C66.6193 37.3708 67.432 35.4057 67.442 32.4268C67.4522 29.3961 66.439 26.6715 64.4398 24.3538C63.8033 23.6158 62.6116 22.5243 62.1767 22.281C61.9781 22.1699 61.9801 22.0461 62.1963 21.1392C62.5108 19.8194 62.5117 17.4986 62.1981 16.1829C61.664 13.9423 60.2021 11.5751 58.4705 10.1469C56.4319 8.46506 54.0668 7.58997 51.4699 7.55613L49.9858 7.53679L49.9078 6.78035C49.7729 5.47312 48.9993 4.22141 47.8344 3.42542C46.6674 2.62781 45.1882 2.3281 43.9081 2.62986ZM4.49483 12.5857C3.73927 12.7155 3.21456 13.1271 2.81979 13.8995C2.40333 14.7144 2.40333 15.276 2.81979 16.0909C3.59469 17.6074 5.37213 17.9417 6.65797 16.8128C7.26691 16.2781 7.52984 15.5483 7.43067 14.6681C7.27145 13.2563 5.96905 12.3324 4.49483 12.5857ZM69.4516 12.592C68.0459 12.8855 67.1995 14.4309 67.6675 15.8493C67.8826 16.5006 68.6691 17.2068 69.395 17.4003C70.0476 17.5743 70.9239 17.4098 71.4731 17.0105C71.9538 16.6607 72.5097 15.5801 72.5097 14.9952C72.5097 14.4057 71.9526 13.3288 71.4635 12.9728C70.9822 12.6224 70.1028 12.456 69.4516 12.592ZM1.31246 30.3472C-0.430849 31.269 -0.378554 33.8304 1.40123 34.6995C2.61603 35.2927 4.02374 34.8491 4.64308 33.6778C5.0711 32.8685 5.0711 32.1317 4.64308 31.3223C4.24772 30.5747 3.32135 30.0098 2.4902 30.0098C2.19327 30.0098 1.66329 30.1616 1.31246 30.3472ZM71.3705 30.3202C69.6225 31.1854 69.5998 33.737 71.332 34.653C72.4413 35.2396 73.5238 35.0296 74.3724 34.0631C75.4322 32.856 75.0528 31.0106 73.5987 30.3006C72.8326 29.9265 72.1538 29.9325 71.3705 30.3202ZM4.41251 47.5868C4.14034 47.6518 3.74483 47.8308 3.5336 47.9846C3.04698 48.3388 2.4902 49.4168 2.4902 50.005C2.4902 50.6596 3.07233 51.7092 3.64713 52.0912C4.01817 52.3377 4.35758 52.4219 4.98043 52.4219C6.64772 52.4219 7.72233 51.099 7.40943 49.4315C7.17316 48.1718 5.71637 47.2752 4.41251 47.5868ZM69.2339 47.6562C68.06 48.0743 67.4291 49.0884 67.5692 50.3321C67.7106 51.5852 68.6862 52.4222 70.0046 52.4214C70.9686 52.4208 71.6327 52.0801 72.0712 51.3613C73.3025 49.3427 71.4161 46.8793 69.2339 47.6562ZM13.8297 60.3075C11.9652 61.4801 12.1412 64.0459 14.1385 64.8087C14.9355 65.1131 15.6517 65.0237 16.4039 64.5258C17.8062 63.5978 17.7895 61.4786 16.3715 60.4283C15.7885 59.9964 14.4274 59.9318 13.8297 60.3075ZM58.9526 60.2452C58.4236 60.4757 57.7517 61.2328 57.6237 61.7429C57.463 62.3829 57.6524 63.4951 58.0066 63.9926C58.3885 64.5289 59.3275 65.0132 59.9853 65.0132C60.5983 65.0132 61.5593 64.5472 61.9372 64.0667C62.8998 62.843 62.4779 60.9797 61.0738 60.2536C60.5626 59.9892 59.5495 59.9852 58.9526 60.2452Z" fill="black"/>
</svg>
