<svg width="23" height="25" viewBox="0 0 23 25" fill="none" xmlns="http://www.w3.org/2000/svg">
<path fill-rule="evenodd" clip-rule="evenodd" d="M7.2035 0.0250087C6.00133 0.185757 4.96045 1.30322 4.91892 2.47784L4.90712 2.80991L4.56843 2.88254C3.16296 3.18392 1.69869 4.24655 0.881035 5.55846C0.282712 6.51845 0.00315852 7.52877 0.00725055 8.71689C0.010115 9.54908 0.137241 10.1904 0.458601 10.9936L0.70235 11.6029L0.564381 11.8367C0.331544 12.2313 0.084658 13.0529 0.0265511 13.6264C-0.116261 15.037 0.320836 16.3779 1.24611 17.367L1.64604 17.7945L1.64781 18.4726C1.64993 19.2727 1.76785 19.7835 2.10667 20.4605C2.56395 21.3744 3.42901 22.1512 4.41594 22.5345L4.89443 22.7204L5.03295 23.1198C5.21613 23.648 5.40921 23.9498 5.78656 24.2976C7.37257 25.7595 9.93902 24.8098 10.2521 22.6453C10.286 22.4112 10.3143 20.1449 10.315 17.6092L10.3164 12.9988L9.91781 13.1886C9.04614 13.6038 7.9848 13.722 7.54866 13.4525C7.02815 13.1308 6.86966 12.3783 7.21523 11.8697C7.43183 11.551 7.65048 11.4372 8.16813 11.3738C9.28593 11.2371 10.0808 10.3625 10.2463 9.08729C10.3297 8.44464 10.3344 2.92619 10.2521 2.35678C10.0334 0.845256 8.69954 -0.175023 7.2035 0.0250087ZM14.8295 0.0265088C13.6961 0.177573 12.7354 1.16525 12.5631 2.35678C12.4798 2.93287 12.485 13.8969 12.5689 14.5433C12.7344 15.819 13.5308 16.6948 14.6471 16.829C15.3882 16.9181 15.7724 17.3033 15.7724 17.9571C15.7724 18.3817 15.6029 18.7006 15.2665 18.9085C14.8448 19.1691 13.8785 19.0477 12.8909 18.6101L12.4988 18.4362L12.5002 20.328C12.5009 21.3684 12.5292 22.4112 12.5631 22.6453C12.8761 24.8098 15.4426 25.7595 17.0286 24.2976C17.406 23.9498 17.599 23.648 17.7822 23.1198L17.9207 22.7204L18.4024 22.5333C19.394 22.1482 20.2473 21.382 20.7067 20.4642C21.0471 19.7839 21.1652 19.2737 21.1674 18.4739L21.1691 17.7973L21.6014 17.3304C22.3852 16.4838 22.8061 15.3724 22.8058 14.1499C22.8056 13.2816 22.6011 12.4305 22.2498 11.8349L22.1128 11.6029L22.3566 10.9936C22.6823 10.1795 22.8062 9.54362 22.807 8.68184C22.8082 7.4442 22.4963 6.40537 21.8173 5.38489C21.0046 4.16348 19.5867 3.16987 18.2461 2.88241L17.908 2.80991L17.8962 2.47784C17.8434 0.984317 16.3857 -0.180889 14.8295 0.0265088ZM6.44886 5.00508C6.32849 5.08215 6.13807 5.29466 6.02574 5.47723C5.82339 5.80603 5.56225 5.95232 5.17528 5.95341C4.97423 5.95402 4.60819 6.2112 4.45454 6.45973C4.26494 6.76656 4.26494 7.32349 4.45454 7.63032C4.53147 7.75472 4.70231 7.92324 4.83414 8.00474C5.04243 8.13344 5.14712 8.14905 5.63229 8.12355C6.08167 8.09995 6.28709 8.04982 6.68429 7.8667C8.09181 7.21798 8.61982 5.61541 7.62805 5.00242C7.32026 4.81228 6.74785 4.8135 6.44886 5.00508ZM15.7236 6.64216C15.3699 6.86873 15.2268 7.16519 15.2268 7.67158C15.2268 8.89517 15.9829 10.1008 17.08 10.6266C18.178 11.1528 19.046 10.7599 19.046 9.73669C19.046 9.21598 18.6864 8.78141 18.1431 8.64583C17.7684 8.55232 17.4092 7.91308 17.4092 7.33958C17.4092 7.15708 17.1415 6.78648 16.9033 6.63923C16.5953 6.44895 16.0231 6.45032 15.7236 6.64216ZM4.8115 15.9174C4.13761 16.3491 4.13816 17.3962 4.81259 17.812C4.93262 17.8859 5.11492 17.9675 5.21763 17.9931C5.5924 18.0866 5.95154 18.7259 5.95154 19.2994C5.95154 19.4819 6.2193 19.8525 6.45745 19.9997C6.61056 20.0943 6.79982 20.1395 7.04275 20.1395C8.02184 20.1395 8.39312 19.2646 7.96073 17.9765C7.64005 17.0214 7.12575 16.4252 6.26035 16.0053C5.68017 15.7239 5.1628 15.6925 4.8115 15.9174Z" fill="black"/>
</svg>
