<svg width="92" height="75" viewBox="0 0 92 75" fill="none" xmlns="http://www.w3.org/2000/svg">
<path fill-rule="evenodd" clip-rule="evenodd" d="M13.7575 0.0617675C11.7947 0.381838 9.9884 0.94371 8.24275 1.77687C6.56435 2.57779 5.94033 3.02597 4.50733 4.4596C3.13372 5.83385 2.61279 6.54419 1.92301 7.98377C0.129644 11.7262 -0.0911596 13.6699 0.0259236 24.6758C0.111403 32.7231 0.150643 33.4572 0.58313 35.1335C1.15137 37.3358 2.41637 39.9876 3.54033 41.3326C6.14777 44.4522 10.1619 46.4229 14.4999 46.7131C15.4332 46.7755 16.4116 46.8701 16.674 46.9231L17.1513 47.0196V52.0678C17.1513 55.9996 17.2236 57.3594 17.4785 58.2178C18.59 61.9604 22.564 62.5577 26.1658 59.5235C26.7491 59.0321 30.1206 56.0397 33.6579 52.8738L40.0894 47.1176L46.5964 46.9842C50.1753 46.9108 53.7716 46.7407 54.5882 46.6062C58.2793 45.9985 61.1167 44.6317 63.4144 42.3545C64.7397 41.0409 65.2019 40.3934 65.9939 38.7393C67.7497 35.0724 68.0543 32.8122 68.0515 23.4676C68.0488 13.9126 67.7484 11.646 66.0017 8.00265C64.2181 4.28207 61.0399 1.77602 56.4972 0.508253L54.8003 0.0346181L34.5441 0.00492322C23.4031 -0.0114091 14.0492 0.0142555 13.7575 0.0617675ZM73.1179 21.464C73.2025 30.3711 73.0038 33.5836 72.1692 36.7956C70.3798 43.6829 65.866 48.5408 59.2546 50.695C56.3014 51.6573 54.1759 51.9099 47.9128 52.0431L42.0855 52.1672L38.0167 55.7934C35.7785 57.7879 34.0102 59.4841 34.0868 59.5624C34.1633 59.6408 34.9895 59.8657 35.9228 60.0619C37.1977 60.33 39.2891 60.4528 44.3352 60.5557L51.0509 60.6925L57.6856 66.6315C65.2782 73.4276 65.975 74.0075 67.2396 74.5813C68.3347 75.0782 70.3013 75.1444 71.2985 74.7176C72.1751 74.3426 73.0252 73.4323 73.5014 72.3584C73.8221 71.6351 73.8891 70.7044 73.9553 66.0475C74.0448 59.7579 73.705 60.4846 76.6474 60.288C78.764 60.1463 80.9907 59.532 83.0895 58.5105C85.5075 57.3335 88.0736 54.7378 89.2145 52.3142C90.2104 50.1991 90.6522 48.6399 90.9559 46.1686C91.2484 43.7873 91.2387 30.0296 90.9426 27.6037C90.4395 23.4801 89.068 20.4754 86.5284 17.9329C83.8011 15.2022 80.2074 13.7792 75.4808 13.5586L73.0416 13.4447L73.1179 21.464ZM16.081 17.4756C14.8505 18.5751 15.1674 20.794 16.635 21.3518C16.9722 21.4802 23.7607 21.5584 34.5048 21.5578C51.2125 21.5572 51.8546 21.5425 52.4983 21.1501C53.8168 20.3462 53.8898 18.3064 52.6353 17.3199C52.1002 16.8989 51.8164 16.8923 34.4128 16.8923H16.7338L16.081 17.4756ZM16.254 27.4904C15.0342 28.45 14.967 30.2315 16.1143 31.1968L16.7595 31.7398H28.8025H40.8454L41.3981 31.2276C42.4546 30.2485 42.4122 28.5455 41.308 27.6164L40.6627 27.0734H28.7234C17.174 27.0734 16.7669 27.087 16.254 27.4904Z" fill="black"/>
</svg>
