<svg width="20" height="20" viewBox="0 0 20 20" fill="none" xmlns="http://www.w3.org/2000/svg">
<path fill-rule="evenodd" clip-rule="evenodd" d="M4.2635 3.01016C3.94056 3.06282 3.64337 3.15527 3.35616 3.29234C3.08002 3.42412 2.97735 3.49786 2.74158 3.73373C2.51558 3.95983 2.42988 4.0767 2.31639 4.31355C2.02133 4.92928 1.985 5.24908 2.00427 7.05985C2.01833 8.38386 2.02478 8.50464 2.09594 8.78044C2.18943 9.14278 2.39756 9.57907 2.58248 9.80035C3.01148 10.3136 3.67191 10.6379 4.38564 10.6856C4.53919 10.6959 4.70017 10.7114 4.74334 10.7201L4.82186 10.736V11.5666C4.82186 12.2135 4.83376 12.4372 4.8757 12.5784C5.05857 13.1942 5.71241 13.2925 6.305 12.7933C6.40097 12.7124 6.95567 12.2201 7.53765 11.6992L8.59582 10.7521L9.6664 10.7302C10.2552 10.7181 10.8469 10.6901 10.9813 10.668C11.5886 10.568 12.0554 10.3431 12.4334 9.96849C12.6515 9.75237 12.7275 9.64583 12.8578 9.37369C13.1467 8.77039 13.1968 8.39852 13.1964 6.86107C13.1959 5.28901 13.1465 4.91609 12.8591 4.31666C12.5657 3.70452 12.0428 3.2922 11.2954 3.08362L11.0162 3.0057L7.68346 3.00081C5.85046 2.99812 4.31148 3.00235 4.2635 3.01016ZM14.0299 6.53143C14.0438 7.99688 14.0111 8.52544 13.8738 9.05389C13.5794 10.1871 12.8368 10.9863 11.749 11.3407C11.2631 11.4991 10.9134 11.5406 9.88298 11.5625L8.92424 11.583L8.2548 12.1796C7.88656 12.5077 7.59562 12.7868 7.60822 12.7997C7.62081 12.8126 7.75674 12.8496 7.91029 12.8818C8.12006 12.9259 8.46415 12.9462 9.29436 12.9631L10.3993 12.9856L11.4909 13.9627C12.7401 15.0809 12.8547 15.1763 13.0628 15.2707C13.2429 15.3524 13.5665 15.3633 13.7306 15.2931C13.8748 15.2314 14.0147 15.0816 14.093 14.905C14.1458 14.786 14.1568 14.6328 14.1677 13.8666C14.1824 12.8318 14.1265 12.9514 14.6106 12.919C14.9589 12.8957 15.3252 12.7947 15.6705 12.6266C16.0684 12.433 16.4905 12.0059 16.6783 11.6071C16.8421 11.2591 16.9148 11.0026 16.9648 10.596C17.0129 10.2042 17.0113 7.9407 16.9626 7.54157C16.8798 6.86313 16.6541 6.36877 16.2363 5.95045C15.7876 5.50118 15.1963 5.26706 14.4187 5.23076L14.0174 5.21202L14.0299 6.53143ZM4.64576 5.87522C4.44332 6.05612 4.49546 6.42119 4.73692 6.51297C4.7924 6.53408 5.9093 6.54696 7.677 6.54685C10.4259 6.54675 10.5315 6.54434 10.6374 6.47978C10.8544 6.34752 10.8664 6.01191 10.66 5.8496C10.5719 5.78033 10.5252 5.77925 7.66185 5.77925H4.75318L4.64576 5.87522ZM4.67424 7.52294C4.47355 7.68081 4.46248 7.97392 4.65124 8.13274L4.7574 8.22208H6.73881H8.72019L8.81113 8.1378C8.98496 7.97671 8.97798 7.69652 8.7963 7.54367L8.69015 7.45433H6.7258C4.82559 7.45433 4.75862 7.45656 4.67424 7.52294Z" fill="black"/>
</svg>
