<svg width="25" height="20" viewBox="0 0 25 20" fill="none" xmlns="http://www.w3.org/2000/svg">
<path fill-rule="evenodd" clip-rule="evenodd" d="M3.66868 0.0164713C3.14525 0.101823 2.66357 0.251656 2.19807 0.473831C1.75049 0.687409 1.58409 0.806925 1.20195 1.18923C0.835659 1.55569 0.696743 1.74512 0.512803 2.129C0.0345718 3.12698 -0.0243092 3.64532 0.00691297 6.58021C0.0297074 8.72617 0.0401713 8.92193 0.155501 9.36894C0.307031 9.95622 0.644366 10.6634 0.944088 11.022C1.6394 11.8539 2.70984 12.3794 3.86665 12.4568C4.11552 12.4735 4.37644 12.4987 4.44641 12.5128L4.57367 12.5386V13.8847C4.57367 14.9332 4.59296 15.2958 4.66095 15.5247C4.95733 16.5228 6.01708 16.6821 6.97755 15.8729C7.1331 15.7419 8.03215 14.9439 8.97544 14.0997L10.6905 12.5647L12.4257 12.5291C13.3801 12.5095 14.3391 12.4642 14.5569 12.4283C15.5412 12.2663 16.2978 11.9018 16.9105 11.2945C17.2639 10.9442 17.3872 10.7716 17.5984 10.3305C18.0666 9.35265 18.1478 8.74992 18.1471 6.25803C18.1463 3.71002 18.0662 3.1056 17.6005 2.13404C17.1248 1.14189 16.2773 0.473605 15.0659 0.135534L14.6134 0.0092315L9.21175 0.00131286C6.24083 -0.00304241 3.74645 0.00380146 3.66868 0.0164713ZM19.4981 5.72374C19.5207 8.09895 19.4677 8.95564 19.2451 9.81216C18.768 11.6488 17.5643 12.9442 15.8012 13.5187C15.0137 13.7753 14.4469 13.8426 12.7767 13.8782L11.2228 13.9113L10.1378 14.8782C9.54094 15.4101 9.06939 15.8624 9.0898 15.8833C9.11022 15.9042 9.33053 15.9642 9.57941 16.0165C9.9194 16.088 10.4771 16.1207 11.8227 16.1482L13.6136 16.1847L15.3828 17.7684C17.4075 19.5807 17.5933 19.7353 17.9306 19.8883C18.2226 20.0209 18.747 20.0385 19.0129 19.9247C19.2467 19.8247 19.4734 19.5819 19.6004 19.2956C19.6859 19.1027 19.7038 18.8545 19.7214 17.6127C19.7453 15.9354 19.6547 16.1292 20.4393 16.0768C21.0037 16.039 21.5975 15.8752 22.1572 15.6028C22.802 15.2889 23.4863 14.5967 23.7905 13.9505C24.0561 13.3864 24.1739 12.9706 24.2549 12.3116C24.3329 11.6766 24.3303 8.00789 24.2514 7.36099C24.1172 6.26137 23.7515 5.46011 23.0742 4.7821C22.347 4.05392 21.3886 3.67445 20.1282 3.61562L19.4778 3.58525L19.4981 5.72374ZM4.28826 4.66015C3.96014 4.95337 4.04465 5.54506 4.436 5.69382C4.52593 5.72804 6.3362 5.74891 9.20129 5.74874C13.6567 5.74858 13.8279 5.74467 13.9996 5.64003C14.3511 5.42566 14.3706 4.88171 14.0361 4.61864C13.8934 4.50636 13.8177 4.50461 9.17674 4.50461H4.46236L4.28826 4.66015ZM4.33441 7.33078C4.00913 7.58667 3.9912 8.06173 4.29714 8.31915L4.4692 8.46395H7.68068H10.8921L11.0395 8.32735C11.3212 8.06626 11.3099 7.61212 11.0155 7.36438L10.8434 7.21958H7.65958C4.57972 7.21958 4.47118 7.2232 4.33441 7.33078Z" fill="black"/>
</svg>
