<svg width="27" height="25" viewBox="0 0 27 25" fill="none" xmlns="http://www.w3.org/2000/svg">
<path fill-rule="evenodd" clip-rule="evenodd" d="M4.86605 0.0272735C2.64159 0.235799 0.632011 1.99272 0.119803 4.17685C-0.0414548 4.86448 -0.0396774 6.04755 0.123667 6.71454C0.598168 8.65194 2.24498 10.2801 4.20518 10.7496C5.58434 11.0799 7.29497 10.7945 8.45267 10.0409C10.0781 8.9828 10.9881 7.33141 10.9881 5.44031C10.9881 3.77417 10.3052 2.33611 8.98991 1.23289C7.8992 0.318018 6.40956 -0.117449 4.86605 0.0272735ZM11.1326 0.594473C11.1326 0.618925 11.2487 0.782215 11.3906 0.957426C12.2568 2.0268 12.9098 3.75889 12.9098 4.98681V5.44031L18.2606 5.44146C24.1651 5.44268 24.0875 5.43718 25.1438 5.92812C25.4483 6.06971 25.8715 6.31025 26.0839 6.46277L26.4703 6.73991L26.4918 5.65174C26.5228 4.09036 26.4228 3.3426 26.093 2.66644C25.5397 1.53242 24.4484 0.769302 23.1726 0.624274C22.4914 0.546793 11.1326 0.518673 11.1326 0.594473ZM4.5185 2.94931L4.25579 3.20911V4.68399V6.15888L5.12877 7.02217L6.00174 7.88547H6.41141C6.77426 7.88547 6.85107 7.85582 7.0838 7.62567C7.31552 7.39651 7.34651 7.31872 7.34651 6.96685C7.34651 6.57119 7.34125 6.56248 6.72836 5.94157L6.11022 5.31523V4.2622V3.20911L5.84751 2.94931C5.61609 2.72046 5.53689 2.68951 5.18301 2.68951C4.82912 2.68951 4.74992 2.72046 4.5185 2.94931ZM12.5681 7.71354C11.8995 9.84098 10.015 11.7262 7.85276 12.4305C6.41226 12.8997 4.56092 12.8993 3.13139 12.4293C2.46558 12.2105 1.64716 11.7901 1.12305 11.3979C0.844189 11.1891 0.600486 11.0183 0.581478 11.0183C0.512092 11.0183 0.550339 21.0854 0.622044 21.7022C0.821395 23.417 2.14924 24.7301 3.88329 24.9273C4.73594 25.0242 22.3199 25.0242 23.1726 24.9273C24.9066 24.7301 26.2345 23.417 26.4338 21.7022C26.5301 20.8744 26.5301 11.4013 26.4338 10.5735C26.2339 8.85421 24.9112 7.54612 23.1726 7.34845C22.8189 7.30826 20.3194 7.27509 17.6179 7.27479L12.7062 7.27418L12.5681 7.71354ZM17.1781 15.3734C17.0396 15.4569 16.8572 15.6372 16.7728 15.7742C16.6302 16.0055 16.6192 16.1619 16.6192 17.9717C16.6192 19.7815 16.6302 19.9379 16.7728 20.1692C16.8572 20.3062 17.0396 20.4866 17.1781 20.5701C17.412 20.7111 17.5702 20.722 19.4003 20.722C21.2304 20.722 21.3885 20.7111 21.6224 20.5701C21.761 20.4866 21.9433 20.3062 22.0278 20.1692C22.1704 19.9379 22.1814 19.7815 22.1814 17.9717C22.1814 16.1619 22.1704 16.0055 22.0278 15.7742C21.9433 15.6372 21.761 15.4569 21.6224 15.3734C21.3885 15.2323 21.2304 15.2215 19.4003 15.2215C17.5702 15.2215 17.412 15.2323 17.1781 15.3734Z" fill="black"/>
</svg>
