<svg width="20" height="20" viewBox="0 0 20 20" fill="none" xmlns="http://www.w3.org/2000/svg">
<path fill-rule="evenodd" clip-rule="evenodd" d="M4.91963 3.01636C3.58496 3.14148 2.37921 4.19563 2.07188 5.50611C1.97513 5.91869 1.97619 6.62853 2.0742 7.02872C2.3589 8.19117 3.34699 9.16807 4.52311 9.44975C5.3506 9.64794 6.37698 9.47671 7.0716 9.02452C8.04685 8.38968 8.59288 7.39885 8.59288 6.26419C8.59288 5.2645 8.1831 4.40167 7.39395 3.73973C6.73952 3.19081 5.84573 2.92953 4.91963 3.01636ZM8.67958 3.35668C8.67958 3.37135 8.74921 3.46933 8.83438 3.57446C9.35408 4.21608 9.74587 5.25533 9.74587 5.99209V6.26419L12.9564 6.26487C16.499 6.26561 16.4525 6.26231 17.0863 6.55687C17.269 6.64183 17.5229 6.78615 17.6504 6.87766L17.8822 7.04395L17.8951 6.39104C17.9137 5.45421 17.8537 5.00556 17.6558 4.59986C17.3238 3.91945 16.6691 3.46158 15.9035 3.37456C15.4948 3.32808 8.67958 3.3112 8.67958 3.35668ZM4.7111 4.76959L4.55348 4.92546V5.8104V6.69533L5.07726 7.2133L5.60104 7.73128H5.84685C6.06456 7.73128 6.11064 7.71349 6.25028 7.5754C6.38931 7.43791 6.4079 7.39123 6.4079 7.18011C6.4079 6.94272 6.40475 6.93749 6.03702 6.56494L5.66613 6.18914V5.55732V4.92546L5.50851 4.76959C5.36966 4.63228 5.32214 4.61371 5.1098 4.61371C4.89747 4.61371 4.84995 4.63228 4.7111 4.76959ZM9.54087 7.62812C9.13971 8.90459 8.00902 10.0357 6.71166 10.4583C5.84736 10.7398 4.73655 10.7396 3.87884 10.4576C3.47935 10.3263 2.98829 10.0741 2.67383 9.83871C2.50651 9.71346 2.36029 9.61099 2.34889 9.61099C2.30725 9.61099 2.3302 15.6512 2.37323 16.0213C2.49284 17.0502 3.28955 17.8381 4.32997 17.9564C4.84156 18.0145 15.392 18.0145 15.9035 17.9564C16.944 17.8381 17.7407 17.0502 17.8603 16.0213C17.9181 15.5247 17.9181 9.84078 17.8603 9.34412C17.7404 8.31252 16.9467 7.52767 15.9035 7.40907C15.6914 7.38495 14.1916 7.36506 12.5708 7.36487L9.62371 7.36451L9.54087 7.62812ZM12.3069 12.224C12.2238 12.2741 12.1143 12.3823 12.0637 12.4645C11.9781 12.6033 11.9715 12.6972 11.9715 13.783C11.9715 14.8689 11.9781 14.9628 12.0637 15.1015C12.1143 15.1837 12.2238 15.2919 12.3069 15.3421C12.4472 15.4267 12.5421 15.4332 13.6402 15.4332C14.7382 15.4332 14.8331 15.4267 14.9735 15.3421C15.0566 15.2919 15.166 15.1837 15.2167 15.1015C15.3022 14.9628 15.3088 14.8689 15.3088 13.783C15.3088 12.6972 15.3022 12.6033 15.2167 12.4645C15.166 12.3823 15.0566 12.2741 14.9735 12.224C14.8331 12.1394 14.7382 12.1329 13.6402 12.1329C12.5421 12.1329 12.4472 12.1394 12.3069 12.224Z" fill="black"/>
</svg>
