<svg width="43" height="40" viewBox="0 0 43 40" fill="none" xmlns="http://www.w3.org/2000/svg">
<path fill-rule="evenodd" clip-rule="evenodd" d="M7.78569 0.0436376C4.22655 0.377279 1.01122 3.18835 0.191685 6.68296C-0.0663276 7.78316 -0.0634838 9.67608 0.197867 10.7433C0.957069 13.8431 3.59196 16.4482 6.72829 17.1993C8.93494 17.7279 11.6719 17.2712 13.5243 16.0654C16.1249 14.3725 17.581 11.7303 17.581 8.7045C17.581 6.03867 16.4883 3.73778 14.3839 1.97262C12.6387 0.508828 10.2553 -0.187919 7.78569 0.0436376ZM17.8122 0.951157C17.8122 0.99028 17.9979 1.25154 18.225 1.53188C19.6109 3.24288 20.6557 6.01422 20.6557 7.9789V8.7045L29.2169 8.70633C38.6641 8.70829 38.54 8.69948 40.23 9.48499C40.7173 9.71153 41.3943 10.0964 41.7343 10.3404L42.3525 10.7839L42.387 9.04278C42.4364 6.54457 42.2766 5.34816 41.7488 4.2663C40.8635 2.45187 39.1175 1.23088 37.0761 0.998838C35.9862 0.874868 17.8122 0.829877 17.8122 0.951157ZM7.22961 4.7189L6.80927 5.13457V7.49439V9.85421L8.20603 11.2355L9.60278 12.6167H10.2583C10.8388 12.6167 10.9617 12.5693 11.3341 12.2011C11.7048 11.8344 11.7544 11.71 11.7544 11.147C11.7544 10.5139 11.746 10.5 10.7654 9.50651L9.77635 8.50436V6.81953V5.13457L9.35602 4.7189C8.98575 4.35273 8.85903 4.30322 8.29281 4.30322C7.72659 4.30322 7.59987 4.35273 7.22961 4.7189ZM20.109 12.3417C19.0392 15.7456 16.024 18.7619 12.5644 19.8888C10.2596 20.6395 7.29748 20.6388 5.01023 19.8869C3.94492 19.5368 2.63545 18.8642 1.79688 18.2366C1.3507 17.9026 0.960778 17.6293 0.930365 17.6293C0.819347 17.6293 0.880543 33.7366 0.99527 34.7235C1.31423 37.4672 3.43879 39.5682 6.21326 39.8836C7.5775 40.0388 35.7119 40.0388 37.0761 39.8836C39.8506 39.5682 41.9751 37.4672 42.2941 34.7235C42.4481 33.3991 42.4481 18.2421 42.2941 16.9176C41.9743 14.1667 39.8579 12.0738 37.0761 11.7575C36.5103 11.6932 32.511 11.6401 28.1887 11.6397L20.3299 11.6387L20.109 12.3417ZM27.485 24.5974C27.2634 24.731 26.9716 25.0195 26.8365 25.2388C26.6082 25.6088 26.5907 25.8591 26.5907 28.7548C26.5907 31.6504 26.6082 31.9007 26.8365 32.2708C26.9716 32.49 27.2634 32.7785 27.485 32.9121C27.8592 33.1378 28.1123 33.1552 31.0405 33.1552C33.9686 33.1552 34.2217 33.1378 34.5959 32.9121C34.8176 32.7785 35.1093 32.49 35.2444 32.2708C35.4727 31.9007 35.4902 31.6504 35.4902 28.7548C35.4902 25.8591 35.4727 25.6088 35.2444 25.2388C35.1093 25.0195 34.8176 24.731 34.5959 24.5974C34.2217 24.3717 33.9686 24.3543 31.0405 24.3543C28.1123 24.3543 27.8592 24.3717 27.485 24.5974Z" fill="black"/>
</svg>
