<svg width="11" height="10" viewBox="0 0 11 10" fill="none" xmlns="http://www.w3.org/2000/svg">
<path fill-rule="evenodd" clip-rule="evenodd" d="M1.94642 0.0109094C1.05664 0.0943197 0.252805 0.797088 0.0479213 1.67074C-0.0165819 1.94579 -0.0158709 2.41902 0.0494667 2.68582C0.239267 3.46078 0.897991 4.11204 1.68207 4.29983C2.23373 4.43196 2.91799 4.3178 3.38107 4.01635C4.03123 3.59312 4.39526 2.93256 4.39526 2.17612C4.39526 1.50967 4.12207 0.934444 3.59597 0.493155C3.15968 0.127207 2.56382 -0.0469796 1.94642 0.0109094ZM4.45305 0.237789C4.45305 0.24757 4.49947 0.312886 4.55625 0.38297C4.90272 0.81072 5.16392 1.50355 5.16392 1.99472V2.17612L7.30423 2.17658C9.66603 2.17707 9.635 2.17487 10.0575 2.37125C10.1793 2.42788 10.3486 2.5241 10.4336 2.58511L10.5881 2.69596L10.5967 2.2607C10.6091 1.63614 10.5691 1.33704 10.4372 1.06657C10.2159 0.612968 9.77937 0.307721 9.26903 0.249709C8.99655 0.218717 4.45305 0.207469 4.45305 0.237789ZM1.8074 1.17972L1.70232 1.28364V1.8736V2.46355L2.05151 2.80887L2.40069 3.15419H2.56456C2.7097 3.15419 2.74043 3.14233 2.83352 3.05027C2.92621 2.9586 2.9386 2.92749 2.9386 2.78674C2.9386 2.62848 2.9365 2.62499 2.69135 2.37663L2.44409 2.12609V1.70488V1.28364L2.339 1.17972C2.24644 1.08818 2.21476 1.0758 2.0732 1.0758C1.93165 1.0758 1.89997 1.08818 1.8074 1.17972ZM5.02724 3.08542C4.7598 3.93639 4.00601 4.69048 3.14111 4.97219C2.5649 5.15989 1.82437 5.1597 1.25256 4.97173C0.98623 4.88419 0.658862 4.71606 0.449219 4.55914C0.337676 4.47564 0.240194 4.40733 0.232591 4.40733C0.204837 4.40733 0.220136 8.43416 0.248818 8.68088C0.328558 9.3668 0.859697 9.89205 1.55331 9.97091C1.89437 10.0097 8.92797 10.0097 9.26903 9.97091C9.96265 9.89205 10.4938 9.3668 10.5735 8.68088C10.612 8.34977 10.612 4.56052 10.5735 4.22941C10.4936 3.54168 9.96447 3.01845 9.26903 2.93938C9.12757 2.9233 8.12775 2.91004 7.04718 2.90991L5.08247 2.90967L5.02724 3.08542ZM6.87126 6.14935C6.81584 6.18275 6.7429 6.25489 6.70912 6.30969C6.65206 6.40221 6.64767 6.46477 6.64767 7.18869C6.64767 7.91261 6.65206 7.97517 6.70912 8.06769C6.7429 8.1225 6.81584 8.19463 6.87126 8.22803C6.96481 8.28446 7.02808 8.2888 7.76011 8.2888C8.49215 8.2888 8.55542 8.28446 8.64897 8.22803C8.70439 8.19463 8.77733 8.1225 8.81111 8.06769C8.86816 7.97517 8.87255 7.91261 8.87255 7.18869C8.87255 6.46477 8.86816 6.40221 8.81111 6.30969C8.77733 6.25489 8.70439 6.18275 8.64897 6.14935C8.55542 6.09293 8.49215 6.08858 7.76011 6.08858C7.02808 6.08858 6.96481 6.09293 6.87126 6.14935Z" fill="black"/>
</svg>
