<svg width="22" height="20" viewBox="0 0 22 20" fill="none" xmlns="http://www.w3.org/2000/svg">
<path fill-rule="evenodd" clip-rule="evenodd" d="M3.89284 0.0218188C2.11327 0.188639 0.505609 1.59418 0.0958425 3.34148C-0.0331638 3.89158 -0.0317419 4.83804 0.0989334 5.37163C0.478535 6.92156 1.79598 8.22409 3.36415 8.59967C4.46747 8.86393 5.83597 8.63561 6.76214 8.03269C8.06246 7.18624 8.79051 5.86513 8.79051 4.35225C8.79051 3.01933 8.24413 1.86889 7.19193 0.98631C6.31936 0.254414 5.12764 -0.0939593 3.89284 0.0218188ZM8.9061 0.475579C8.9061 0.49514 8.99895 0.625772 9.1125 0.765941C9.80544 1.62144 10.3278 3.00711 10.3278 3.98945V4.35225L14.6085 4.35317C19.3321 4.35414 19.27 4.34974 20.115 4.7425C20.3587 4.85577 20.6972 5.0482 20.8672 5.17021L21.1762 5.39193L21.1935 4.52139C21.2182 3.27228 21.1383 2.67408 20.8744 2.13315C20.4317 1.22594 19.5587 0.615441 18.5381 0.499419C17.9931 0.437434 8.9061 0.414939 8.9061 0.475579ZM3.6148 2.35945L3.40464 2.56729V3.7472V4.9271L4.10301 5.61774L4.80139 6.30837H5.12913C5.41941 6.30837 5.48085 6.28465 5.66704 6.10053C5.85242 5.91721 5.8772 5.85498 5.8772 5.57348C5.8772 5.25696 5.873 5.24999 5.38269 4.75325L4.88818 4.25218V3.40976V2.56729L4.67801 2.35945C4.49288 2.17637 4.42952 2.15161 4.14641 2.15161C3.8633 2.15161 3.79994 2.17637 3.6148 2.35945ZM10.0545 6.17083C9.51961 7.87278 8.01202 9.38095 6.28221 9.94438C5.12981 10.3198 3.64874 10.3194 2.50511 9.94346C1.97246 9.76839 1.31772 9.43212 0.898439 9.11828C0.675351 8.95128 0.480389 8.81466 0.465183 8.81466C0.409673 8.81466 0.440271 16.8683 0.497635 17.3618C0.657116 18.7336 1.71939 19.7841 3.10663 19.9418C3.78875 20.0194 17.8559 20.0194 18.5381 19.9418C19.9253 19.7841 20.9876 18.7336 21.1471 17.3618C21.2241 16.6995 21.2241 9.12103 21.1471 8.45882C20.9871 7.08336 19.9289 6.0369 18.5381 5.87876C18.2551 5.8466 16.2555 5.82007 14.0944 5.81983L10.1649 5.81934L10.0545 6.17083ZM13.7425 12.2987C13.6317 12.3655 13.4858 12.5098 13.4182 12.6194C13.3041 12.8044 13.2953 12.9295 13.2953 14.3774C13.2953 15.8252 13.3041 15.9503 13.4182 16.1354C13.4858 16.245 13.6317 16.3893 13.7425 16.4561C13.9296 16.5689 14.0562 16.5776 15.5202 16.5776C16.9843 16.5776 17.1108 16.5689 17.2979 16.4561C17.4088 16.3893 17.5547 16.245 17.6222 16.1354C17.7363 15.9503 17.7451 15.8252 17.7451 14.3774C17.7451 12.9295 17.7363 12.8044 17.6222 12.6194C17.5547 12.5098 17.4088 12.3655 17.2979 12.2987C17.1108 12.1859 16.9843 12.1772 15.5202 12.1772C14.0562 12.1772 13.9296 12.1859 13.7425 12.2987Z" fill="black"/>
</svg>
