<svg width="2" height="1" viewBox="0 0 2 1" fill="none" xmlns="http://www.w3.org/2000/svg">
<path fill-rule="evenodd" clip-rule="evenodd" d="M0.194642 0.00109094C0.105664 0.00943197 0.0252805 0.0797088 0.00479213 0.167074C-0.00165819 0.194579 -0.00158709 0.241902 0.00494667 0.268582C0.0239267 0.346078 0.0897991 0.411204 0.168207 0.429983C0.223373 0.443196 0.291799 0.43178 0.338107 0.401635C0.403123 0.359312 0.439526 0.293256 0.439526 0.217612C0.439526 0.150967 0.412207 0.0934444 0.359597 0.0493155C0.315968 0.0127207 0.256382 -0.00469796 0.194642 0.00109094ZM0.445305 0.0237789C0.445305 0.024757 0.449947 0.0312886 0.455625 0.038297C0.490272 0.081072 0.516391 0.150355 0.516391 0.199472V0.217612L0.730423 0.217658C0.966603 0.217707 0.9635 0.217487 1.00575 0.237125C1.01793 0.242788 1.03486 0.25241 1.04336 0.258511L1.05881 0.269596L1.05967 0.22607C1.06091 0.163614 1.05691 0.133704 1.04372 0.106657C1.02159 0.0612968 0.977937 0.0307721 0.926903 0.0249709C0.899655 0.0218717 0.445305 0.0207469 0.445305 0.0237789ZM0.18074 0.117972L0.170232 0.128364V0.18736V0.246355L0.205151 0.280887L0.240069 0.315419H0.256456C0.27097 0.315419 0.274043 0.314233 0.283352 0.305027C0.292621 0.29586 0.29386 0.292749 0.29386 0.278674C0.29386 0.262848 0.29365 0.262499 0.269135 0.237663L0.244409 0.212609V0.170488V0.128364L0.2339 0.117972C0.224644 0.108818 0.221476 0.10758 0.20732 0.10758C0.193165 0.10758 0.189997 0.108818 0.18074 0.117972ZM0.502724 0.308542C0.47598 0.393639 0.400601 0.469048 0.314111 0.497219C0.25649 0.515989 0.182437 0.51597 0.125256 0.497173C0.098623 0.488419 0.0658862 0.471606 0.0449219 0.455914C0.0337676 0.447564 0.0240194 0.440733 0.0232591 0.440733C0.0204837 0.440733 0.0220136 0.843416 0.0248818 0.868088C0.0328558 0.93668 0.0859697 0.989205 0.155331 0.997091C0.189437 1.00097 0.892797 1.00097 0.926903 0.997091C0.996265 0.989205 1.04938 0.93668 1.05735 0.868088C1.0612 0.834977 1.0612 0.456052 1.05735 0.422941C1.04936 0.354168 0.996447 0.301845 0.926903 0.293938C0.912757 0.29233 0.812775 0.291004 0.704718 0.290992L0.508247 0.290967L0.502724 0.308542ZM0.687126 0.614935C0.681584 0.618275 0.67429 0.625489 0.670912 0.630969C0.665206 0.640221 0.664767 0.646477 0.664767 0.718869C0.664767 0.791261 0.665206 0.797518 0.670912 0.806769C0.67429 0.81225 0.681584 0.819463 0.687126 0.822803C0.696481 0.828446 0.702808 0.82888 0.776011 0.82888C0.849215 0.82888 0.855542 0.828446 0.864897 0.822803C0.870439 0.819463 0.877733 0.81225 0.881111 0.806769C0.886816 0.797518 0.887255 0.791261 0.887255 0.718869C0.887255 0.646477 0.886816 0.640221 0.881111 0.630969C0.877733 0.625489 0.870439 0.618275 0.864897 0.614935C0.855542 0.609293 0.849215 0.608859 0.776011 0.608859C0.702808 0.608859 0.696481 0.609293 0.687126 0.614935Z" fill="black"/>
</svg>
