<svg width="6" height="5" viewBox="0 0 6 5" fill="none" xmlns="http://www.w3.org/2000/svg">
<path fill-rule="evenodd" clip-rule="evenodd" d="M0.973211 0.0054547C0.528318 0.0471599 0.126402 0.398544 0.0239606 0.835371C-0.00829095 0.972895 -0.00793547 1.20951 0.0247334 1.34291C0.119634 1.73039 0.448995 2.05602 0.841037 2.14992C1.11687 2.21598 1.45899 2.1589 1.69053 2.00817C2.01562 1.79656 2.19763 1.46628 2.19763 1.08806C2.19763 0.754833 2.06103 0.467222 1.79798 0.246577C1.57984 0.0636035 1.28191 -0.0234898 0.973211 0.0054547ZM2.22653 0.118895C2.22653 0.123785 2.24974 0.156443 2.27813 0.191485C2.45136 0.40536 2.58196 0.751777 2.58196 0.997362V1.08806L3.65212 1.08829C4.83302 1.08854 4.8175 1.08744 5.02875 1.18562C5.08967 1.21394 5.17429 1.26205 5.21679 1.29255L5.29406 1.34798L5.29837 1.13035C5.30455 0.818071 5.28457 0.668519 5.2186 0.533287C5.10793 0.306484 4.88968 0.15386 4.63452 0.124855C4.49828 0.109359 2.22653 0.103735 2.22653 0.118895ZM0.903701 0.589862L0.851159 0.641821V0.936799V1.23178L1.02575 1.40443L1.20035 1.57709H1.28228C1.35485 1.57709 1.37021 1.57116 1.41676 1.52513C1.4631 1.4793 1.4693 1.46374 1.4693 1.39337C1.4693 1.31424 1.46825 1.3125 1.34567 1.18831L1.22204 1.06305V0.852441V0.641821L1.1695 0.589862C1.12322 0.544092 1.10738 0.537902 1.0366 0.537902C0.965824 0.537902 0.949984 0.544092 0.903701 0.589862ZM2.51362 1.54271C2.3799 1.9682 2.00301 2.34524 1.57055 2.48609C1.28245 2.57994 0.912185 2.57985 0.626279 2.48587C0.493115 2.4421 0.329431 2.35803 0.22461 2.27957C0.168838 2.23782 0.120097 2.20366 0.116296 2.20366C0.102418 2.20366 0.110068 4.21708 0.124409 4.34044C0.164279 4.6834 0.429848 4.94603 0.776657 4.98546C0.947187 5.00485 4.46399 5.00485 4.63452 4.98546C4.98132 4.94603 5.24689 4.6834 5.28676 4.34044C5.30602 4.17489 5.30602 2.28026 5.28676 2.11471C5.24679 1.77084 4.98224 1.50922 4.63452 1.46969C4.56378 1.46165 4.06388 1.45502 3.52359 1.45496L2.54124 1.45484L2.51362 1.54271ZM3.43563 3.07467C3.40792 3.09138 3.37145 3.12744 3.35456 3.15484C3.32603 3.2011 3.32384 3.23239 3.32384 3.59435C3.32384 3.9563 3.32603 3.98759 3.35456 4.03385C3.37145 4.06125 3.40792 4.09731 3.43563 4.11402C3.48241 4.14223 3.51404 4.1444 3.88006 4.1444C4.24607 4.1444 4.27771 4.14223 4.32449 4.11402C4.35219 4.09731 4.38866 4.06125 4.40555 4.03385C4.43408 3.98759 4.43628 3.9563 4.43628 3.59435C4.43628 3.23239 4.43408 3.2011 4.40555 3.15484C4.38866 3.12744 4.35219 3.09138 4.32449 3.07467C4.27771 3.04646 4.24607 3.04429 3.88006 3.04429C3.51404 3.04429 3.48241 3.04646 3.43563 3.07467Z" fill="black"/>
</svg>
