<svg width="80" height="75" viewBox="0 0 80 75" fill="none" xmlns="http://www.w3.org/2000/svg">
<path fill-rule="evenodd" clip-rule="evenodd" d="M14.5982 0.0818205C7.92478 0.707398 1.89603 5.97816 0.359409 12.5306C-0.124364 14.5934 -0.119032 18.1426 0.371 20.1436C1.7945 25.9558 6.73493 30.8403 12.6156 32.2487C16.753 33.2397 21.8849 32.3835 25.358 30.1226C30.2342 26.9484 32.9644 21.9942 32.9644 16.3209C32.9644 11.3225 30.9155 7.00833 26.9697 3.69866C23.6976 0.954053 19.2287 -0.352347 14.5982 0.0818205ZM33.3979 1.78342C33.3979 1.85677 33.7461 2.34665 34.1719 2.87228C36.7704 6.0804 38.7294 11.2767 38.7294 14.9604V16.3209L54.7817 16.3244C72.4952 16.328 72.2625 16.3115 75.4313 17.7844C76.345 18.2091 77.6144 18.9308 78.2518 19.3883L79.4109 20.2197L79.4755 16.9552C79.5683 12.2711 79.2685 10.0278 78.279 7.99931C76.619 4.59726 73.3453 2.30791 69.5177 1.87282C67.4741 1.64038 33.3979 1.55602 33.3979 1.78342ZM13.5555 8.84793L12.7674 9.62732V14.052V18.4766L15.3863 21.0665L18.0052 23.6564H19.2342C20.3228 23.6564 20.5532 23.5675 21.2514 22.877C21.9466 22.1895 22.0395 21.9562 22.0395 20.9006C22.0395 19.7136 22.0238 19.6875 20.1851 17.8247L18.3307 15.9457V12.7866V9.62732L17.5425 8.84793C16.8483 8.16138 16.6107 8.06854 15.549 8.06854C14.4874 8.06854 14.2498 8.16138 13.5555 8.84793ZM37.7043 23.1406C35.6985 29.5229 30.0451 35.1786 23.5583 37.2914C19.2368 38.6991 13.6828 38.6978 9.39418 37.288C7.39673 36.6315 4.94147 35.3704 3.36915 34.1936C2.53257 33.5673 1.80146 33.055 1.74443 33.055C1.53627 33.055 1.65102 63.2562 1.86613 65.1066C2.46418 70.251 6.44773 74.1904 11.6499 74.7818C14.2078 75.0727 66.9598 75.0727 69.5177 74.7818C74.7199 74.1904 78.7034 70.251 79.3015 65.1066C79.5903 62.6233 79.5903 34.2039 79.3015 31.7206C78.7018 26.5626 74.7335 22.6384 69.5177 22.0453C68.4568 21.9248 60.9582 21.8253 52.8538 21.8244L38.1186 21.8225L37.7043 23.1406ZM51.5344 46.1201C51.1188 46.3707 50.5717 46.9116 50.3184 47.3227C49.8905 48.0166 49.8575 48.4858 49.8575 53.9152C49.8575 59.3446 49.8905 59.8138 50.3184 60.5077C50.5717 60.9187 51.1188 61.4597 51.5344 61.7103C52.2361 62.1334 52.7106 62.166 58.2008 62.166C63.6911 62.166 64.1656 62.1334 64.8673 61.7103C65.2829 61.4597 65.83 60.9187 66.0833 60.5077C66.5112 59.8138 66.5442 59.3446 66.5442 53.9152C66.5442 48.4858 66.5112 48.0166 66.0833 47.3227C65.83 46.9116 65.2829 46.3707 64.8673 46.1201C64.1656 45.6969 63.6911 45.6644 58.2008 45.6644C52.7106 45.6644 52.2361 45.6969 51.5344 46.1201Z" fill="black"/>
</svg>
