<svg width="20" height="20" viewBox="0 0 20 20" fill="none" xmlns="http://www.w3.org/2000/svg">
<path fill-rule="evenodd" clip-rule="evenodd" d="M4.91963 2.01636C3.58496 2.14148 2.37921 3.19563 2.07188 4.50611C1.97513 4.91869 1.97619 5.62853 2.0742 6.02872C2.3589 7.19117 3.34699 8.16807 4.52311 8.44975C5.3506 8.64794 6.37698 8.47671 7.0716 8.02452C8.04685 7.38968 8.59288 6.39885 8.59288 5.26419C8.59288 4.2645 8.1831 3.40167 7.39395 2.73973C6.73952 2.19081 5.84573 1.92953 4.91963 2.01636ZM8.67958 2.35668C8.67958 2.37135 8.74921 2.46933 8.83438 2.57446C9.35408 3.21608 9.74587 4.25533 9.74587 4.99209V5.26419L12.9564 5.26487C16.499 5.26561 16.4525 5.26231 17.0863 5.55687C17.269 5.64183 17.5229 5.78615 17.6504 5.87766L17.8822 6.04395L17.8951 5.39104C17.9137 4.45421 17.8537 4.00556 17.6558 3.59986C17.3238 2.91945 16.6691 2.46158 15.9035 2.37456C15.4948 2.32808 8.67958 2.3112 8.67958 2.35668ZM4.7111 3.76959L4.55348 3.92546V4.8104V5.69533L5.07726 6.2133L5.60104 6.73128H5.84685C6.06456 6.73128 6.11064 6.71349 6.25028 6.5754C6.38931 6.43791 6.4079 6.39123 6.4079 6.18011C6.4079 5.94272 6.40475 5.93749 6.03702 5.56494L5.66613 5.18914V4.55732V3.92546L5.50851 3.76959C5.36966 3.63228 5.32214 3.61371 5.1098 3.61371C4.89747 3.61371 4.84995 3.63228 4.7111 3.76959ZM9.54087 6.62812C9.13971 7.90459 8.00902 9.03572 6.71166 9.45828C5.84736 9.73983 4.73655 9.73955 3.87884 9.4576C3.47935 9.32629 2.98829 9.07409 2.67383 8.83871C2.50651 8.71346 2.36029 8.61099 2.34889 8.61099C2.30725 8.61099 2.3302 14.6512 2.37323 15.0213C2.49284 16.0502 3.28955 16.8381 4.32997 16.9564C4.84156 17.0145 15.392 17.0145 15.9035 16.9564C16.944 16.8381 17.7407 16.0502 17.8603 15.0213C17.9181 14.5247 17.9181 8.84078 17.8603 8.34412C17.7404 7.31252 16.9467 6.52767 15.9035 6.40907C15.6914 6.38495 14.1916 6.36506 12.5708 6.36487L9.62371 6.36451L9.54087 6.62812ZM12.3069 11.224C12.2238 11.2741 12.1143 11.3823 12.0637 11.4645C11.9781 11.6033 11.9715 11.6972 11.9715 12.783C11.9715 13.8689 11.9781 13.9628 12.0637 14.1015C12.1143 14.1837 12.2238 14.2919 12.3069 14.3421C12.4472 14.4267 12.5421 14.4332 13.6402 14.4332C14.7382 14.4332 14.8331 14.4267 14.9735 14.3421C15.0566 14.2919 15.166 14.1837 15.2167 14.1015C15.3022 13.9628 15.3088 13.8689 15.3088 12.783C15.3088 11.6972 15.3022 11.6033 15.2167 11.4645C15.166 11.3823 15.0566 11.2741 14.9735 11.224C14.8331 11.1394 14.7382 11.1329 13.6402 11.1329C12.5421 11.1329 12.4472 11.1394 12.3069 11.224Z" fill="black"/>
</svg>
