<svg width="64" height="60" viewBox="0 0 64 60" fill="none" xmlns="http://www.w3.org/2000/svg">
<path fill-rule="evenodd" clip-rule="evenodd" d="M11.6785 0.0654564C6.33982 0.565918 1.51683 4.78253 0.287528 10.0244C-0.0994914 11.6747 -0.0952257 14.5141 0.2968 16.1149C1.4356 20.7647 5.38794 24.6723 10.0924 25.799C13.4024 26.5918 17.5079 25.9068 20.2864 24.0981C24.1874 21.5587 26.3715 17.5954 26.3715 13.0567C26.3715 9.058 24.7324 5.60667 21.5758 2.95893C18.9581 0.763242 15.3829 -0.281878 11.6785 0.0654564ZM26.7183 1.42674C26.7183 1.48542 26.9968 1.87732 27.3375 2.29782C29.4163 4.86432 30.9835 9.02132 30.9835 11.9683V13.0567L43.8254 13.0595C57.9962 13.0624 57.81 13.0492 60.345 14.2275C61.076 14.5673 62.0915 15.1446 62.6015 15.5106L63.5287 16.1758L63.5804 13.5642C63.6546 9.81686 63.4148 8.02223 62.6232 6.39945C61.2952 3.67781 58.6762 1.84632 55.6142 1.49826C53.9793 1.3123 26.7183 1.24482 26.7183 1.42674ZM10.8444 7.07834L10.2139 7.70186V11.2416V14.7813L12.309 16.8532L14.4042 18.9251H15.3874C16.2582 18.9251 16.4426 18.854 17.0011 18.3016C17.5573 17.7516 17.6316 17.5649 17.6316 16.7204C17.6316 15.7709 17.619 15.75 16.1481 14.2598L14.6645 12.7565V10.2293V7.70186L14.034 7.07834C13.4786 6.5291 13.2885 6.45483 12.4392 6.45483C11.5899 6.45483 11.3998 6.5291 10.8444 7.07834ZM30.1635 18.5125C28.5588 23.6183 24.0361 28.1429 18.8466 29.8331C15.3894 30.9593 10.9462 30.9582 7.51534 29.8304C5.91738 29.3052 3.95317 28.2964 2.69532 27.3548C2.02605 26.8538 1.44117 26.444 1.39555 26.444C1.22902 26.444 1.32081 50.605 1.49291 52.0853C1.97135 56.2008 5.15818 59.3523 9.31989 59.8255C11.3662 60.0582 53.5678 60.0582 55.6142 59.8255C59.7759 59.3523 62.9627 56.2008 63.4412 52.0853C63.6722 50.0986 63.6722 27.3631 63.4412 25.3765C62.9614 21.2501 59.7868 18.1107 55.6142 17.6363C54.7654 17.5398 48.7665 17.4602 42.2831 17.4595L30.4949 17.458L30.1635 18.5125ZM41.2275 36.8961C40.895 37.0965 40.4574 37.5293 40.2547 37.8581C39.9124 38.4132 39.886 38.7886 39.886 43.1321C39.886 47.4757 39.9124 47.851 40.2547 48.4062C40.4574 48.735 40.895 49.1678 41.2275 49.3682C41.7889 49.7067 42.1685 49.7328 46.5607 49.7328C50.9529 49.7328 51.3325 49.7067 51.8938 49.3682C52.2263 49.1678 52.664 48.735 52.8667 48.4062C53.209 47.851 53.2353 47.4757 53.2353 43.1321C53.2353 38.7886 53.209 38.4132 52.8667 37.8581C52.664 37.5293 52.2263 37.0965 51.8938 36.8961C51.3325 36.5576 50.9529 36.5315 46.5607 36.5315C42.1685 36.5315 41.7889 36.5576 41.2275 36.8961Z" fill="black"/>
</svg>
