<svg width="22" height="20" viewBox="0 0 22 20" fill="none" xmlns="http://www.w3.org/2000/svg">
<path fill-rule="evenodd" clip-rule="evenodd" d="M2.38281 0.0610527C1.5728 0.220092 0.715272 0.884758 0.344367 1.64101C0.0481057 2.24516 0.000468833 2.56361 0.000468833 3.93914V5.11719L0.460396 4.80511C0.98959 4.44602 1.54116 4.20671 2.12437 4.08305C2.73027 3.95465 18.2794 3.95502 18.8802 4.08349C19.5131 4.21884 19.9816 4.41907 20.5148 4.78216L21.0057 5.11637V3.93877C21.0057 3.29111 20.977 2.60975 20.9419 2.4247C20.7237 1.27448 19.7178 0.267792 18.5747 0.0558639C18.1555 -0.0218429 2.77991 -0.0169667 2.38281 0.0610527ZM2.38281 5.56242C1.28154 5.77866 0.269973 6.80923 0.0629219 7.92576C-0.020974 8.37818 -0.020974 17.115 0.0629219 17.5674C0.274162 18.7067 1.28535 19.7172 2.43176 19.9346C2.88706 20.021 18.1094 20.0222 18.5747 19.9359C19.7178 19.724 20.7237 18.7173 20.9419 17.5671C21.0283 17.1115 21.0283 8.38162 20.9419 7.92607C20.7237 6.77585 19.7178 5.76916 18.5747 5.55723C18.1555 5.47952 2.77991 5.4844 2.38281 5.56242ZM10.5687 9.12818C10.2948 9.21083 8.67938 10.3167 8.50071 10.5439C8.2719 10.8347 8.44463 11.3406 8.7839 11.3735C9.06979 11.4012 9.18582 11.3516 9.74027 10.9645C10.06 10.7412 10.3342 10.5585 10.3498 10.5585C10.3654 10.5585 10.378 11.742 10.378 13.1883C10.378 15.002 10.3997 15.8604 10.4479 15.9546C10.5723 16.1978 10.7675 16.3071 11.0803 16.3086C11.3202 16.3097 11.4151 16.2753 11.5805 16.1276L11.7846 15.9452L11.802 12.8144C11.8207 9.42263 11.8221 9.43807 11.4823 9.21545C11.292 9.09074 10.8367 9.04722 10.5687 9.12818Z" fill="black"/>
</svg>
