<svg width="79" height="75" viewBox="0 0 79 75" fill="none" xmlns="http://www.w3.org/2000/svg">
<path fill-rule="evenodd" clip-rule="evenodd" d="M8.93554 0.228948C5.89799 0.825346 2.68227 3.31784 1.29138 6.15378C0.180396 8.41934 0.00175812 9.61355 0.00175812 14.7718V19.1894L1.72648 18.0192C3.71096 16.6726 5.77937 15.7752 7.9664 15.3114C10.2385 14.8299 68.5477 14.8313 70.8006 15.3131C73.1743 15.8206 74.9311 16.5715 76.9306 17.9331L78.7714 19.1864V14.7704C78.7714 12.3416 78.6637 9.78656 78.532 9.09264C77.7141 4.7793 73.9418 1.00422 69.6552 0.20949C68.0833 -0.081911 10.4247 -0.0636252 8.93554 0.228948ZM8.93554 20.8591C4.80577 21.67 1.0124 25.5346 0.235957 29.7216C-0.0786524 31.4182 -0.0786524 64.1812 0.235957 65.8778C1.02811 70.1501 4.82007 73.9395 9.1191 74.7546C10.8265 75.0786 67.9103 75.0833 69.6552 74.7598C73.9418 73.965 77.7141 70.1899 78.532 65.8766C78.856 64.1683 78.856 31.4311 78.532 29.7228C77.7141 25.4094 73.9418 21.6343 69.6552 20.8396C68.0833 20.5482 10.4247 20.5665 8.93554 20.8591ZM39.6325 34.2307C38.6054 34.5406 32.5477 38.6877 31.8777 39.5397C31.0196 40.6302 31.6674 42.5273 32.9396 42.6506C34.0117 42.7547 34.4468 42.5685 36.526 41.1167C37.7249 40.2795 38.7533 39.5945 38.8117 39.5945C38.8701 39.5945 38.9177 44.0323 38.9177 49.4562C38.9177 56.2576 38.999 59.4766 39.1795 59.8299C39.6461 60.7418 40.3782 61.1516 41.5513 61.1572C42.4506 61.1614 42.8065 61.0325 43.4268 60.4785L44.1924 59.7945L44.2574 48.054C44.3277 35.3349 44.3329 35.3928 43.0587 34.558C42.3451 34.0903 40.6377 33.9271 39.6325 34.2307Z" fill="black"/>
</svg>
