<svg width="20" height="20" viewBox="0 0 20 20" fill="none" xmlns="http://www.w3.org/2000/svg">
<path fill-rule="evenodd" clip-rule="evenodd" d="M3.70147 3.0436C3.12307 3.15716 2.51075 3.63177 2.2459 4.17178C2.03435 4.60318 2.00033 4.83057 2.00033 5.81278V6.65397L2.32875 6.43113C2.70663 6.17472 3.10048 6.00384 3.51693 5.91554C3.94958 5.82385 15.0526 5.82412 15.4816 5.91585C15.9335 6.0125 16.2681 6.15548 16.6488 6.41475L16.9993 6.65339V5.81251C16.9993 5.35004 16.9788 4.86352 16.9537 4.73138C16.798 3.91005 16.0797 3.19122 15.2634 3.03989C14.9641 2.9844 3.98502 2.98788 3.70147 3.0436ZM3.70147 6.9719C2.91509 7.12631 2.19278 7.86219 2.04493 8.65946C1.98502 8.98252 1.98502 15.2211 2.04493 15.5442C2.19577 16.3577 2.91782 17.0792 3.73642 17.2345C4.06153 17.2961 14.9312 17.297 15.2634 17.2354C16.0797 17.0841 16.798 16.3653 16.9537 15.5439C17.0154 15.2187 17.0154 8.98497 16.9537 8.65968C16.798 7.83836 16.0797 7.11952 15.2634 6.96819C14.9641 6.9127 3.98502 6.91619 3.70147 6.9719ZM9.54665 9.51806C9.35108 9.57708 8.19759 10.3668 8.07001 10.529C7.90663 10.7366 8.02997 11.0979 8.27223 11.1213C8.47636 11.1412 8.55922 11.1057 8.95513 10.8293C9.18341 10.6699 9.37925 10.5394 9.39036 10.5394C9.40148 10.5394 9.41054 11.3845 9.41054 12.4172C9.41054 13.7123 9.42603 14.3253 9.4604 14.3926C9.54924 14.5662 9.68865 14.6442 9.91203 14.6453C10.0833 14.6461 10.151 14.6216 10.2691 14.5161L10.4149 14.3858L10.4273 12.1502C10.4407 9.72832 10.4417 9.73934 10.1991 9.58038C10.0632 9.49132 9.73806 9.46025 9.54665 9.51806Z" fill="black"/>
</svg>
