<svg width="20" height="20" viewBox="0 0 20 20" fill="none" xmlns="http://www.w3.org/2000/svg">
<path fill-rule="evenodd" clip-rule="evenodd" d="M3.70147 3.0436C3.12307 3.15716 2.51075 3.63177 2.2459 4.17178C2.03435 4.60318 2.00033 4.83057 2.00033 5.81278V6.65397L2.32875 6.43113C2.70663 6.17472 3.10048 6.00384 3.51693 5.91554C3.94958 5.82385 15.0526 5.82412 15.4816 5.91585C15.9335 6.0125 16.2681 6.15548 16.6488 6.41475L16.9993 6.65339V5.81251C16.9993 5.35004 16.9788 4.86352 16.9537 4.73138C16.798 3.91005 16.0797 3.19122 15.2634 3.03989C14.9641 2.9844 3.98502 2.98788 3.70147 3.0436ZM3.70147 6.9719C3.12307 7.08546 2.51075 7.56007 2.2459 8.10008C2.15988 8.27551 2.06944 8.52724 2.04493 8.65946C1.98502 8.98252 1.98502 15.2211 2.04493 15.5442C2.19577 16.3577 2.91782 17.0792 3.73642 17.2345C4.06153 17.2961 14.9312 17.297 15.2634 17.2354C16.0797 17.0841 16.798 16.3653 16.9537 15.5439C17.0154 15.2187 17.0154 8.98497 16.9537 8.65968C16.798 7.83836 16.0797 7.11952 15.2634 6.96819C14.9641 6.9127 3.98502 6.91619 3.70147 6.9719ZM9.09806 9.4744C8.38204 9.5927 7.78989 10.1223 7.72445 10.7029C7.70575 10.8689 7.7199 10.9091 7.83913 11.0283C7.9472 11.1364 8.0134 11.1644 8.16103 11.1644C8.36338 11.1644 8.4698 11.0773 8.75626 10.6775C8.96584 10.3849 9.10083 10.3026 9.40746 10.2805C9.90185 10.2447 10.2587 10.5389 10.2587 10.9822C10.2587 11.39 10.0576 11.6431 8.75072 12.8797C8.2337 13.369 7.78896 13.8169 7.76244 13.8751C7.69302 14.0274 7.70316 14.2981 7.78248 14.4114C7.82007 14.465 7.92551 14.5296 8.01684 14.555C8.24879 14.6194 10.9603 14.617 11.1462 14.5522C11.4266 14.4544 11.5028 14.0979 11.2888 13.884L11.1584 13.7535L10.1171 13.7515L9.07574 13.7496L9.90448 12.9368C11.1602 11.7055 11.2625 11.5534 11.2624 10.9189C11.2623 10.5691 11.2467 10.4875 11.142 10.2884C10.9096 9.84625 10.4752 9.5715 9.84743 9.46963C9.52669 9.41758 9.43866 9.41816 9.09806 9.4744Z" fill="black"/>
</svg>
