<svg width="79" height="75" viewBox="0 0 79 75" fill="none" xmlns="http://www.w3.org/2000/svg">
<path fill-rule="evenodd" clip-rule="evenodd" d="M8.93554 0.228948C5.89799 0.825346 2.68227 3.31784 1.29138 6.15378C0.180396 8.41934 0.00175812 9.61355 0.00175812 14.7718V19.1894L1.72648 18.0192C3.71096 16.6726 5.77937 15.7752 7.9664 15.3114C10.2385 14.8299 68.5477 14.8313 70.8006 15.3131C73.1743 15.8206 74.9311 16.5715 76.9306 17.9331L78.7714 19.1864V14.7704C78.7714 12.3416 78.6637 9.78656 78.532 9.09264C77.7141 4.7793 73.9418 1.00422 69.6552 0.20949C68.0833 -0.081911 10.4247 -0.0636252 8.93554 0.228948ZM8.93554 20.8591C5.89799 21.4555 2.68227 23.948 1.29138 26.7839C0.839623 27.7052 0.364661 29.0272 0.235957 29.7216C-0.0786524 31.4182 -0.0786524 64.1812 0.235957 65.8778C1.02811 70.1501 4.82007 73.9395 9.1191 74.7546C10.8265 75.0786 67.9103 75.0833 69.6552 74.7598C73.9418 73.965 77.7141 70.1899 78.532 65.8766C78.856 64.1683 78.856 31.4311 78.532 29.7228C77.7141 25.4094 73.9418 21.6343 69.6552 20.8396C68.0833 20.5482 10.4247 20.5665 8.93554 20.8591ZM37.2767 34.0014C33.5163 34.6227 30.4066 37.404 30.0629 40.453C29.9647 41.3246 30.039 41.5359 30.6652 42.162C31.2327 42.7296 31.5804 42.8766 32.3557 42.8766C33.4183 42.8766 33.9772 42.4192 35.4816 40.3196C36.5823 38.7831 37.2912 38.3509 38.9015 38.2346C41.4979 38.0468 43.3719 39.5917 43.3719 41.9196C43.3719 44.0616 42.3156 45.3909 35.4525 51.8849C32.7373 54.4543 30.4017 56.8066 30.2624 57.1123C29.8979 57.9124 29.9511 59.3338 30.3677 59.929C30.5651 60.2106 31.1188 60.5498 31.5984 60.6832C32.8166 61.0213 47.0567 61.0084 48.0327 60.6682C49.5054 60.1548 49.9053 58.2824 48.7819 57.159L48.0967 56.4737L42.6281 56.4634L37.1594 56.4531L41.5117 52.185C48.1063 45.7181 48.6436 44.9197 48.6429 41.5872C48.6425 39.7504 48.5606 39.3219 48.0109 38.2763C46.7902 35.9542 44.5089 34.5113 41.2121 33.9763C39.5277 33.703 39.0654 33.706 37.2767 34.0014Z" fill="black"/>
</svg>
