<svg width="22" height="20" viewBox="0 0 22 20" fill="none" xmlns="http://www.w3.org/2000/svg">
<path fill-rule="evenodd" clip-rule="evenodd" d="M2.38281 0.0610527C1.5728 0.220092 0.715272 0.884758 0.344367 1.64101C0.0481057 2.24516 0.000468833 2.56361 0.000468833 3.93914V5.11719L0.460396 4.80511C0.98959 4.44602 1.54116 4.20671 2.12437 4.08305C2.73027 3.95465 18.2794 3.95502 18.8802 4.08349C19.5131 4.21884 19.9816 4.41907 20.5148 4.78216L21.0057 5.11637V3.93877C21.0057 3.29111 20.977 2.60975 20.9419 2.4247C20.7237 1.27448 19.7178 0.267792 18.5747 0.0558639C18.1555 -0.0218429 2.77991 -0.0169667 2.38281 0.0610527ZM2.38281 5.56242C1.5728 5.72146 0.715272 6.38613 0.344367 7.14238C0.223899 7.38806 0.0972429 7.74059 0.0629219 7.92576C-0.020974 8.37818 -0.020974 17.115 0.0629219 17.5674C0.274162 18.7067 1.28535 19.7172 2.43176 19.9346C2.88706 20.021 18.1094 20.0222 18.5747 19.9359C19.7178 19.724 20.7237 18.7173 20.9419 17.5671C21.0283 17.1115 21.0283 8.38162 20.9419 7.92607C20.7237 6.77585 19.7178 5.76916 18.5747 5.55723C18.1555 5.47952 2.77991 5.4844 2.38281 5.56242ZM9.94044 9.06704C8.93769 9.23271 8.10842 9.97439 8.01677 10.7875C7.99058 11.0199 8.0104 11.0762 8.17738 11.2432C8.32873 11.3946 8.42144 11.4338 8.62818 11.4338C8.91156 11.4338 9.0606 11.3118 9.46176 10.7519C9.75527 10.3422 9.94432 10.2269 10.3737 10.1959C11.0661 10.1458 11.5658 10.5578 11.5658 11.1786C11.5658 11.7498 11.2841 12.1042 9.45401 13.836C8.72995 14.5211 8.10711 15.1484 8.06998 15.23C7.97276 15.4433 7.98696 15.8223 8.09805 15.9811C8.15068 16.0562 8.29835 16.1466 8.42625 16.1822C8.75108 16.2723 12.5485 16.2689 12.8087 16.1782C13.2014 16.0413 13.3081 15.542 13.0085 15.2424L12.8258 15.0597L11.3675 15.0569L9.90918 15.0542L11.0698 13.916C12.8283 12.1915 12.9716 11.9786 12.9714 11.0899C12.9713 10.6001 12.9495 10.4858 12.8029 10.207C12.4774 9.5878 11.869 9.20301 10.9899 9.06035C10.5407 8.98746 10.4174 8.98827 9.94044 9.06704Z" fill="black"/>
</svg>
