<svg width="22" height="20" viewBox="0 0 22 20" fill="none" xmlns="http://www.w3.org/2000/svg">
<path fill-rule="evenodd" clip-rule="evenodd" d="M2.38281 0.0610527C1.5728 0.220092 0.715272 0.884758 0.344367 1.64101C0.0481057 2.24516 0.000468833 2.56361 0.000468833 3.93914V5.11719L0.460396 4.80511C0.98959 4.44602 1.54116 4.20671 2.12437 4.08305C2.73027 3.95465 18.2794 3.95502 18.8802 4.08349C19.5131 4.21884 19.9816 4.41907 20.5148 4.78216L21.0057 5.11637V3.93877C21.0057 3.29111 20.977 2.60975 20.9419 2.4247C20.7237 1.27448 19.7178 0.267792 18.5747 0.0558639C18.1555 -0.0218429 2.77991 -0.0169667 2.38281 0.0610527ZM2.38281 5.56242C1.5728 5.72146 0.715272 6.38613 0.344367 7.14238C0.223899 7.38806 0.0972429 7.74059 0.0629219 7.92576C-0.020974 8.37818 -0.020974 17.115 0.0629219 17.5674C0.274162 18.7067 1.28535 19.7172 2.43176 19.9346C2.88706 20.021 18.1094 20.0222 18.5747 19.9359C19.7178 19.724 20.7237 18.7173 20.9419 17.5671C21.0283 17.1115 21.0283 8.38162 20.9419 7.92607C20.7237 6.77585 19.7178 5.76916 18.5747 5.55723C18.1555 5.47952 2.77991 5.4844 2.38281 5.56242ZM9.91975 9.06104C8.8803 9.23558 8.09117 9.90263 8.01834 10.6683C7.98377 11.032 8.14968 11.2838 8.46264 11.3425C8.80478 11.4067 9.05847 11.2561 9.31078 10.839C9.6138 10.338 9.8853 10.1858 10.4782 10.1844C10.8369 10.1836 10.963 10.2107 11.1346 10.3254C11.4288 10.5219 11.5796 10.8343 11.5449 11.1752C11.4893 11.7206 11.0244 12.0589 10.3304 12.0589C9.91468 12.0589 9.60836 12.1693 9.54165 12.343C9.4682 12.5345 9.50302 12.7955 9.62161 12.9419C9.72576 13.0706 9.81197 13.0932 10.3249 13.1267C11.2885 13.1895 11.6901 13.4933 11.6906 14.1596C11.6911 14.7669 11.2055 15.1847 10.4991 15.1847C9.86111 15.1847 9.49627 14.9888 9.16243 14.4669C8.90681 14.0673 8.63787 13.9426 8.28397 14.0593C8.00458 14.1516 7.87743 14.3355 7.87743 14.6475C7.87743 15.1409 8.3341 15.7507 8.932 16.0557C9.76959 16.483 11.1931 16.471 12.0648 16.0292C12.5204 15.7984 12.787 15.536 13.0008 15.1083C13.1596 14.7904 13.1911 14.6536 13.1906 14.2838C13.1895 13.4393 12.791 12.9163 11.9612 12.6699L11.5126 12.5367L11.8053 12.4376C12.2024 12.3032 12.5383 12.0347 12.7411 11.6897C12.8865 11.4423 12.9099 11.3332 12.9099 10.9024C12.9099 10.5333 12.8782 10.3383 12.7888 10.1583C12.5027 9.58148 11.8371 9.17738 10.9831 9.06179C10.4394 8.98827 10.3537 8.98821 9.91975 9.06104Z" fill="black"/>
</svg>
