<svg width="79" height="75" viewBox="0 0 79 75" fill="none" xmlns="http://www.w3.org/2000/svg">
<path fill-rule="evenodd" clip-rule="evenodd" d="M8.93554 0.228948C5.89799 0.825346 2.68227 3.31784 1.29138 6.15378C0.180396 8.41934 0.00175812 9.61355 0.00175812 14.7718V19.1894L1.72648 18.0192C3.71096 16.6726 5.77937 15.7752 7.9664 15.3114C10.2385 14.8299 68.5477 14.8313 70.8006 15.3131C73.1743 15.8206 74.9311 16.5715 76.9306 17.9331L78.7714 19.1864V14.7704C78.7714 12.3416 78.6637 9.78656 78.532 9.09264C77.7141 4.7793 73.9418 1.00422 69.6552 0.20949C68.0833 -0.081911 10.4247 -0.0636252 8.93554 0.228948ZM8.93554 20.8591C5.89799 21.4555 2.68227 23.948 1.29138 26.7839C0.839623 27.7052 0.364661 29.0272 0.235957 29.7216C-0.0786524 31.4182 -0.0786524 64.1812 0.235957 65.8778C1.02811 70.1501 4.82007 73.9395 9.1191 74.7546C10.8265 75.0786 67.9103 75.0833 69.6552 74.7598C73.9418 73.965 77.7141 70.1899 78.532 65.8766C78.856 64.1683 78.856 31.4311 78.532 29.7228C77.7141 25.4094 73.9418 21.6343 69.6552 20.8396C68.0833 20.5482 10.4247 20.5665 8.93554 20.8591ZM37.1991 33.9789C33.3011 34.6334 30.3419 37.1348 30.0688 40.0062C29.9391 41.3701 30.5613 42.3142 31.7349 42.5343C33.0179 42.7751 33.9693 42.2103 34.9154 40.6464C36.0517 38.7677 37.0699 38.1968 39.2932 38.1917C40.6382 38.1886 41.1113 38.2901 41.7548 38.7201C42.858 39.4571 43.4235 40.6286 43.2934 41.907C43.085 43.9524 41.3415 45.2209 38.739 45.2209C37.1801 45.2209 36.0313 45.6347 35.7812 46.2864C35.5057 47.0043 35.6363 47.9832 36.081 48.5321C36.4716 49.0147 36.7949 49.0996 38.7184 49.225C42.332 49.4606 43.838 50.5998 43.8398 53.0983C43.8415 55.3759 42.0206 56.9426 39.3718 56.9426C36.9792 56.9426 35.611 56.2079 34.3591 54.2511C33.4005 52.7526 32.392 52.2846 31.0649 52.7225C30.0172 53.0683 29.5404 53.758 29.5404 54.9281C29.5404 56.7782 31.2529 59.0651 33.495 60.2089C36.6359 61.8113 41.974 61.7663 45.2432 60.1095C46.9515 59.244 47.9513 58.2599 48.7529 56.6561C49.3486 55.464 49.4667 54.9508 49.4648 53.5644C49.4606 50.3974 47.9663 48.4359 44.8545 47.512L43.1722 47.0127L44.27 46.6409C45.7589 46.1368 47.0185 45.1302 47.7793 43.8364C48.3246 42.9087 48.4122 42.4994 48.4122 40.8839C48.4122 39.5 48.2931 38.7686 47.9581 38.0934C46.8851 35.9306 44.3891 34.4152 41.1865 33.9817C39.1477 33.706 38.8265 33.7058 37.1991 33.9789Z" fill="black"/>
</svg>
