<svg width="20" height="20" viewBox="0 0 20 20" fill="none" xmlns="http://www.w3.org/2000/svg">
<path fill-rule="evenodd" clip-rule="evenodd" d="M3.70147 3.0436C3.12307 3.15716 2.51075 3.63177 2.2459 4.17178C2.03435 4.60318 2.00033 4.83057 2.00033 5.81278V6.65397L2.32875 6.43113C2.70663 6.17472 3.10048 6.00384 3.51693 5.91554C3.94958 5.82385 15.0526 5.82412 15.4816 5.91585C15.9335 6.0125 16.2681 6.15548 16.6488 6.41475L16.9993 6.65339V5.81251C16.9993 5.35004 16.9788 4.86352 16.9537 4.73138C16.798 3.91005 16.0797 3.19122 15.2634 3.03989C14.9641 2.9844 3.98502 2.98788 3.70147 3.0436ZM3.70147 6.9719C3.12307 7.08546 2.51075 7.56007 2.2459 8.10008C2.15988 8.27551 2.06944 8.52724 2.04493 8.65946C1.98502 8.98252 1.98502 15.2211 2.04493 15.5442C2.19577 16.3577 2.91782 17.0792 3.73642 17.2345C4.06153 17.2961 14.9312 17.297 15.2634 17.2354C16.0797 17.0841 16.798 16.3653 16.9537 15.5439C17.0154 15.2187 17.0154 8.98497 16.9537 8.65968C16.798 7.83836 16.0797 7.11952 15.2634 6.96819C14.9641 6.9127 3.98502 6.91619 3.70147 6.9719ZM9.08329 9.47012C8.34106 9.59475 7.77757 10.0711 7.72557 10.6178C7.70088 10.8775 7.81936 11.0573 8.04282 11.0992C8.28714 11.145 8.46828 11.0375 8.64845 10.7397C8.86482 10.382 9.05869 10.2733 9.48205 10.2723C9.73815 10.2717 9.82824 10.291 9.95077 10.3729C10.1608 10.5133 10.2685 10.7363 10.2437 10.9797C10.2041 11.3692 9.87207 11.6108 9.37653 11.6108C9.07967 11.6108 8.86094 11.6896 8.81331 11.8137C8.76085 11.9504 8.78572 12.1368 8.8704 12.2413C8.94477 12.3332 9.00633 12.3493 9.3726 12.3732C10.0607 12.4181 10.3474 12.635 10.3478 13.1108C10.3481 13.5444 10.0014 13.8428 9.49701 13.8428C9.04141 13.8428 8.7809 13.7029 8.54252 13.3303C8.35999 13.0449 8.16795 12.9558 7.91524 13.0392C7.71575 13.105 7.62495 13.2364 7.62495 13.4592C7.62495 13.8115 7.95104 14.2469 8.37798 14.4647C8.97606 14.7698 9.99251 14.7613 10.615 14.4458C10.9403 14.281 11.1307 14.0936 11.2833 13.7882C11.3967 13.5612 11.4192 13.4635 11.4189 13.1995C11.4181 12.5965 11.1335 12.223 10.541 12.047L10.2207 11.952L10.4297 11.8812C10.7132 11.7852 10.9531 11.5935 11.0979 11.3471C11.2018 11.1705 11.2185 11.0926 11.2185 10.7849C11.2185 10.5214 11.1958 10.3822 11.132 10.2536C10.9277 9.84174 10.4524 9.55319 9.84257 9.47065C9.45433 9.41816 9.39318 9.41811 9.08329 9.47012Z" fill="black"/>
</svg>
