<svg width="21" height="20" viewBox="0 0 21 20" fill="none" xmlns="http://www.w3.org/2000/svg">
<path fill-rule="evenodd" clip-rule="evenodd" d="M2.37174 0.0610527C1.56549 0.220092 0.711949 0.884758 0.342767 1.64101C0.0478822 2.24516 0.000466655 2.56361 0.000466655 3.93914V5.11719L0.458257 4.80511C0.984994 4.44602 1.53401 4.20671 2.1145 4.08305C2.71759 3.95465 18.1945 3.95502 18.7925 4.08349C19.4225 4.21884 19.8888 4.41907 20.4195 4.78216L20.9081 5.11637V3.93877C20.9081 3.29111 20.8796 2.60975 20.8446 2.4247C20.6275 1.27448 19.6262 0.267792 18.4884 0.0558639C18.0712 -0.0218429 2.767 -0.0169667 2.37174 0.0610527ZM2.37174 5.56242C1.56549 5.72146 0.711949 6.38613 0.342767 7.14238C0.222859 7.38806 0.0967913 7.74059 0.0626296 7.92576C-0.0208765 8.37818 -0.0208765 17.115 0.0626296 17.5674C0.272888 18.7067 1.27938 19.7172 2.42047 19.9346C2.87365 20.021 18.0253 20.0222 18.4884 19.9359C19.6262 19.724 20.6275 18.7173 20.8446 17.5671C20.9306 17.1115 20.9306 8.38162 20.8446 7.92607C20.6275 6.77585 19.6262 5.76916 18.4884 5.55723C18.0712 5.47952 2.767 5.4844 2.37174 5.56242ZM10.8752 9.11674C10.5046 9.23683 10.25 9.46627 9.84138 10.0488C8.9253 11.3544 7.83605 13.13 7.68198 13.5687C7.54639 13.9548 7.56524 14.3835 7.72684 14.5899C7.97257 14.9037 8.14692 14.9346 9.67449 14.9346H11.0765V15.3693C11.0765 15.8771 11.1594 16.0976 11.3967 16.2209C11.6939 16.3753 12.0555 16.3362 12.2636 16.1272C12.4346 15.9554 12.4455 15.9143 12.4455 15.4396V14.9346H12.7286C13.0406 14.9346 13.3425 14.8073 13.4025 14.6505C13.4522 14.5201 13.4522 14.1613 13.4025 14.031C13.3425 13.8742 13.0406 13.7468 12.7286 13.7468H12.4455V11.7556C12.4455 9.7936 12.4434 9.76128 12.3055 9.55735C12.2285 9.44351 12.0622 9.29685 11.936 9.2314C11.6728 9.09499 11.1252 9.03578 10.8752 9.11674ZM10.4455 11.1681C9.7616 12.1839 8.89867 13.6119 8.89867 13.7276C8.89867 13.7918 9.13276 13.8093 9.98761 13.8093H11.0765V12.0589C11.0765 11.0962 11.0648 10.3085 11.0504 10.3085C11.0359 10.3085 10.7637 10.6953 10.4455 11.1681Z" fill="black"/>
</svg>
