<svg width="79" height="75" viewBox="0 0 79 75" fill="none" xmlns="http://www.w3.org/2000/svg">
<path fill-rule="evenodd" clip-rule="evenodd" d="M8.89404 0.228948C5.8706 0.825346 2.66981 3.31784 1.28538 6.15378C0.179558 8.41934 0.00174996 9.61355 0.00174996 14.7718V19.1894L1.71847 18.0192C3.69373 16.6726 5.75252 15.7752 7.92939 15.3114C10.191 14.8299 68.2293 14.8313 70.4718 15.3131C72.8344 15.8206 74.5831 16.5715 76.5733 17.9331L78.4055 19.1864V14.7704C78.4055 12.3416 78.2984 9.78656 78.1672 9.09264C77.3531 4.7793 73.5983 1.00422 69.3316 0.20949C67.7671 -0.081911 10.3762 -0.0636252 8.89404 0.228948ZM8.89404 20.8591C5.8706 21.4555 2.66981 23.948 1.28538 26.7839C0.835723 27.7052 0.362967 29.0272 0.234861 29.7216C-0.078287 31.4182 -0.078287 64.1812 0.234861 65.8778C1.02333 70.1501 4.79768 73.9395 9.07675 74.7546C10.7762 75.0786 67.5949 75.0833 69.3316 74.7598C73.5983 73.965 77.3531 70.1899 78.1672 65.8766C78.4897 64.1683 78.4897 31.4311 78.1672 29.7228C77.3531 25.4094 73.5983 21.6343 69.3316 20.8396C67.7671 20.5482 10.3762 20.5665 8.89404 20.8591ZM40.782 34.1878C39.3922 34.6381 38.4375 35.4985 36.9052 37.683C33.4699 42.5791 29.3852 49.2375 28.8074 50.8825C28.299 52.3303 28.3697 53.9381 28.9757 54.7122C29.8971 55.889 30.551 56.0048 36.2793 56.0048H41.5371V57.6349C41.5371 59.5392 41.8479 60.366 42.7376 60.8283C43.8523 61.4074 45.2083 61.2608 45.9886 60.4771C46.6298 59.8329 46.6706 59.6787 46.6706 57.8984V56.0048H47.7323C48.9021 56.0048 50.0345 55.5273 50.2592 54.9393C50.4459 54.4506 50.4459 53.1049 50.2592 52.6161C50.0345 52.0282 48.9021 51.5506 47.7323 51.5506H46.6706V44.0834C46.6706 36.726 46.6629 36.6048 46.1456 35.8401C45.8567 35.4132 45.2332 34.8632 44.76 34.6177C43.773 34.1062 41.7195 33.8842 40.782 34.1878ZM39.1705 41.8802C36.606 45.6898 33.37 51.0447 33.37 51.4786C33.37 51.7192 34.2478 51.7851 37.4535 51.7851H41.5371V45.2209C41.5371 41.6106 41.493 38.6568 41.4388 38.6568C41.3847 38.6568 40.364 40.1075 39.1705 41.8802Z" fill="black"/>
</svg>
