<svg width="20" height="20" viewBox="0 0 20 20" fill="none" xmlns="http://www.w3.org/2000/svg">
<path fill-rule="evenodd" clip-rule="evenodd" d="M3.70147 3.0438C3.12307 3.15789 2.51075 3.63472 2.2459 4.17725C2.03435 4.61066 2.00033 4.83911 2.00033 5.82591V6.67102L2.32875 6.44714C2.70663 6.18953 3.10048 6.01786 3.51693 5.92915C3.94958 5.83703 15.0526 5.8373 15.4816 5.92946C15.9335 6.02656 16.2681 6.17021 16.6488 6.43068L16.9993 6.67044V5.82564C16.9993 5.36101 16.9788 4.87221 16.9537 4.73946C16.798 3.9143 16.0797 3.19211 15.2634 3.04008C14.9641 2.98433 3.98502 2.98783 3.70147 3.0438ZM3.70147 6.99043C3.12307 7.10453 2.51075 7.58135 2.2459 8.12388C2.15988 8.30013 2.06944 8.55303 2.04493 8.68587C1.98502 9.01044 1.98502 15.2781 2.04493 15.6027C2.19577 16.42 2.91782 17.1449 3.73642 17.3009C4.06153 17.3629 14.9312 17.3638 15.2634 17.3019C16.0797 17.1498 16.798 16.4276 16.9537 15.6025C17.0154 15.2757 17.0154 9.0129 16.9537 8.68609C16.798 7.86093 16.0797 7.13874 15.2634 6.98671C14.9641 6.93096 3.98502 6.93446 3.70147 6.99043ZM9.80176 9.54027C9.53589 9.62642 9.35327 9.79102 9.06012 10.2089C8.40293 11.1456 7.62151 12.4193 7.51098 12.734C7.41371 13.011 7.42724 13.3186 7.54317 13.4667C7.71945 13.6918 7.84453 13.714 8.94039 13.714H9.94622V14.0258C9.94622 14.3901 10.0057 14.5483 10.1759 14.6367C10.3891 14.7475 10.6485 14.7195 10.7978 14.5695C10.9205 14.4463 10.9283 14.4168 10.9283 14.0762V13.714H11.1314C11.3552 13.714 11.5718 13.6226 11.6148 13.5101C11.6505 13.4166 11.6505 13.1592 11.6148 13.0657C11.5718 12.9532 11.3552 12.8619 11.1314 12.8619H10.9283V11.4334C10.9283 10.0258 10.9268 10.0027 10.8279 9.85636C10.7726 9.77469 10.6533 9.66948 10.5628 9.62252C10.374 9.52466 9.98113 9.48219 9.80176 9.54027ZM9.49348 11.0119C9.00289 11.7407 8.38383 12.7651 8.38383 12.8481C8.38383 12.8941 8.55176 12.9067 9.16502 12.9067H9.94622V11.651C9.94622 10.9603 9.93778 10.3952 9.92743 10.3952C9.91707 10.3952 9.72181 10.6727 9.49348 11.0119Z" fill="black"/>
</svg>
