<svg width="79" height="75" viewBox="0 0 79 75" fill="none" xmlns="http://www.w3.org/2000/svg">
<path fill-rule="evenodd" clip-rule="evenodd" d="M8.3865 0.402725C5.54547 1.14746 3.14643 2.99793 1.54566 5.67941C0.300961 7.76476 0 9.5278 0 14.7363V19.2098L1.31241 18.2365C2.03435 17.7011 3.37384 16.9184 4.28933 16.4974C7.7533 14.9041 6.11167 14.9756 39.2253 14.9756C72.4115 14.9756 70.6868 14.8989 74.2334 16.5309C75.1886 16.9705 76.5281 17.7529 77.2103 18.2701L78.4506 19.2103V14.7604C78.4506 12.3129 78.3345 9.75143 78.1926 9.06811C77.3319 4.92459 74.0767 1.45455 70.0641 0.402725C68.651 0.0323498 66.1721 0 39.2253 0C12.2784 0 9.79955 0.0323498 8.3865 0.402725ZM8.3865 21.0312C5.54547 21.776 3.14643 23.6264 1.54566 26.3079C0.00233545 28.8933 -0.0016347 28.9474 0.0135417 47.9571C0.0254494 63.3068 0.0672434 65.1784 0.427976 66.5659C1.47562 70.5945 4.93188 73.8627 9.05894 74.7268C10.7996 75.0911 67.651 75.0911 69.3916 74.7268C73.7258 73.8194 77.2887 70.2422 78.1926 65.8908C78.5512 64.1641 78.5512 31.4233 78.1926 29.6966C77.3319 25.5531 74.0767 22.0831 70.0641 21.0312C68.651 20.6609 66.1721 20.6285 39.2253 20.6285C12.2784 20.6285 9.79955 20.6609 8.3865 21.0312ZM32.9212 34.5975C32.2826 34.8319 31.5371 35.663 31.3039 36.4004C31.0456 37.2171 30.3529 45.2039 30.3529 47.3654C30.3529 48.6024 30.4332 48.8481 31.0354 49.4526C31.6216 50.0413 31.8962 50.1378 32.9817 50.1378C34.1461 50.1378 34.3583 50.0469 35.6773 48.9843C37.4573 47.5501 39.0378 47.104 40.7815 47.544C43.028 48.1111 44.3517 49.8113 44.3517 52.1304C44.3517 54.9898 42.34 56.9429 39.4079 56.9307C37.8487 56.9241 36.4959 56.3133 35.6021 55.2122C35.2192 54.7403 34.6161 53.9975 34.2621 53.5612C32.7372 51.6822 29.8726 52.6189 29.8911 54.9902C29.9041 56.6604 31.5841 58.8367 33.7914 60.043C37.1935 61.9022 42.0761 61.8415 45.3771 59.8993C49.6646 57.3768 51.0146 51.1782 48.2048 46.916C45.5982 42.9624 38.8344 42.1283 35.7765 45.3837C35.2166 45.9798 34.9999 46.1085 35.0882 45.793C35.1592 45.5396 35.2822 44.3302 35.3618 43.1054C35.4412 41.8806 35.5661 40.4354 35.6394 39.8937L35.7725 38.9089L41.4887 38.8388L47.2048 38.7687L47.768 38.1109C48.5583 37.1881 48.5357 35.8735 47.7157 35.05L47.1 34.432L40.1858 34.4506C36.3829 34.4606 33.1138 34.527 32.9212 34.5975Z" fill="black"/>
</svg>
