<svg width="20" height="20" viewBox="0 0 20 20" fill="none" xmlns="http://www.w3.org/2000/svg">
<path fill-rule="evenodd" clip-rule="evenodd" d="M3.6033 3.07699C3.06016 3.21937 2.60152 3.57313 2.29549 4.08577C2.05754 4.48444 2 4.82149 2 5.81723V6.67247L2.2509 6.4864C2.38892 6.38404 2.645 6.23441 2.82002 6.15392C3.48225 5.84931 3.16841 5.86298 9.49895 5.86298C15.8434 5.86298 15.5136 5.84833 16.1917 6.16033C16.3743 6.24435 16.6304 6.39395 16.7608 6.49281L16.9979 6.67256V5.82184C16.9979 5.35393 16.9757 4.86424 16.9486 4.73361C16.784 3.94147 16.1617 3.27807 15.3946 3.07699C15.1245 3.00618 14.6506 3 9.49895 3C4.34735 3 3.87344 3.00618 3.6033 3.07699ZM3.6033 7.02068C3.06016 7.16305 2.60152 7.51682 2.29549 8.02945C2.00045 8.52372 1.99969 8.53407 2.00259 12.1683C2.00487 15.1028 2.01286 15.4606 2.08182 15.7258C2.2821 16.496 2.94286 17.1208 3.73186 17.286C4.06462 17.3556 14.9333 17.3556 15.266 17.286C16.0946 17.1125 16.7758 16.4287 16.9486 15.5968C17.0171 15.2667 17.0171 9.0074 16.9486 8.67729C16.784 7.88515 16.1617 7.22176 15.3946 7.02068C15.1245 6.94987 14.6506 6.94369 9.49895 6.94369C4.34735 6.94369 3.87344 6.94987 3.6033 7.02068ZM8.29376 9.61423C8.17168 9.65905 8.02916 9.81792 7.98456 9.9589C7.9352 10.115 7.80276 11.6419 7.80276 12.0552C7.80276 12.2916 7.81811 12.3386 7.93323 12.4542C8.04532 12.5667 8.09781 12.5852 8.30532 12.5852C8.52793 12.5852 8.5685 12.5678 8.82065 12.3646C9.16096 12.0905 9.46311 12.0052 9.79645 12.0893C10.2259 12.1977 10.479 12.5227 10.479 12.9661C10.479 13.5127 10.0944 13.8861 9.53386 13.8838C9.23577 13.8826 8.97715 13.7658 8.80628 13.5553C8.73308 13.4651 8.61778 13.323 8.55011 13.2396C8.25859 12.8804 7.71094 13.0595 7.71447 13.5128C7.71697 13.8321 8.03813 14.2482 8.46012 14.4788C9.11052 14.8342 10.044 14.8226 10.675 14.4513C11.4947 13.9691 11.7528 12.7841 11.2156 11.9692C10.7173 11.2134 9.42423 11.0539 8.83962 11.6763C8.73259 11.7903 8.69116 11.8149 8.70804 11.7545C8.7216 11.7061 8.74513 11.4749 8.76035 11.2407C8.77553 11.0066 8.79941 10.7303 8.81342 10.6267L8.83886 10.4385L9.93166 10.4251L11.0245 10.4117L11.1321 10.2859C11.2832 10.1095 11.2789 9.85816 11.1221 9.70073L11.0044 9.5826L9.68259 9.58614C8.95555 9.58806 8.33059 9.60075 8.29376 9.61423Z" fill="black"/>
</svg>
