<svg width="21" height="20" viewBox="0 0 21 20" fill="none" xmlns="http://www.w3.org/2000/svg">
<path fill-rule="evenodd" clip-rule="evenodd" d="M2.2364 0.107393C1.47879 0.30599 0.839048 0.799449 0.412177 1.51451C0.0802563 2.0706 0 2.54075 0 3.92967V5.12262L0.349977 4.86308C0.542492 4.7203 0.899691 4.51158 1.14382 4.39931C2.06755 3.97443 1.62978 3.99349 10.4601 3.99349C19.3097 3.99349 18.8498 3.97305 19.7956 4.40825C20.0503 4.52546 20.4075 4.73412 20.5894 4.87202L20.9201 5.12275V3.93611C20.9201 3.28343 20.8892 2.60038 20.8513 2.41816C20.6218 1.31322 19.7538 0.387879 18.6837 0.107393C18.3069 0.00862662 17.6459 0 10.4601 0C3.27425 0 2.61321 0.00862662 2.2364 0.107393ZM2.2364 5.60833C1.47879 5.80693 0.839048 6.30039 0.412177 7.01545C0.000622786 7.70488 -0.00043592 7.71931 0.00361113 12.7886C0.00678651 16.8818 0.0179316 17.3809 0.114127 17.7509C0.393498 18.8252 1.31517 19.6967 2.41572 19.9271C2.87988 20.0243 18.0403 20.0243 18.5044 19.9271C19.6602 19.6852 20.6103 18.7313 20.8513 17.5709C20.947 17.1104 20.947 8.37955 20.8513 7.9191C20.6218 6.81416 19.7538 5.88882 18.6837 5.60833C18.3069 5.50956 17.6459 5.50094 10.4601 5.50094C3.27425 5.50094 2.61321 5.50956 2.2364 5.60833ZM8.77899 9.22601C8.6087 9.28852 8.4099 9.51012 8.3477 9.70678C8.27884 9.92457 8.09411 12.0544 8.09411 12.6308C8.09411 12.9606 8.11552 13.0262 8.2761 13.1874C8.43244 13.3443 8.50566 13.3701 8.79512 13.3701C9.10562 13.3701 9.16222 13.3458 9.51394 13.0625C9.98862 12.68 10.4101 12.5611 10.8751 12.6784C11.4741 12.8296 11.8271 13.283 11.8271 13.9014C11.8271 14.6639 11.2907 15.1848 10.5088 15.1815C10.093 15.1798 9.73223 15.0169 9.49389 14.7233C9.39178 14.5974 9.23095 14.3993 9.13656 14.283C8.72993 13.7819 7.96603 14.0317 7.97095 14.6641C7.97444 15.1095 8.42242 15.6898 9.01104 16.0115C9.91827 16.5073 11.2203 16.4911 12.1006 15.9732C13.2439 15.3005 13.6039 13.6475 12.8546 12.5109C12.1595 11.4566 10.3558 11.2342 9.5404 12.1023C9.39109 12.2613 9.33331 12.2956 9.35685 12.2115C9.37578 12.1439 9.40859 11.8214 9.42982 11.4948C9.45099 11.1682 9.4843 10.7828 9.50385 10.6383L9.53934 10.3757L11.0636 10.357L12.588 10.3383L12.7381 10.1629C12.9489 9.91682 12.9428 9.56625 12.7242 9.34665L12.56 9.18188L10.7162 9.18681C9.70209 9.1895 8.83036 9.20719 8.77899 9.22601Z" fill="black"/>
</svg>
