<svg width="126" height="150" viewBox="0 0 126 150" fill="none" xmlns="http://www.w3.org/2000/svg">
<path fill-rule="evenodd" clip-rule="evenodd" d="M22.8211 0.243011C20.5149 0.817003 17.2327 2.74114 15.6393 4.45337C14.8211 5.33277 13.6323 7.13778 12.9982 8.46374C11.9537 10.6474 11.8447 11.2008 11.8447 14.3235C11.8447 17.5779 11.9212 17.9249 13.2059 20.4995C14.8452 23.7854 16.9553 25.8319 20.3436 27.4217C22.5452 28.4549 23.1094 28.5643 26.2404 28.5643C29.3713 28.5643 29.9355 28.4549 32.1371 27.4217C35.5254 25.8319 37.6356 23.7854 39.2749 20.4995C40.561 17.922 40.6361 17.5808 40.6361 14.3047C40.6361 11.0287 40.561 10.6875 39.2749 8.10996C36.8123 3.17398 32.4371 0.277668 27.06 0.0242445C25.5067 -0.0490387 23.5992 0.0495143 22.8211 0.243011ZM67.6052 6.15044C65.2691 7.17893 64.143 9.1926 64.143 12.3427V14.3047H56.854H49.565L49.5588 15.478C49.5392 19.0884 47.2774 25.2124 44.8717 28.1683L43.7251 29.5769L46.4144 31.2841C47.8937 32.2227 50.8887 34.5187 53.0699 36.3865C55.2515 38.2543 57.2133 39.8907 57.4298 40.0228C57.6463 40.1553 61.3731 38.4965 65.7115 36.3367C74.2844 32.0689 76.3589 31.4112 80.1408 31.761C85.1209 32.2216 89.4422 35.2414 91.7553 39.8781C93.0415 42.4556 93.1166 42.7968 93.1166 46.0729C93.1166 49.349 93.0415 49.6901 91.7553 52.2677C89.5694 56.6495 88.8726 57.1213 73.0727 64.9287L59.0301 71.8671L55.7563 71.8758L52.4824 71.8845L52.4817 83.5268L52.4806 95.1691H63.3521H74.2236L81.0562 120.89C88.3306 148.276 88.3219 148.25 90.8734 149.449C94.2963 151.058 98.5268 148.792 99.0093 145.091C99.1423 144.072 97.5537 137.585 92.7809 119.654C89.2574 106.416 86.3743 95.5001 86.3743 95.3965C86.3743 95.2933 92.6563 95.159 100.334 95.0987L114.295 94.9886L117.047 93.6402C120.363 92.0164 122.43 89.9252 124.034 86.57L125.188 84.1585V54.7181V25.2777L123.827 22.55C122.187 19.2642 120.077 17.2177 116.689 15.6278L114.255 14.4852L95.0704 14.3802L75.8858 14.2748L75.7455 11.8131C75.63 9.78717 75.4208 9.11246 74.5636 7.99949C72.8795 5.81218 70.0692 5.06527 67.6052 6.15044ZM20.5404 35.028C16.9765 35.7038 15.5799 36.1822 12.3258 37.8413C7.9163 40.0889 3.80132 44.0354 1.78556 47.9494C0.0799452 51.2608 0.000130284 52.3362 0.000130284 71.996C0.000130284 92.6384 -0.0610973 92.0941 2.47109 94.0074C3.49883 94.7835 4.2321 94.998 6.24677 95.1106L8.74688 95.2507V120.223V145.195L9.56689 146.806C10.166 147.983 10.825 148.636 12.0131 149.229C14.0325 150.238 15.3627 150.254 17.365 149.294C19.208 148.41 20.3367 146.767 20.6024 144.583C20.7762 143.156 22.9603 98.2112 22.9603 96.0661C22.9603 95.177 22.9899 95.1691 26.2404 95.1691C28.6261 95.1691 29.5179 95.2922 29.5117 95.6203C29.5069 95.8687 30.0157 107.118 30.6422 120.62C31.675 142.867 31.8489 145.31 32.499 146.688C34.4117 150.742 40.5588 151.019 42.8144 147.153C43.5407 145.909 43.5542 145.232 43.7339 101.578L43.9161 57.265L48.1072 59.9137C52.4722 62.6717 54.0795 63.4009 55.796 63.4009C56.878 63.4009 80.2403 52.055 82.2418 50.5572C83.6763 49.484 84.7259 46.9126 84.4405 45.1704C84.0116 42.5527 81.2964 40.2968 78.5747 40.2968C77.6727 40.2968 74.2724 41.795 66.8027 45.4841L56.2986 50.6709L50.2896 45.4754C41.963 38.276 39.7953 36.9334 34.0538 35.4212C31.0259 34.6233 23.7851 34.4129 20.5404 35.028Z" fill="black"/>
</svg>
