<svg width="63" height="75" viewBox="0 0 63 75" fill="none" xmlns="http://www.w3.org/2000/svg">
<path fill-rule="evenodd" clip-rule="evenodd" d="M11.4106 0.121506C10.2574 0.408502 8.61634 1.37057 7.81966 2.22669C7.41057 2.66638 6.81615 3.56889 6.49908 4.23187C5.97683 5.32372 5.92234 5.60042 5.92234 7.16176C5.92234 8.78897 5.96061 8.96243 6.60295 10.2498C7.42259 11.8927 8.47767 12.9159 10.1718 13.7109C11.2726 14.2275 11.5547 14.2821 13.1202 14.2821C14.6857 14.2821 14.9678 14.2275 16.0686 13.7109C17.7627 12.9159 18.8178 11.8927 19.6374 10.2498C20.2805 8.96099 20.318 8.79041 20.318 7.15237C20.318 5.51433 20.2805 5.34375 19.6374 4.05498C18.4061 1.58699 16.2185 0.138834 13.53 0.0121223C12.7534 -0.0245194 11.7996 0.0247571 11.4106 0.121506ZM33.8026 3.07522C32.6345 3.58947 32.0715 4.5963 32.0715 6.17135V7.15237H28.427H24.7825L24.7794 7.739C24.7696 9.54418 23.6387 12.6062 22.4358 14.0841L21.8626 14.7885L23.2072 15.642C23.9468 16.1113 25.4444 17.2593 26.535 18.1932C27.6258 19.1271 28.6067 19.9454 28.7149 20.0114C28.8232 20.0777 30.6866 19.2483 32.8558 18.1683C37.1422 16.0345 38.1794 15.7056 40.0704 15.8805C42.5605 16.1108 44.7211 17.6207 45.8777 19.939C46.5207 21.2278 46.5583 21.3984 46.5583 23.0364C46.5583 24.6745 46.5207 24.8451 45.8777 26.1338C44.7847 28.3247 44.4363 28.5607 36.5363 32.4643L29.5151 35.9336L27.8781 35.9379L26.2412 35.9422L26.2409 41.7634L26.2403 47.5845H31.676H37.1118L40.5281 60.4452C44.1653 74.1378 44.1609 74.1248 45.4367 74.7244C47.1481 75.5289 49.2634 74.3959 49.5047 72.5454C49.5712 72.0362 48.7769 68.7923 46.3905 59.8272C44.6287 53.208 43.1871 47.7501 43.1871 47.6982C43.1871 47.6466 46.3281 47.5795 50.1672 47.5493L57.1473 47.4943L58.5237 46.8201C60.1817 46.0082 61.2149 44.9626 62.0172 43.285L62.594 42.0793V27.3591V12.6389L61.9134 11.275C61.0937 9.63209 60.0387 8.60883 58.3445 7.81391L57.1273 7.24262L47.5352 7.19009L37.9429 7.13739L37.8728 5.90655C37.815 4.89358 37.7104 4.55623 37.2818 3.99974C36.4397 2.90609 35.0346 2.53263 33.8026 3.07522ZM10.2702 17.514C8.48824 17.8519 7.78996 18.0911 6.16288 18.9207C3.95815 20.0445 1.90066 22.0177 0.892781 23.9747C0.0399726 25.6304 6.51422e-05 26.1681 6.51422e-05 35.998C6.51422e-05 46.3192 -0.0305487 46.047 1.23554 47.0037C1.74941 47.3918 2.11605 47.499 3.12338 47.5553L4.37344 47.6253V60.1115V72.5976L4.78344 73.403C5.08302 73.9914 5.41248 74.3178 6.00653 74.6145C7.01623 75.1188 7.68135 75.127 8.68249 74.6468C9.604 74.205 10.1683 73.3837 10.3012 72.2915C10.3881 71.5778 11.4802 49.1056 11.4802 48.0331C11.4802 47.5885 11.4949 47.5845 13.1202 47.5845C14.313 47.5845 14.7589 47.6461 14.7558 47.8102C14.7535 47.9343 15.0078 53.5591 15.3211 60.3098C15.8375 71.4336 15.9244 72.6552 16.2495 73.3442C17.2058 75.371 20.2794 75.5094 21.4072 73.5766C21.7704 72.9543 21.7771 72.6158 21.8669 50.7888L21.958 28.6325L24.0536 29.9568C26.2361 31.3359 27.0397 31.7005 27.898 31.7005C28.439 31.7005 40.1201 26.0275 41.1209 25.2786C41.8381 24.742 42.3629 23.4563 42.2203 22.5852C42.0058 21.2764 40.6482 20.1484 39.2874 20.1484C38.8364 20.1484 37.1362 20.8975 33.4013 22.742L28.1493 25.3355L25.1448 22.7377C20.9815 19.138 19.8976 18.4667 17.0269 17.7106C15.513 17.3117 11.8925 17.2064 10.2702 17.514Z" fill="black"/>
</svg>
