<svg width="87" height="74" viewBox="0 0 87 74" fill="none" xmlns="http://www.w3.org/2000/svg">
<path d="M86.8574 56.5365C85.5424 58.4601 84.4023 60.5375 82.8774 62.2792C78.8414 66.8818 73.1827 69.5328 67.7827 67.2455C61.949 64.7764 59.389 67.5743 56.2483 70.9667C55.4439 71.8411 54.6535 73.0582 53.6463 73.338C52.3452 73.6947 50.3237 73.7856 49.5403 73.0302C48.7919 72.3167 48.645 69.4839 49.2465 69.0782C56.2973 64.3427 56.2903 58.0194 55.2481 50.3741C54.3457 43.7781 60.3333 37.7486 66.9363 36.1468C73.6513 34.517 80.6741 37.2589 84.3183 42.9807C85.2207 44.3936 86.0181 45.8765 86.8644 47.3244V56.5435L86.8574 56.5365ZM70.8534 61.0622C76.1135 61.0831 80.3103 56.9982 80.3383 51.8221C80.3663 46.7229 76.1764 42.3511 71.0912 42.1833C65.9641 42.0154 61.2146 46.6809 61.2845 51.829C61.3475 56.8723 65.6703 61.0412 70.8604 61.0622H70.8534Z" fill="black"/>
<path d="M70.6435 18.1978V30.7324C61.2216 31.8166 54.4296 36.3772 50.9043 45.4494C50.5545 46.3517 48.5051 47.0162 47.218 47.0652C42.4546 47.254 37.6702 46.9673 32.9137 47.24C31.2 47.338 29.5492 48.5271 27.8775 49.2196C29.4863 49.982 31.0741 51.332 32.7179 51.4089C38.3137 51.6817 43.9235 51.5139 49.4354 51.5139C51.3006 58.1589 48.8735 61.4814 42.1538 61.4814C31.7596 61.4814 21.3653 61.5444 10.9781 61.4464C5.38929 61.3905 1.10849 58.7325 0.926622 53.997C0.464967 42.1618 0.772738 30.2987 0.772738 18.1978H70.6435ZM39.5657 29.0466C42.4616 29.0466 45.3714 29.2215 48.2463 28.9557C49.2815 28.8578 50.2188 27.7037 51.205 27.0322C50.3237 26.2627 49.4564 24.8498 48.547 24.8218C42.5945 24.619 36.6209 24.612 30.6684 24.8218C29.7171 24.8568 28.8078 26.2557 27.8775 27.0252C28.8777 27.7036 29.836 28.8578 30.8852 28.9557C33.7531 29.2285 36.6699 29.0466 39.5657 29.0536V29.0466ZM39.1391 40.3012C42.2028 40.3012 45.2875 40.4761 48.3302 40.2033C49.3374 40.1124 50.2398 38.8883 51.1911 38.1818C50.2817 37.4264 49.3934 36.0484 48.4561 36.0134C42.6714 35.8036 36.8658 35.7756 31.0811 36.0064C29.9829 36.0484 28.9477 37.5103 27.8775 38.3147C28.9057 38.9792 29.885 40.1054 30.9622 40.2173C33.6622 40.4971 36.4041 40.3082 39.1321 40.3082L39.1391 40.3012ZM20.2812 22.6814C18.9591 24.7239 17.5462 25.9829 17.5322 27.256C17.5252 28.1373 19.7006 29.935 20.442 29.7251C21.6242 29.3894 23.0091 27.8016 23.198 26.5775C23.3379 25.6682 21.7081 24.4861 20.2812 22.6814ZM24.527 37.8601C22.7223 36.608 21.3793 35.0342 20.5679 35.272C19.3019 35.6427 18.3996 37.2445 17.3503 38.3217C18.5255 39.266 19.6097 40.7419 20.9037 40.9518C21.7291 41.0847 22.8622 39.3569 24.527 37.8601ZM16.0563 49.4784C18.2597 50.8284 19.5397 52.1924 20.8198 52.1924C21.6801 52.1924 23.219 50.2548 23.205 49.2056C23.191 48.2333 21.4633 46.4426 20.5959 46.5056C19.3229 46.5965 18.1478 48.0165 16.0563 49.4784Z" fill="black"/>
<path d="M70.4478 13.2738H1.19955C-0.584118 6.13913 2.99021 0.543312 10.0619 0.431395C27.1222 0.158599 44.1894 0.179585 61.2497 0.417407C67.9297 0.515334 71.3012 5.46763 70.4478 13.2738Z" fill="black"/>
</svg>
