<svg width="177" height="150" viewBox="0 0 177 150" fill="none" xmlns="http://www.w3.org/2000/svg">
<path fill-rule="evenodd" clip-rule="evenodd" d="M17.7078 0.244585C13.0808 0.856806 9.8577 2.41169 6.35368 5.72226C2.26117 9.58862 0.666612 13.6443 0.258464 21.222L0 26.0274H72.1034H144.207L143.948 21.222C143.534 13.531 141.971 9.63688 137.641 5.50592C135.118 3.09957 133.871 2.33276 130.212 0.936963L127.927 0.0650478L73.9438 0.00574919C44.2529 -0.0265591 18.9469 0.0805897 17.7078 0.244585ZM0.22125 71.7293C0.344349 105.016 0.407328 107.779 1.09275 109.865C3.19647 116.271 8.00713 121.082 14.4393 123.211C16.5459 123.909 19.3629 123.964 58.8133 124.084L100.938 124.211L102.681 122.436L104.423 120.66L103.608 118.289C102.491 115.044 101.549 109.858 101.549 106.958V104.549H80.0374H58.5258L57.1353 103.158C55.9186 101.942 55.7448 101.508 55.7448 99.6886C55.7448 97.9693 55.9514 97.3779 56.9378 96.2737L58.1311 94.938L80.2668 94.7336L102.403 94.5291L103.608 90.9408C105.088 86.5367 105.935 84.8251 108.735 80.5866C111.529 76.3567 117.549 70.6095 121.929 67.9905C127.889 64.4268 135.748 62.0163 141.406 62.0163H144.081V48.9294V35.8426H72.0846H0.0883348L0.22125 71.7293ZM37.44 48.1095C35.4442 49.3261 34.4815 51.1898 34.4815 53.837C34.4815 57.9418 36.9173 60.3776 41.0221 60.3776C45.1269 60.3776 47.5627 57.9418 47.5627 53.837C47.5627 51.1898 46.6 49.3261 44.6042 48.1095C42.7937 47.0053 39.2504 47.0053 37.44 48.1095ZM57.1353 50.3199C55.9105 51.5448 55.7448 51.964 55.7448 53.837C55.7448 55.7101 55.9105 56.1293 57.1353 57.3541L58.5258 58.7446H80.2827H102.04L103.43 57.3541C104.655 56.1293 104.821 55.7101 104.821 53.837C104.821 51.964 104.655 51.5448 103.43 50.3199L102.04 48.9294H80.2827H58.5258L57.1353 50.3199ZM37.44 71.0115C35.4442 72.2282 34.4815 74.0919 34.4815 76.7391C34.4815 80.8439 36.9173 83.2797 41.0221 83.2797C45.1269 83.2797 47.5627 80.8439 47.5627 76.7391C47.5627 72.6343 45.1269 70.1985 41.0221 70.1985C39.4975 70.1985 38.3434 70.4607 37.44 71.0115ZM57.1353 73.222C55.9105 74.4468 55.7448 74.866 55.7448 76.7391C55.7448 78.6122 55.9105 79.0313 57.1353 80.2562L58.5258 81.6467H80.2827H102.04L103.43 80.2562C104.655 79.0313 104.821 78.6122 104.821 76.7391C104.821 74.866 104.655 74.4468 103.43 73.222L102.04 71.8315H80.2827H58.5258L57.1353 73.222ZM141.014 72.2904C133.428 73.0065 126.597 76.2291 121.179 81.6467C114.992 87.8343 111.782 95.6128 111.776 104.435C111.772 109.949 112.701 113.975 115.095 118.815L117.039 122.748L108.315 131.54C103.517 136.376 99.3871 140.735 99.1385 141.226C98.4199 142.645 98.6007 145.504 99.5021 146.983C101.066 149.548 104.893 150.763 107.404 149.492C107.895 149.243 112.254 145.113 117.09 140.315L125.882 131.591L129.829 133.542C134.588 135.896 138.855 136.894 144.153 136.894C149.357 136.894 153.263 135.972 158.191 133.58C165.217 130.169 169.702 125.684 173.113 118.658C175.532 113.675 176.39 109.981 176.39 104.549C176.39 99.4559 175.554 95.558 173.525 91.1866C171.578 86.991 169.941 84.6043 166.983 81.6467C160.118 74.7818 150.672 71.3784 141.014 72.2904ZM137.494 85.8893C129.344 88.7668 124.451 95.7662 124.451 104.549C124.451 110.215 125.956 114.112 129.693 118.13C133.509 122.233 138.139 124.179 144.081 124.179C150.024 124.179 154.654 122.233 158.47 118.13C162.207 114.112 163.712 110.215 163.712 104.549C163.712 98.8829 162.207 94.9851 158.47 90.9674C154.624 86.8332 150.023 84.9135 143.992 84.927C141.077 84.9335 139.569 85.1572 137.494 85.8893ZM37.44 93.9136C35.4442 95.1303 34.4815 96.9939 34.4815 99.6411C34.4815 103.746 36.9173 106.182 41.0221 106.182C45.1269 106.182 47.5627 103.746 47.5627 99.6411C47.5627 95.5364 45.1269 93.1006 41.0221 93.1006C39.4975 93.1006 38.3434 93.3627 37.44 93.9136Z" fill="black"/>
</svg>
