<svg width="89" height="75" viewBox="0 0 89 75" fill="none" xmlns="http://www.w3.org/2000/svg">
<path fill-rule="evenodd" clip-rule="evenodd" d="M8.85389 0.122292C6.54038 0.428403 4.92885 1.20585 3.17684 2.86113C1.13058 4.79431 0.333306 6.82217 0.129232 10.611L0 13.0137H36.0517H72.1034L71.9742 10.611C71.7671 6.76552 70.9857 4.81844 68.8203 2.75296C67.559 1.54979 66.9353 1.16638 65.106 0.468482L63.9636 0.0325239L36.9719 0.00287459C22.1265 -0.0132795 9.47347 0.0402948 8.85389 0.122292ZM0.110625 35.8646C0.172174 52.5081 0.203664 53.8894 0.546377 54.9326C1.59824 58.1355 4.00357 60.5408 7.21967 61.6057C8.27296 61.9546 9.68143 61.9822 29.4066 62.0419L50.4692 62.1055L51.3403 61.2178L52.2116 60.33L51.8038 59.1446C51.2454 57.5218 50.7745 54.9292 50.7745 53.4788V52.2744H40.0187H29.2629L28.5677 51.5791C27.9593 50.9708 27.8724 50.754 27.8724 49.8443C27.8724 48.9846 27.9757 48.689 28.4689 48.1369L29.0656 47.469L40.1334 47.3668L51.2014 47.2645L51.8042 45.4704C52.5441 43.2683 52.9677 42.4126 54.3676 40.2933C55.7645 38.1784 58.7747 35.3048 60.9647 33.9953C63.9446 32.2134 67.8739 31.0082 70.7029 31.0082H72.0407V24.4647V17.9213H36.0423H0.0441674L0.110625 35.8646ZM18.72 24.0547C17.7221 24.6631 17.2407 25.5949 17.2407 26.9185C17.2407 28.9709 18.4586 30.1888 20.511 30.1888C22.5634 30.1888 23.7813 28.9709 23.7813 26.9185C23.7813 25.5949 23.3 24.6631 22.3021 24.0547C21.3969 23.5026 19.6252 23.5026 18.72 24.0547ZM28.5677 25.16C27.9552 25.7724 27.8724 25.982 27.8724 26.9185C27.8724 27.855 27.9552 28.0646 28.5677 28.6771L29.2629 29.3723H40.1414H51.0199L51.7151 28.6771C52.3275 28.0646 52.4103 27.855 52.4103 26.9185C52.4103 25.982 52.3275 25.7724 51.7151 25.16L51.0199 24.4647H40.1414H29.2629L28.5677 25.16ZM18.72 35.5058C17.7221 36.1141 17.2407 37.0459 17.2407 38.3695C17.2407 40.4219 18.4586 41.6398 20.511 41.6398C22.5634 41.6398 23.7813 40.4219 23.7813 38.3695C23.7813 36.3172 22.5634 35.0993 20.511 35.0993C19.7487 35.0993 19.1717 35.2303 18.72 35.5058ZM28.5677 36.611C27.9552 37.2234 27.8724 37.433 27.8724 38.3695C27.8724 39.3061 27.9552 39.5157 28.5677 40.1281L29.2629 40.8233H40.1414H51.0199L51.7151 40.1281C52.3275 39.5157 52.4103 39.3061 52.4103 38.3695C52.4103 37.433 52.3275 37.2234 51.7151 36.611L51.0199 35.9158H40.1414H29.2629L28.5677 36.611ZM70.507 36.1452C66.7141 36.5032 63.2984 38.1146 60.5896 40.8233C57.4958 43.9172 55.891 47.8064 55.888 52.2175C55.8861 54.9746 56.3507 56.9877 57.5475 59.4077L58.5197 61.3738L54.1576 65.7702C51.7584 68.1882 49.6936 70.3676 49.5692 70.6132C49.21 71.3227 49.3004 72.7521 49.751 73.4913C50.533 74.7738 52.4465 75.3815 53.7018 74.7458C53.9474 74.6215 56.1268 72.5566 58.5448 70.1574L62.9412 65.7954L64.9146 66.7712C67.294 67.9478 69.4276 68.4471 72.0764 68.4471C74.6785 68.4471 76.6315 67.986 79.0953 66.79C82.6083 65.0846 84.8509 62.842 86.5563 59.329C87.7658 56.8376 88.1948 54.9903 88.1948 52.2744C88.1948 49.7279 87.777 47.779 86.7624 45.5933C85.7888 43.4955 84.9705 42.3022 83.4917 40.8233C80.0592 37.3909 75.3361 35.6892 70.507 36.1452ZM68.7471 42.9446C64.6719 44.3834 62.2255 47.8831 62.2255 52.2744C62.2255 55.1073 62.9778 57.0562 64.8464 59.065C66.7544 61.1164 69.0693 62.0895 72.0407 62.0895C75.012 62.0895 77.327 61.1164 79.235 59.065C81.1035 57.0562 81.8558 55.1073 81.8558 52.2744C81.8558 49.4415 81.1035 47.4925 79.235 45.4837C77.3122 43.4166 75.0114 42.4567 71.9961 42.4635C70.5385 42.4668 69.7846 42.5786 68.7471 42.9446ZM18.72 46.9568C17.7221 47.5651 17.2407 48.497 17.2407 49.8206C17.2407 51.873 18.4586 53.0909 20.511 53.0909C22.5634 53.0909 23.7813 51.873 23.7813 49.8206C23.7813 47.7682 22.5634 46.5503 20.511 46.5503C19.7487 46.5503 19.1717 46.6814 18.72 46.9568Z" fill="black"/>
</svg>
