<svg width="20" height="20" viewBox="0 0 20 20" fill="none" xmlns="http://www.w3.org/2000/svg">
<path fill-rule="evenodd" clip-rule="evenodd" d="M7.19572 3.05443C7.04921 3.11952 6.91632 3.25981 6.8598 3.40907C6.83219 3.48193 6.81729 4.09897 6.81729 5.17051V6.81982L5.10728 6.83101C3.4514 6.84185 3.3938 6.8448 3.28732 6.92435C3.1136 7.05409 3.02585 7.19753 3.00454 7.38659C2.97844 7.6179 3.06532 7.81779 3.2547 7.96227L3.40515 8.07708L5.11122 8.08827L6.81729 8.09946V10.009V11.9186L5.10728 11.9298C3.4514 11.9407 3.3938 11.9436 3.28732 12.0232C3.1136 12.1529 3.02585 12.2963 3.00454 12.4854C2.97844 12.7167 3.06532 12.9166 3.2547 13.0611L3.40515 13.1759L5.11122 13.1871L6.81729 13.1983V14.8514C6.81729 16.6904 6.81662 16.6852 7.07885 16.8852C7.2044 16.981 7.26734 17 7.45859 17C7.7062 17 7.83463 16.9337 7.98994 16.7258C8.06949 16.6193 8.07244 16.5617 8.08327 14.9058L8.09447 13.1958H10.0053H11.9161V14.8502C11.9161 16.6905 11.9154 16.6852 12.1777 16.8852C12.3032 16.981 12.3662 17 12.5574 17C12.805 17 12.9334 16.9337 13.0888 16.7258C13.1683 16.6193 13.1713 16.5617 13.1821 14.9071L13.1933 13.1983L14.9021 13.1871C16.5567 13.1762 16.6143 13.1733 16.7208 13.0938C16.9287 12.9384 16.995 12.81 16.995 12.5624C16.995 12.3712 16.976 12.3082 16.8802 12.1827C16.6802 11.9204 16.6855 11.9211 14.8452 11.9211H13.1908V10.0103V8.09946L14.9008 8.08827C16.5567 8.07743 16.6143 8.07449 16.7208 7.99494C16.9287 7.83962 16.995 7.7112 16.995 7.46359C16.995 7.27234 16.976 7.2094 16.8802 7.08384C16.6802 6.82161 16.6854 6.82229 14.8464 6.82229H13.1933L13.1821 5.11622L13.1709 3.41015L13.0561 3.25969C12.7836 2.90254 12.2979 2.91779 12.0182 3.29232C11.9386 3.3988 11.9357 3.4564 11.9248 5.11228L11.9136 6.82229H10.0041H8.09447L8.08327 5.11622L8.07208 3.41015L7.95728 3.25969C7.77221 3.0171 7.4656 2.93448 7.19572 3.05443ZM8.092 10.009V11.9211H10.0041H11.9161V10.009V8.09699H10.0041H8.092V10.009Z" fill="black"/>
</svg>
