<svg width="75" height="75" viewBox="0 0 75 75" fill="none" xmlns="http://www.w3.org/2000/svg">
<path fill-rule="evenodd" clip-rule="evenodd" d="M22.4771 0.291569C21.6922 0.640263 20.9803 1.39185 20.6775 2.19146C20.5296 2.58177 20.4498 5.88732 20.4498 11.6278V20.4633L11.289 20.5233C2.41821 20.5813 2.10963 20.5971 1.53922 21.0233C0.608585 21.7183 0.138468 22.4868 0.0242991 23.4996C-0.115477 24.7388 0.349946 25.8096 1.36444 26.5836L2.17045 27.1986L11.3101 27.2586L20.4498 27.3186V37.5485V47.7784L11.289 47.8384C2.41821 47.8964 2.10963 47.9122 1.53922 48.3384C0.608585 49.0334 0.138468 49.8018 0.0242991 50.8146C-0.115477 52.0538 0.349946 53.1247 1.36444 53.8987L2.17045 54.5137L11.3101 54.5737L20.4498 54.6336V63.4899C20.4498 73.3415 20.4462 73.3135 21.851 74.385C22.5236 74.898 22.8608 75 23.8853 75C25.2118 75 25.8998 74.6449 26.7318 73.531C27.158 72.9605 27.1738 72.652 27.2318 63.7812L27.2918 54.6204H37.5283H47.7649V63.4833C47.7649 73.3421 47.7612 73.3135 49.166 74.385C49.8387 74.898 50.1758 75 51.2004 75C52.5269 75 53.2149 74.6449 54.0469 73.531C54.4731 72.9605 54.4888 72.652 54.5469 63.7878L54.6069 54.6336L63.761 54.5737C72.6252 54.5156 72.9338 54.4998 73.5042 54.0737C74.6181 53.2416 74.9732 52.5536 74.9732 51.2271C74.9732 50.2026 74.8712 49.8654 74.3582 49.1928C73.2867 47.788 73.3153 47.7916 63.4565 47.7916H54.5936V37.5551V27.3186L63.7544 27.2586C72.6252 27.2005 72.9338 27.1848 73.5042 26.7586C74.6181 25.9266 74.9732 25.2386 74.9732 23.9121C74.9732 22.8875 74.8712 22.5504 74.3582 21.8777C73.2867 20.4729 73.3147 20.4766 63.4631 20.4766H54.6069L54.5469 11.3369L54.4869 2.19722L53.8719 1.39121C52.412 -0.522121 49.8101 -0.440389 48.3116 1.56599C47.8854 2.1364 47.8696 2.44498 47.8116 11.3158L47.7516 20.4766H37.5217H27.2918L27.2318 11.3369L27.1719 2.19722L26.5568 1.39121C25.5654 0.0916144 23.9229 -0.350975 22.4771 0.291569ZM27.2786 37.5485V47.7916H37.5217H47.7649V37.5485V27.3053H37.5217H27.2786V37.5485Z" fill="black"/>
</svg>
