<svg width="20" height="20" viewBox="0 0 20 20" fill="none" xmlns="http://www.w3.org/2000/svg">
<path fill-rule="evenodd" clip-rule="evenodd" d="M5.99389 0.0777518C5.78459 0.170737 5.59475 0.371161 5.514 0.58439C5.47456 0.688471 5.45328 1.56995 5.45328 3.10073V5.45689L3.0104 5.47288C0.644856 5.48836 0.562569 5.49257 0.410458 5.60621C0.162289 5.79155 0.0369247 5.99647 0.00647976 6.26655C-0.0307939 6.59701 0.0933188 6.88256 0.363852 7.08896L0.578787 7.25297L3.01603 7.26896L5.45328 7.28495V10.0129V12.7409L3.0104 12.7569C0.644856 12.7724 0.562569 12.7766 0.410458 12.8902C0.162289 13.0756 0.0369247 13.2805 0.00647976 13.5506C-0.0307939 13.881 0.0933188 14.1666 0.363852 14.373L0.578787 14.537L3.01603 14.553L5.45328 14.569V16.9306C5.45328 19.5577 5.45231 19.5503 5.82692 19.836C6.00629 19.9728 6.0962 20 6.36941 20C6.72314 20 6.90661 19.9053 7.12849 19.6083C7.24213 19.4561 7.24634 19.3739 7.26182 17.0083L7.27781 14.5654H10.0076H12.7373V16.9289C12.7373 19.5579 12.7363 19.5503 13.1109 19.836C13.2903 19.9728 13.3802 20 13.6534 20C14.0072 20 14.1906 19.9053 14.4125 19.6083C14.5261 19.4561 14.5304 19.3739 14.5458 17.0101L14.5618 14.569L17.0029 14.553C19.3667 14.5375 19.449 14.5333 19.6011 14.4196C19.8982 14.1978 19.9929 14.0143 19.9929 13.6606C19.9929 13.3874 19.9657 13.2975 19.8289 13.1181C19.5431 12.7435 19.5508 12.7444 16.9217 12.7444H14.5583V10.0147V7.28495L17.0012 7.26896C19.3667 7.25348 19.449 7.24927 19.6011 7.13563C19.8982 6.91375 19.9929 6.73028 19.9929 6.37655C19.9929 6.10334 19.9657 6.01343 19.8289 5.83406C19.5431 5.45945 19.5506 5.46041 16.9235 5.46041H14.5618L14.5458 3.02317L14.5298 0.585926L14.3658 0.370991C13.9765 -0.139232 13.2827 -0.117437 12.8831 0.417597C12.7694 0.569708 12.7652 0.651994 12.7498 3.01754L12.7338 5.46041H10.0058H7.27781L7.26182 3.02317L7.24583 0.585926L7.08182 0.370991C6.81744 0.0244305 6.37943 -0.0935934 5.99389 0.0777518ZM7.27428 10.0129V12.7444H10.0058H12.7373V10.0129V7.28142H10.0058H7.27428V10.0129Z" fill="black"/>
</svg>
