<svg width="13" height="20" viewBox="0 0 13 20" fill="none" xmlns="http://www.w3.org/2000/svg">
<path fill-rule="evenodd" clip-rule="evenodd" d="M1.39031 0.034357C0.636788 0.221954 0.0669347 0.926211 0.0086167 1.74181C-0.0550547 2.63292 0.241148 4.17009 0.665321 5.14993C1.18933 6.36054 1.62284 6.96337 2.90743 8.26807C3.92583 9.30241 4.09298 9.5473 4.09298 10.0051C4.09298 10.461 3.92486 10.7088 2.93357 11.7136C1.4468 13.2207 0.830535 14.1825 0.369801 15.7151C0.0422746 16.8044 -0.092756 18.1633 0.0712633 18.7193C0.204586 19.1713 0.520038 19.5522 0.963175 19.7962L1.33336 20H6.37353H11.4137L11.7839 19.7962C12.227 19.5522 12.5425 19.1713 12.6758 18.7193C12.8398 18.1633 12.7048 16.8044 12.3773 15.7151C11.9165 14.1825 11.3003 13.2207 9.8135 11.7136C8.82272 10.7093 8.6546 10.4618 8.6534 10.0051C8.65215 9.55368 8.85165 9.25093 9.70386 8.41044C11.1999 6.93501 11.7974 6.04487 12.2986 4.54466C12.5903 3.67131 12.7122 2.95874 12.7185 2.08887C12.7232 1.43393 12.7116 1.35152 12.5744 1.05885C12.3927 0.671355 12.1058 0.374982 11.7108 0.166768L11.4137 0.0101526L6.48743 0.000983337C3.77798 -0.00408531 1.48428 0.0109501 1.39031 0.034357ZM4.80481 6.95563C4.56693 7.19346 4.61431 7.38219 5.02669 7.84013C5.47262 8.33521 5.65965 8.67174 5.80527 9.24108C5.90739 9.64042 5.91792 9.87563 5.91792 11.7569V13.8321L5.59045 14.1623C5.41037 14.344 4.6351 15.0872 3.86768 15.814C3.10027 16.5407 2.3763 17.2343 2.25881 17.3552C1.99889 17.6229 1.97474 17.856 2.18506 18.0662L2.32482 18.206H6.37353H10.4222L10.562 18.0662C10.6504 17.9779 10.7018 17.8614 10.7018 17.7497C10.7018 17.5369 10.7014 17.5365 8.82243 15.7571C8.05501 15.0303 7.29255 14.2996 7.12813 14.1333L6.82914 13.8308V11.7562C6.82914 9.87562 6.83968 9.64036 6.94179 9.24108C7.08741 8.67174 7.27444 8.33521 7.72037 7.84013C8.13275 7.38219 8.18014 7.19346 7.94225 6.95563L7.80249 6.81581H6.37353H4.94457L4.80481 6.95563Z" fill="black"/>
</svg>
