<svg width="48" height="75" viewBox="0 0 48 75" fill="none" xmlns="http://www.w3.org/2000/svg">
<path fill-rule="evenodd" clip-rule="evenodd" d="M5.21366 0.128839C2.38795 0.832328 0.251005 3.47329 0.0323126 6.53178C-0.206455 9.87346 0.904307 15.6378 2.49495 19.3123C4.45998 23.852 6.08565 26.1126 10.9029 31.0052C14.7219 34.884 15.3487 35.8024 15.3487 37.519C15.3487 39.2288 14.7182 40.1581 11.0009 43.926C5.42551 49.5774 3.11451 53.1844 1.38675 58.9314C0.15853 63.0166 -0.347835 68.1123 0.267237 70.1973C0.767197 71.8924 1.95014 73.3207 3.61191 74.2356L5.00009 75H23.9007H42.8014L44.1896 74.2356C45.8513 73.3207 47.0343 71.8924 47.5343 70.1973C48.1493 68.1123 47.643 63.0166 46.4147 58.9314C44.687 53.1844 42.376 49.5774 36.8006 43.926C33.0852 40.16 32.4547 39.2316 32.4503 37.519C32.4456 35.8263 33.1937 34.691 36.3895 31.5392C41.9997 26.0063 44.2402 22.6682 46.1196 17.0425C47.2137 13.7674 47.6707 11.0953 47.6942 7.83326C47.7119 5.37724 47.6686 5.06821 47.1539 3.97069C46.4726 2.51758 45.3967 1.40618 43.9156 0.625381L42.8014 0.0380724L24.3279 0.00368751C14.1674 -0.0153199 5.56604 0.041063 5.21366 0.128839ZM18.018 26.0836C17.126 26.9755 17.3037 27.6832 18.8501 29.4005C20.5223 31.257 21.2237 32.519 21.7698 34.654C22.1527 36.1516 22.1922 37.0336 22.1922 44.0883V51.8705L20.9642 53.1088C20.2889 53.7898 17.3816 56.5771 14.5038 59.3024C11.626 62.0277 8.91114 64.6288 8.47055 65.0822C7.49583 66.0857 7.40528 66.9599 8.19398 67.7483L8.71807 68.2726H23.9007H39.0834L39.6075 67.7483C39.939 67.4171 40.1318 66.9804 40.1318 66.5613C40.1318 65.7635 40.1301 65.7617 33.0841 59.0891C30.2063 56.3637 27.3471 53.6235 26.7305 52.9998L25.6093 51.8656V44.0858C25.6093 37.0336 25.6488 36.1514 26.0317 34.654C26.5778 32.519 27.2792 31.257 28.9514 29.4005C30.4978 27.6832 30.6755 26.9755 29.7834 26.0836L29.2593 25.5593H23.9007H18.5421L18.018 26.0836Z" fill="black"/>
</svg>
