<svg width="20" height="20" viewBox="0 0 20 20" fill="none" xmlns="http://www.w3.org/2000/svg">
<path fill-rule="evenodd" clip-rule="evenodd" d="M6.04273 3.02577C5.47759 3.16647 5.0502 3.69466 5.00646 4.30636C4.95871 4.97469 5.18086 6.12757 5.49899 6.86245C5.892 7.77041 6.21713 8.22253 7.18057 9.20105C7.94437 9.97681 8.06974 10.1605 8.06974 10.5038C8.06974 10.8458 7.94365 11.0316 7.20018 11.7852C6.0851 12.9155 5.6229 13.6369 5.27735 14.7863C5.03171 15.6033 4.93043 16.6225 5.05345 17.0395C5.15344 17.3785 5.39003 17.6641 5.72238 17.8471L6.00002 18H9.78015H13.5603L13.8379 17.8471C14.1703 17.6641 14.4069 17.3785 14.5069 17.0395C14.6299 16.6225 14.5286 15.6033 14.2829 14.7863C13.9374 13.6369 13.4752 12.9155 12.3601 11.7852C11.617 11.032 11.4909 10.8463 11.4901 10.5038C11.4891 10.1653 11.6387 9.9382 12.2779 9.30783C13.3999 8.20126 13.848 7.53365 14.2239 6.40849C14.4427 5.75348 14.5341 5.21906 14.5388 4.56665C14.5424 4.07545 14.5337 4.01364 14.4308 3.79414C14.2945 3.50352 14.0793 3.28124 13.7831 3.12508L13.5603 3.00761L9.86558 3.00074C7.83349 2.99694 6.11321 3.00821 6.04273 3.02577ZM8.60361 8.21672C8.4252 8.39509 8.46073 8.53664 8.77002 8.8801C9.10447 9.25141 9.24474 9.5038 9.35396 9.93081C9.43054 10.2303 9.43844 10.4067 9.43844 11.8177V13.3741L9.19284 13.6218C9.05778 13.758 8.47632 14.3154 7.90076 14.8605C7.3252 15.4055 6.78223 15.9258 6.69411 16.0164C6.49917 16.2171 6.48106 16.392 6.6388 16.5497L6.74361 16.6545H9.78015H12.8167L12.9215 16.5497C12.9878 16.4834 13.0264 16.3961 13.0264 16.3123C13.0264 16.1527 13.026 16.1523 11.6168 14.8178C11.0413 14.2727 10.4694 13.7247 10.3461 13.6L10.1219 13.3731V11.8172C10.1219 10.4067 10.1298 10.2303 10.2063 9.93081C10.3156 9.5038 10.4558 9.25141 10.7903 8.8801C11.0996 8.53664 11.1351 8.39509 10.9567 8.21672L10.8519 8.11186H9.78015H8.70843L8.60361 8.21672Z" fill="black"/>
</svg>
