<svg width="21" height="20" viewBox="0 0 21 20" fill="none" xmlns="http://www.w3.org/2000/svg">
<path fill-rule="evenodd" clip-rule="evenodd" d="M9.32305 0.0177843C9.24476 0.0312788 9.00135 0.0712497 8.78214 0.106609C6.76861 0.431501 4.85837 1.86875 3.89348 3.7848C3.2827 4.99777 3.04555 6.46878 3.25691 7.73385C3.52765 9.35421 4.47221 11.2453 5.92831 13.0819L6.35711 13.6229L4.55187 13.6513C2.75425 13.6797 2.74531 13.6804 2.43346 13.8277C2.26122 13.909 2.01781 14.076 1.89254 14.1988C1.65539 14.4314 0.316703 16.6132 0.140135 17.055C-0.0163894 17.4465 -0.0427521 17.8957 0.0658871 18.3198C0.240348 19.0008 0.650421 19.5013 1.29349 19.8182L1.66239 20H10.0063H18.3502L18.7272 19.8144C19.7863 19.293 20.2859 18.0892 19.8725 17.055C19.7022 16.6289 18.3617 14.4357 18.1285 14.2015C18.0079 14.0804 17.7645 13.9135 17.5876 13.8306C17.2889 13.6905 17.2013 13.6785 16.355 13.6617L15.444 13.6436L14.6082 14.5443L13.7725 15.4449L15.32 15.4734L16.8674 15.5018L17.5365 16.6112C17.9044 17.2214 18.2055 17.7624 18.2055 17.8135C18.2055 17.8646 18.1524 17.9739 18.0875 18.0564L17.9695 18.2064H10.0063H2.04314L1.92517 18.0564C1.86026 17.9739 1.80713 17.8646 1.80713 17.8135C1.80713 17.7624 2.10817 17.2214 2.47616 16.6112L3.14519 15.5018L5.61195 15.487L8.07871 15.4722L8.70493 16.0564C9.04935 16.3777 9.42537 16.6981 9.54062 16.7684C9.85139 16.958 10.1987 16.9412 10.5479 16.7198C10.8873 16.5045 13.0111 14.39 13.6013 13.6798C15.28 11.6596 16.2922 9.84719 16.6836 8.16077C16.8387 7.49277 16.8497 6.1017 16.7051 5.46136C16.0971 2.77038 14.1039 0.741989 11.4867 0.150907C11.0244 0.0464817 9.64846 -0.0381296 9.32305 0.0177843ZM9.55081 5.52656C9.27135 5.61464 8.79472 6.10819 8.70903 6.39823C8.55131 6.93209 8.66251 7.35771 9.06489 7.76009C9.64766 8.34286 10.4518 8.33045 10.9913 7.73037C11.5019 7.16252 11.5019 6.47482 10.9913 5.90696C10.6228 5.49712 10.0904 5.35648 9.55081 5.52656Z" fill="black"/>
</svg>
