<svg width="20" height="20" viewBox="0 0 20 20" fill="none" xmlns="http://www.w3.org/2000/svg">
<path fill-rule="evenodd" clip-rule="evenodd" d="M9.99229 2.01334C9.93357 2.02346 9.75101 2.05344 9.5866 2.07996C8.07646 2.32363 6.64378 3.40156 5.92011 4.8386C5.46203 5.74832 5.28416 6.85158 5.44268 7.80038C5.64574 9.01566 6.35416 10.4339 7.44623 11.8115L7.76783 12.2171L6.4139 12.2385C5.06569 12.2598 5.05898 12.2603 4.82509 12.3707C4.69591 12.4318 4.51335 12.557 4.41941 12.6491C4.24154 12.8236 3.23753 14.4599 3.1051 14.7912C2.98771 15.0849 2.96794 15.4218 3.04942 15.7398C3.18026 16.2506 3.48782 16.626 3.97012 16.8636L4.2468 17H10.5047H16.7627L17.0454 16.8608C17.8397 16.4698 18.2145 15.5669 17.9044 14.7912C17.7766 14.4717 16.7713 12.8267 16.5964 12.6511C16.5059 12.5603 16.3233 12.4351 16.1907 12.3729C15.9666 12.2679 15.901 12.2589 15.2662 12.2463L14.583 12.2327L13.9562 12.9082L13.3294 13.5837L14.49 13.605L15.6506 13.6264L16.1524 14.4584C16.4283 14.916 16.6541 15.3218 16.6541 15.3601C16.6541 15.3984 16.6143 15.4804 16.5656 15.5423L16.4771 15.6548H10.5047H4.53236L4.44387 15.5423C4.39519 15.4804 4.35535 15.3984 4.35535 15.3601C4.35535 15.3218 4.58113 14.916 4.85712 14.4584L5.3589 13.6264L7.20897 13.6152L9.05903 13.6041L9.52869 14.0423C9.78701 14.2833 10.069 14.5236 10.1555 14.5763C10.3885 14.7185 10.649 14.7059 10.9109 14.5398C11.1655 14.3784 12.7583 12.7925 13.201 12.2598C14.46 10.7447 15.2192 9.38539 15.5127 8.12058C15.629 7.61958 15.6373 6.57627 15.5288 6.09602C15.0728 4.07778 13.5779 2.55649 11.615 2.11318C11.2683 2.03486 10.2363 1.9714 9.99229 2.01334ZM10.1631 6.14492C9.95352 6.21098 9.59604 6.58114 9.53177 6.79867C9.41348 7.19907 9.49688 7.51828 9.79867 7.82007C10.2357 8.25715 10.8389 8.24784 11.2435 7.79778C11.6264 7.37189 11.6264 6.85611 11.2435 6.43022C10.9671 6.12284 10.5678 6.01736 10.1631 6.14492Z" fill="black"/>
</svg>
