<svg width="76" height="75" viewBox="0 0 76 75" fill="none" xmlns="http://www.w3.org/2000/svg">
<path fill-rule="evenodd" clip-rule="evenodd" d="M34.9615 0.066691C34.6679 0.117295 33.7551 0.267186 32.933 0.399782C25.3823 1.61813 18.2189 7.00781 14.6006 14.193C12.3101 18.7416 11.4208 24.2579 12.2134 29.0019C13.2287 35.0783 16.7708 42.1697 22.2311 49.0573L23.8392 51.0857L17.0695 51.1925C10.3284 51.2988 10.2949 51.3016 9.12547 51.8537C8.47957 52.1589 7.56677 52.7851 7.09703 53.2457C6.20772 54.1179 1.18763 62.2994 0.525508 63.9561C-0.0614602 65.4245 -0.16032 67.1089 0.247077 68.6992C0.901304 71.2529 2.43908 73.13 4.85058 74.3182L6.23398 75H37.5237H68.8134L70.2271 74.3041C74.1986 72.3489 76.0723 67.8347 74.5219 63.9561C73.8833 62.3585 68.8566 54.1337 67.982 53.2557C67.5295 52.8016 66.6167 52.1755 65.9535 51.8646C64.8332 51.3394 64.5048 51.2943 61.3312 51.2315L57.9149 51.1636L54.7809 54.5411L51.6468 57.9184L57.4499 58.0251L63.2529 58.1319L65.7618 62.2921C67.1416 64.5802 68.2707 66.6091 68.2707 66.8006C68.2707 66.9921 68.0714 67.4021 67.828 67.7115L67.3856 68.2741H37.5237H7.66179L7.21938 67.7115C6.97596 67.4021 6.77675 66.9921 6.77675 66.8006C6.77675 66.6091 7.90563 64.5802 9.28561 62.2921L11.7945 58.1319L21.0448 58.0762L30.2952 58.0206L32.6435 60.2114C33.9351 61.4165 35.3451 62.6179 35.7773 62.8816C36.9427 63.5927 38.245 63.5297 39.5547 62.6991C40.8273 61.892 48.7916 53.9627 51.005 51.2992C57.3 43.7235 61.0959 36.9269 62.5637 30.6029C63.1451 28.0979 63.1865 22.8814 62.644 20.4801C60.3642 10.3889 52.8897 2.78246 43.0752 0.565903C41.3417 0.174306 36.1817 -0.142986 34.9615 0.066691ZM35.8155 20.7246C34.7676 21.0549 32.9802 22.9057 32.6588 23.9934C32.0674 25.9953 32.4844 27.5914 33.9934 29.1004C36.1787 31.2857 39.1943 31.2392 41.2174 28.9889C43.132 26.8595 43.132 24.2806 41.2174 22.1511C39.8355 20.6142 37.8391 20.0868 35.8155 20.7246Z" fill="black"/>
</svg>
