<svg width="20" height="20" viewBox="0 0 20 20" fill="none" xmlns="http://www.w3.org/2000/svg">
<path fill-rule="evenodd" clip-rule="evenodd" d="M10.6845 2.06713C10.543 2.10406 10.3285 2.19417 10.2078 2.26736C10.0536 2.36075 8.99957 3.3913 6.67158 5.72456C3.5924 8.81082 3.34603 9.06751 3.22911 9.31126C2.88825 10.0221 2.93026 10.8542 3.33821 11.4714C3.57669 11.8322 8.33739 16.5627 8.62237 16.7221C8.89192 16.8728 9.37388 17.0009 9.66816 17C9.98307 16.999 10.3776 16.9058 10.6793 16.7611C10.9228 16.6444 11.1806 16.3969 14.2658 13.3188C16.5991 10.9908 17.6296 9.93671 17.723 9.78259C17.9775 9.36272 17.9902 9.24815 17.992 7.34891C17.9938 5.4962 17.9799 5.34509 17.7704 4.94914C17.6267 4.67748 15.4303 2.45891 15.1173 2.26919C14.6927 2.01188 14.5845 2 12.661 2C11.1616 2 10.9087 2.0086 10.6845 2.06713ZM13.3057 5.48526C13.114 5.54571 12.7868 5.88442 12.728 6.08347C12.6198 6.44985 12.6961 6.74194 12.9723 7.01809C13.3722 7.41803 13.9241 7.40951 14.2943 6.99769C14.6447 6.60799 14.6447 6.13603 14.2943 5.74633C14.0414 5.46506 13.6761 5.36854 13.3057 5.48526Z" fill="black"/>
</svg>
