<svg width="68" height="69" viewBox="0 0 68 69" fill="none" xmlns="http://www.w3.org/2000/svg">
<path d="M43.6192 0.514905C55.1885 -2.27255 60.2772 6.84144 66.0252 13.82C70.0542 18.713 67.3731 35.1491 62.8704 39.7484C54.7636 48.0261 46.6666 56.3089 38.5305 64.5518C32.6458 70.5149 27.5473 70.4801 21.5991 64.4622C15.6801 58.4691 9.75144 52.4811 3.90577 46.4184C-1.32946 40.9928 -1.30016 35.5821 3.9839 30.1366C11.3191 22.5756 18.9766 15.3283 26.0138 7.4935C30.9316 2.01814 36.245 -1.2173 43.6241 0.509927L43.6192 0.514905ZM46.8131 25.2138C47.4431 25.2138 48.0682 25.2138 48.6982 25.2138C49.6847 23.5264 51.516 21.7792 51.3988 20.1764C51.2963 18.7976 48.9277 16.5328 47.6433 16.5876C46.2368 16.6473 43.883 18.8823 43.8341 20.2411C43.7804 21.8638 45.729 23.5562 46.8131 25.2187V25.2138Z" fill="black"/>
</svg>
