<svg width="20" height="20" viewBox="0 0 20 20" fill="none" xmlns="http://www.w3.org/2000/svg">
<path fill-rule="evenodd" clip-rule="evenodd" d="M10.246 0.08951C10.0574 0.138746 9.77134 0.258891 9.61034 0.356477C9.40486 0.480999 7.99943 1.85506 4.89544 4.96608C0.789866 9.08109 0.461368 9.42334 0.305481 9.74835C-0.148998 10.6962 -0.0929889 11.8056 0.450948 12.6286C0.768922 13.1096 7.11652 19.4169 7.49649 19.6294C7.85589 19.8305 8.4985 20.0012 8.89088 20C9.31076 19.9987 9.83677 19.8744 10.2391 19.6815C10.5637 19.5258 10.9075 19.1959 15.0211 15.0917C18.1321 11.9877 19.5061 10.5823 19.6307 10.3768C19.97 9.81697 19.9869 9.6642 19.9894 7.13188C19.9918 4.6616 19.9732 4.46013 19.6939 3.93218C19.5022 3.56998 16.5737 0.611877 16.1563 0.358925C15.5903 0.0158388 15.446 0 12.8813 0C10.8821 0 10.545 0.0114624 10.246 0.08951ZM13.741 4.64701C13.4853 4.72761 13.0491 5.17923 12.9707 5.44463C12.8264 5.93313 12.9282 6.32259 13.2963 6.69079C13.8296 7.22404 14.5654 7.21268 15.0591 6.66359C15.5263 6.14398 15.5263 5.51471 15.0591 4.9951C14.7219 4.62008 14.2347 4.49139 13.741 4.64701Z" fill="black"/>
</svg>
