<svg width="20" height="20" viewBox="0 0 20 20" fill="none" xmlns="http://www.w3.org/2000/svg">
<path fill-rule="evenodd" clip-rule="evenodd" d="M8.68345 0.0860038C4.51497 0.651065 1.09705 3.80295 0.215301 7.89514C-0.0327943 9.04646 -0.0708912 10.6291 0.124021 11.6859C0.397369 13.1677 0.993804 14.5963 1.83888 15.7933C2.3149 16.4676 3.53166 17.6851 4.18696 18.143C5.97124 19.3897 7.88013 20 9.99526 20C12.7838 20 15.2905 18.9175 17.2446 16.8693C19.0135 15.0152 19.9978 12.5592 19.9978 9.99949C19.9978 6.64422 18.2888 3.49468 15.4611 1.63858C13.4721 0.333006 11.0145 -0.229978 8.68345 0.0860038ZM9.33548 3.33683C8.1912 3.42794 7.08376 3.8352 6.12379 4.51794C5.68488 4.8301 5.56829 5.01692 5.56829 5.40817C5.56829 5.95705 5.89368 6.28211 6.44338 6.28249C6.7223 6.28271 6.78527 6.25625 7.2831 5.93038C7.8293 5.57275 8.43913 5.31465 9.03873 5.18724C9.49573 5.09016 10.487 5.10246 10.9438 5.21096C12.3766 5.55116 13.546 6.46062 14.1842 7.73116L14.4314 8.22309L14.0399 8.25042C13.6316 8.27889 13.5271 8.34339 13.4607 8.60783C13.411 8.80558 13.5245 8.97033 14.4471 10.0405C15.341 11.0773 15.3574 11.0927 15.5708 11.0927C15.8365 11.0927 15.8857 11.0483 16.7534 10.0268C17.7474 8.8568 17.7021 8.92042 17.7021 8.69304C17.7021 8.33825 17.5568 8.25736 16.8857 8.23877L16.3181 8.22309L16.1709 7.78582C15.1955 4.88798 12.4333 3.09015 9.33548 3.33683ZM4.26758 8.56689C4.18477 8.5799 3.82927 8.95032 3.21666 9.66198C2.34059 10.6797 2.2908 10.7496 2.28965 10.9657C2.28768 11.3237 2.45073 11.4206 3.05454 11.4206H3.53264L3.6735 11.8716C4.296 13.8642 5.85416 15.4481 7.86357 16.1307C8.52336 16.3548 9.13881 16.4492 9.9406 16.4492C11.0485 16.4492 11.9199 16.2506 12.8613 15.7835C13.7125 15.3612 13.9316 15.128 13.9298 14.6464C13.9279 14.1411 13.5557 13.7709 13.0495 13.7709C12.8468 13.7709 12.6671 13.8365 12.1632 14.0944C11.2745 14.5489 10.7336 14.6697 9.76148 14.6304C8.97976 14.5987 8.55621 14.502 7.94239 14.2148C6.93399 13.7428 6.09815 12.909 5.61962 11.8975C5.53113 11.7104 5.45865 11.5265 5.45865 11.4889C5.45859 11.4407 5.57518 11.4201 5.85487 11.4189C6.07979 11.4179 6.28864 11.3884 6.33789 11.3505C6.48109 11.2406 6.56106 11.0408 6.52597 10.8809C6.4788 10.6662 4.70414 8.62057 4.5294 8.57946C4.45424 8.56175 4.3364 8.55612 4.26758 8.56689Z" fill="black"/>
</svg>
