<svg width="40" height="40" viewBox="0 0 40 40" fill="none" xmlns="http://www.w3.org/2000/svg">
<path fill-rule="evenodd" clip-rule="evenodd" d="M17.3669 0.172008C9.02993 1.30213 2.19411 7.60591 0.430602 15.7903C-0.0655885 18.0929 -0.141782 21.2582 0.248043 23.3719C0.794738 26.3355 1.98761 29.1927 3.67776 31.5866C4.62981 32.9352 7.06332 35.3702 8.37392 36.2861C11.9425 38.7795 15.7603 40 19.9905 40C25.5677 40 30.581 37.835 34.4892 33.7386C38.027 30.0305 39.9956 25.1184 39.9956 19.999C39.9956 13.2884 36.5777 6.98936 30.9222 3.27716C26.9442 0.666012 22.029 -0.459955 17.3669 0.172008ZM18.671 6.67365C16.3824 6.85588 14.1675 7.67041 12.2476 9.03589C11.3698 9.6602 11.1366 10.0338 11.1366 10.8163C11.1366 11.9141 11.7874 12.5642 12.8868 12.565C13.4446 12.5654 13.5705 12.5125 14.5662 11.8608C15.6586 11.1455 16.8783 10.6293 18.0775 10.3745C18.9915 10.1803 20.9739 10.2049 21.8875 10.4219C24.7533 11.1023 27.092 12.9212 28.3685 15.4623L28.8627 16.4462L28.0798 16.5008C27.2632 16.5578 27.0542 16.6868 26.9213 17.2157C26.8221 17.6112 27.0489 17.9407 28.8942 20.081C30.682 22.1545 30.7149 22.1853 31.1416 22.1853C31.6729 22.1853 31.7714 22.0966 33.5068 20.0536C35.4948 17.7136 35.4042 17.8408 35.4042 17.3861C35.4042 16.6765 35.1136 16.5147 33.7715 16.4775L32.6361 16.4462L32.3417 15.5716C30.391 9.77597 24.8666 6.1803 18.671 6.67365ZM8.53517 17.1338C8.36955 17.1598 7.65855 17.9006 6.43332 19.324C4.68119 21.3593 4.5816 21.4993 4.5793 21.9314C4.57537 22.6473 4.90146 22.8412 6.10909 22.8412H7.06529L7.347 23.7431C8.59201 27.7285 11.7083 30.8962 15.7271 32.2614C17.0467 32.7096 18.2776 32.8984 19.8812 32.8984C22.097 32.8984 23.8398 32.5012 25.7227 31.5669C27.425 30.7224 27.8631 30.256 27.8596 29.2927C27.8559 28.2822 27.1114 27.5419 26.0991 27.5419C25.6936 27.5419 25.3343 27.6731 24.3264 28.1887C22.5491 29.0979 21.4672 29.3395 19.523 29.2608C17.9595 29.1975 17.1124 29.004 15.8848 28.4295C13.868 27.4857 12.1963 25.8181 11.2392 23.795C11.0623 23.4207 10.9173 23.0531 10.9173 22.9779C10.9172 22.8815 11.1504 22.8402 11.7097 22.8377C12.1596 22.8358 12.5773 22.7767 12.6758 22.7011C12.9622 22.4811 13.1221 22.0817 13.0519 21.7618C12.9576 21.3324 9.40828 17.2411 9.05879 17.1589C8.90848 17.1235 8.6728 17.1122 8.53517 17.1338Z" fill="black"/>
</svg>
