<svg width="20" height="20" viewBox="0 0 20 20" fill="none" xmlns="http://www.w3.org/2000/svg">
<path fill-rule="evenodd" clip-rule="evenodd" d="M9.51259 2.0645C6.38623 2.4883 3.82279 4.85222 3.16148 7.92135C2.9754 8.78485 2.94683 9.97183 3.09302 10.7644C3.29803 11.8758 3.74535 12.9473 4.37916 13.845C4.73618 14.3507 5.64874 15.2638 6.14022 15.6073C7.47843 16.5423 8.9101 17 10.4964 17C12.5879 17 14.4679 16.1881 15.9334 14.652C17.2601 13.2614 17.9983 11.4194 17.9983 9.49962C17.9983 6.98316 16.7166 4.62101 14.5958 3.22894C13.1041 2.24975 11.2609 1.82752 9.51259 2.0645ZM10.0016 4.50262C9.1434 4.57096 8.31282 4.8764 7.59284 5.38846C7.26366 5.62257 7.17622 5.76269 7.17622 6.05613C7.17622 6.46779 7.42026 6.71158 7.83253 6.71187C8.04173 6.71203 8.08895 6.69219 8.46232 6.44778C8.87198 6.17956 9.32935 5.98599 9.77905 5.89043C10.1218 5.81762 10.8652 5.82685 11.2078 5.90822C12.2825 6.16337 13.1595 6.84547 13.6382 7.79837L13.8235 8.16732L13.5299 8.18781C13.2237 8.20917 13.1453 8.25754 13.0955 8.45587C13.0583 8.60419 13.1433 8.72774 13.8353 9.53037C14.5057 10.3079 14.5181 10.3195 14.6781 10.3195C14.8773 10.3195 14.9143 10.2862 15.5651 9.52012C16.3105 8.6426 16.2766 8.69032 16.2766 8.51978C16.2766 8.25369 16.1676 8.19302 15.6643 8.17908L15.2385 8.16732L15.1281 7.83936C14.3966 5.66599 12.325 4.31761 10.0016 4.50262ZM6.20069 8.42517C6.13858 8.43492 5.87196 8.71274 5.4125 9.24648C4.75544 10.0097 4.7181 10.0622 4.71724 10.2243C4.71576 10.4927 4.83805 10.5655 5.29091 10.5655H5.64948L5.75512 10.9037C6.222 12.3982 7.39062 13.5861 8.89768 14.098C9.39252 14.2661 9.85411 14.3369 10.4554 14.3369C11.2864 14.3369 11.9399 14.1879 12.646 13.8376C13.2844 13.5209 13.4487 13.346 13.4474 12.9848C13.446 12.6058 13.1668 12.3282 12.7871 12.3282C12.6351 12.3282 12.5004 12.3774 12.1224 12.5708C11.4559 12.9117 11.0502 13.0023 10.3211 12.9728C9.73482 12.9491 9.41715 12.8765 8.95679 12.6611C8.20049 12.3071 7.57362 11.6818 7.21471 10.9231C7.14834 10.7828 7.09399 10.6449 7.09399 10.6167C7.09395 10.5805 7.18138 10.5651 7.39115 10.5642C7.55984 10.5634 7.71648 10.5413 7.75341 10.5129C7.86082 10.4304 7.92079 10.2806 7.89447 10.1607C7.8591 9.99966 6.52811 8.46542 6.39705 8.4346C6.34068 8.42131 6.2523 8.41709 6.20069 8.42517Z" fill="black"/>
</svg>
