<svg width="75" height="75" viewBox="0 0 75 75" fill="none" xmlns="http://www.w3.org/2000/svg">
<path fill-rule="evenodd" clip-rule="evenodd" d="M32.5629 0.322514C16.9311 2.44149 4.11395 14.2611 0.80738 29.6068C-0.122978 33.9242 -0.265842 39.8591 0.46508 43.8222C1.49013 49.379 3.72677 54.7363 6.8958 59.2249C8.68089 61.7534 13.2437 66.3191 15.7011 68.0364C22.3921 72.7115 29.5505 75 37.4822 75C47.9394 75 57.3393 70.9406 64.6672 63.2599C71.3006 56.3072 74.9917 47.097 74.9917 37.4981C74.9917 24.9158 68.5831 13.105 57.9792 6.14468C50.5204 1.24877 41.3043 -0.862417 32.5629 0.322514ZM35.008 12.5131C30.717 12.8548 26.5641 14.382 22.9642 16.9423C21.3183 18.1129 20.8811 18.8135 20.8811 20.2806C20.8811 22.3389 22.1013 23.5579 24.1627 23.5593C25.2086 23.5602 25.4448 23.4609 27.3116 22.2389C29.3599 20.8978 31.6467 19.9299 33.8953 19.4521C35.609 19.0881 39.3261 19.1342 41.0391 19.5411C46.4123 20.8168 50.7975 24.2273 53.1909 28.9919L54.1176 30.8366L52.6496 30.9391C51.1185 31.0459 50.7266 31.2877 50.4775 32.2794C50.2914 33.0209 50.7167 33.6387 54.1766 37.6518C57.5287 41.5397 57.5904 41.5975 58.3906 41.5975C59.3867 41.5975 59.5714 41.4311 62.8253 37.6006C66.5527 33.213 66.383 33.4516 66.383 32.5989C66.383 31.2685 65.838 30.9651 63.3215 30.8954L61.1927 30.8366L60.6407 29.1968C56.983 18.3299 46.6249 11.5881 35.008 12.5131ZM16.0034 32.1258C15.6929 32.1746 14.3598 33.5637 12.0625 36.2324C8.77722 40.0487 8.5905 40.3111 8.58619 41.1214C8.57881 42.4637 9.19024 42.8273 11.4545 42.8273H13.2474L13.7756 44.5183C16.11 51.9909 21.9531 57.9303 29.4884 60.4902C31.9626 61.3306 34.2706 61.6845 37.2773 61.6845C41.4318 61.6845 44.6996 60.9397 48.23 59.188C51.4218 57.6044 52.2433 56.73 52.2368 54.9238C52.2298 53.0291 50.834 51.641 48.9357 51.641C48.1755 51.641 47.5018 51.887 45.6119 52.8538C42.2795 54.5586 40.251 55.0115 36.6056 54.864C33.6741 54.7453 32.0858 54.3825 29.784 53.3054C26.0025 51.5357 22.8681 48.4088 21.0736 44.6157C20.7417 43.9139 20.4699 43.2245 20.4699 43.0835C20.4697 42.9027 20.9069 42.8255 21.9558 42.8208C22.7992 42.8171 23.5824 42.7064 23.7671 42.5645C24.3041 42.1521 24.604 41.4032 24.4724 40.8034C24.2955 39.9983 17.6405 32.3271 16.9852 32.173C16.7034 32.1066 16.2615 32.0855 16.0034 32.1258Z" fill="black"/>
</svg>
