<svg width="15" height="15" viewBox="0 0 15 15" fill="none" xmlns="http://www.w3.org/2000/svg">
<path fill-rule="evenodd" clip-rule="evenodd" d="M6.51259 0.0645028C3.38623 0.488298 0.822791 2.85222 0.161476 5.92135C-0.0245957 6.78485 -0.0531684 7.97183 0.0930161 8.76445C0.298027 9.87579 0.745353 10.9473 1.37916 11.845C1.73618 12.3507 2.64874 13.2638 3.14022 13.6073C4.47843 14.5423 5.9101 15 7.49644 15C9.58787 15 11.4679 14.1881 12.9334 12.652C14.2601 11.2614 14.9983 9.41941 14.9983 7.49962C14.9983 4.98316 13.7166 2.62101 11.5958 1.22894C10.1041 0.249755 8.26086 -0.172483 6.51259 0.0645028ZM7.00161 2.50262C6.1434 2.57096 5.31282 2.8764 4.59284 3.38846C4.26366 3.62257 4.17622 3.76269 4.17622 4.05613C4.17622 4.46779 4.42026 4.71158 4.83253 4.71187C5.04173 4.71203 5.08895 4.69219 5.46232 4.44778C5.87198 4.17956 6.32935 3.98599 6.77905 3.89043C7.1218 3.81762 7.86523 3.82685 8.20781 3.90822C9.28247 4.16337 10.1595 4.84547 10.6382 5.79837L10.8235 6.16732L10.5299 6.18781C10.2237 6.20917 10.1453 6.25754 10.0955 6.45587C10.0583 6.60419 10.1433 6.72774 10.8353 7.53037C11.5057 8.30794 11.5181 8.3195 11.6781 8.3195C11.8773 8.3195 11.9143 8.28621 12.5651 7.52012C13.3105 6.6426 13.2766 6.69032 13.2766 6.51978C13.2766 6.25369 13.1676 6.19302 12.6643 6.17908L12.2385 6.16732L12.1281 5.83936C11.3966 3.66599 9.32498 2.31761 7.00161 2.50262ZM3.20069 6.42517C3.13858 6.43492 2.87196 6.71274 2.4125 7.24648C1.75544 8.00975 1.7181 8.06222 1.71724 8.22427C1.71576 8.49274 1.83805 8.56546 2.29091 8.56546H2.64948L2.75512 8.90366C3.222 10.3982 4.39062 11.5861 5.89768 12.098C6.39252 12.2661 6.85411 12.3369 7.45545 12.3369C8.28636 12.3369 8.93992 12.1879 9.646 11.8376C10.2844 11.5209 10.4487 11.346 10.4474 10.9848C10.446 10.6058 10.1668 10.3282 9.78715 10.3282C9.6351 10.3282 9.50035 10.3774 9.12239 10.5708C8.45591 10.9117 8.05019 11.0023 7.32111 10.9728C6.73482 10.9491 6.41715 10.8765 5.95679 10.6611C5.20049 10.3071 4.57362 9.68177 4.21471 8.92314C4.14834 8.78277 4.09399 8.64491 4.09399 8.61671C4.09395 8.58055 4.18138 8.56509 4.39115 8.56415C4.55984 8.56341 4.71648 8.54128 4.75341 8.51291C4.86082 8.43043 4.92079 8.28064 4.89447 8.16069C4.8591 7.99966 3.52811 6.46542 3.39705 6.4346C3.34068 6.42131 3.2523 6.41709 3.20069 6.42517Z" fill="black"/>
</svg>
