<svg width="25" height="25" viewBox="0 0 25 25" fill="none" xmlns="http://www.w3.org/2000/svg">
<path fill-rule="evenodd" clip-rule="evenodd" d="M10.8543 0.107505C5.64371 0.813831 1.37132 4.75369 0.269127 9.86892C-0.0409928 11.3081 -0.088614 13.2864 0.155027 14.6074C0.496711 16.4597 1.24226 18.2454 2.2986 19.7416C2.89363 20.5845 4.41457 22.1064 5.2337 22.6788C7.46405 24.2372 9.85017 25 12.4941 25C15.9798 25 19.1131 23.6469 21.5557 21.0866C23.7669 18.7691 24.9972 15.699 24.9972 12.4994C24.9972 8.30527 22.861 4.36835 19.3264 2.04823C16.8401 0.416258 13.7681 -0.287472 10.8543 0.107505ZM11.6693 4.17103C10.239 4.28493 8.8547 4.794 7.65474 5.64743C7.1061 6.03762 6.96037 6.27115 6.96037 6.76021C6.96037 7.44631 7.3671 7.85263 8.05422 7.85311C8.40288 7.85338 8.48158 7.82031 9.10387 7.41297C9.78663 6.96593 10.5489 6.64331 11.2984 6.48405C11.8697 6.36271 13.1087 6.37808 13.6797 6.5137C15.4708 6.93894 16.9325 8.07578 17.7303 9.66395L18.0392 10.2789L17.5499 10.313C17.0395 10.3486 16.9089 10.4292 16.8258 10.7598C16.7638 11.007 16.9056 11.2129 18.0589 12.5506C19.1762 13.8466 19.1968 13.8658 19.4635 13.8658C19.7956 13.8658 19.8571 13.8104 20.9418 12.5335C22.1842 11.071 22.1277 11.1505 22.1277 10.8663C22.1277 10.4228 21.946 10.3217 21.1072 10.2985L20.3976 10.2789L20.2136 9.73227C18.9943 6.10998 15.5416 3.86269 11.6693 4.17103ZM5.33448 10.7086C5.23097 10.7249 4.78659 11.1879 4.02083 12.0775C2.92574 13.3496 2.8635 13.437 2.86206 13.7071C2.8596 14.1546 3.06341 14.2758 3.81818 14.2758H4.4158L4.59187 14.8394C5.37001 17.3303 7.3177 19.3101 9.82947 20.1634C10.6542 20.4435 11.4235 20.5615 12.4258 20.5615C13.8106 20.5615 14.8999 20.3132 16.0767 19.7293C17.1406 19.2015 17.4144 18.91 17.4123 18.3079C17.4099 17.6764 16.9447 17.2137 16.3119 17.2137C16.0585 17.2137 15.8339 17.2957 15.204 17.6179C14.0932 18.1862 13.417 18.3372 12.2019 18.288C11.2247 18.2484 10.6953 18.1275 9.92799 17.7685C8.66749 17.1786 7.62269 16.1363 7.02452 14.8719C6.91391 14.638 6.82331 14.4082 6.82331 14.3612C6.82324 14.3009 6.96898 14.2752 7.31859 14.2736C7.59974 14.2724 7.8608 14.2355 7.92236 14.1882C8.10137 14.0507 8.20132 13.8011 8.15746 13.6011C8.0985 13.3328 5.88018 10.7757 5.66175 10.7243C5.5678 10.7022 5.4205 10.6952 5.33448 10.7086Z" fill="black"/>
</svg>
